%TF.GenerationSoftware,KiCad,Pcbnew,5.1.9+dfsg1-1*%
%TF.CreationDate,2022-02-11T04:52:15+01:00*%
%TF.ProjectId,va11800,76613131-3830-4302-9e6b-696361645f70,rev?*%
%TF.SameCoordinates,Original*%
%TF.FileFunction,Copper,L1,Top*%
%TF.FilePolarity,Positive*%
%FSLAX46Y46*%
G04 Gerber Fmt 4.6, Leading zero omitted, Abs format (unit mm)*
G04 Created by KiCad (PCBNEW 5.1.9+dfsg1-1) date 2022-02-11 04:52:15*
%MOMM*%
%LPD*%
G01*
G04 APERTURE LIST*
%TA.AperFunction,ComponentPad*%
%ADD10C,2.250000*%
%TD*%
%TA.AperFunction,ComponentPad*%
%ADD11R,1.600000X1.600000*%
%TD*%
%TA.AperFunction,ComponentPad*%
%ADD12C,1.600000*%
%TD*%
%TA.AperFunction,ComponentPad*%
%ADD13R,1.800000X1.800000*%
%TD*%
%TA.AperFunction,ComponentPad*%
%ADD14C,1.800000*%
%TD*%
%TA.AperFunction,ComponentPad*%
%ADD15C,1.524000*%
%TD*%
%TA.AperFunction,SMDPad,CuDef*%
%ADD16R,0.500000X2.900000*%
%TD*%
%TA.AperFunction,SMDPad,CuDef*%
%ADD17R,1.200000X1.600000*%
%TD*%
%TA.AperFunction,ComponentPad*%
%ADD18O,1.700000X1.700000*%
%TD*%
%TA.AperFunction,ComponentPad*%
%ADD19R,1.700000X1.700000*%
%TD*%
%TA.AperFunction,SMDPad,CuDef*%
%ADD20R,25.000000X5.000000*%
%TD*%
%TA.AperFunction,SMDPad,CuDef*%
%ADD21O,3.000000X3.000000*%
%TD*%
%TA.AperFunction,ViaPad*%
%ADD22C,0.800000*%
%TD*%
%TA.AperFunction,Conductor*%
%ADD23C,0.250000*%
%TD*%
%TA.AperFunction,Conductor*%
%ADD24C,0.245000*%
%TD*%
G04 APERTURE END LIST*
D10*
%TO.P,f5,2*%
%TO.N,Net-(D6-Pad2)*%
X145412500Y-73971250D03*
%TO.P,f5,1*%
%TO.N,col3*%
X139062500Y-76511250D03*
%TD*%
%TO.P,pause1,2*%
%TO.N,Net-(D12-Pad2)*%
X278762500Y-73971250D03*
%TO.P,pause1,1*%
%TO.N,col6*%
X272412500Y-76511250D03*
%TD*%
%TO.P,f4,2*%
%TO.N,Net-(D5-Pad2)*%
X126362500Y-73971250D03*
%TO.P,f4,1*%
%TO.N,col2*%
X120012500Y-76511250D03*
%TD*%
%TO.P,f10,2*%
%TO.N,Net-(D21-Pad2)*%
X126362500Y-93021250D03*
%TO.P,f10,1*%
%TO.N,col2*%
X120012500Y-95561250D03*
%TD*%
%TO.P,f9,2*%
%TO.N,Net-(D20-Pad2)*%
X107312500Y-93021250D03*
%TO.P,f9,1*%
%TO.N,col2*%
X100962500Y-95561250D03*
%TD*%
%TO.P,kp_8,1*%
%TO.N,col7*%
X350993750Y-95561250D03*
%TO.P,kp_8,2*%
%TO.N,Net-(D29-Pad2)*%
X357343750Y-93021250D03*
%TD*%
%TO.P,kp_1,1*%
%TO.N,col8*%
X331943750Y-133661250D03*
%TO.P,kp_1,2*%
%TO.N,Net-(D54-Pad2)*%
X338293750Y-131121250D03*
%TD*%
%TO.P,n7,1*%
%TO.N,col3*%
X158112500Y-133661250D03*
%TO.P,n7,2*%
%TO.N,Net-(D44-Pad2)*%
X164462500Y-131121250D03*
%TD*%
%TO.P,grave1,1*%
%TO.N,col0*%
X24762500Y-133661250D03*
%TO.P,grave1,2*%
%TO.N,Net-(D37-Pad2)*%
X31112500Y-131121250D03*
%TD*%
%TO.P,left_shift2,1*%
%TO.N,col0*%
X27143750Y-190811250D03*
%TO.P,left_shift2,2*%
%TO.N,Net-(D94-Pad2)*%
X33493750Y-188271250D03*
%TD*%
%TO.P,left_shift1,1*%
%TO.N,col0*%
X36668750Y-190811250D03*
%TO.P,left_shift1,2*%
%TO.N,Net-(D94-Pad2)*%
X43018750Y-188271250D03*
%TD*%
%TO.P,stepped_capslock1,1*%
%TO.N,col0*%
X27143750Y-171761250D03*
%TO.P,stepped_capslock1,2*%
%TO.N,Net-(D76-Pad2)*%
X33493750Y-169221250D03*
%TD*%
%TO.P,capslock1,1*%
%TO.N,col0*%
X31906250Y-171761250D03*
%TO.P,capslock1,2*%
%TO.N,Net-(D76-Pad2)*%
X38256250Y-169221250D03*
%TD*%
%TO.P,tab1,1*%
%TO.N,col0*%
X29525000Y-152711250D03*
%TO.P,tab1,2*%
%TO.N,Net-(D58-Pad2)*%
X35875000Y-150171250D03*
%TD*%
D11*
%TO.P,D1,1*%
%TO.N,row0*%
X47050000Y-87820000D03*
D12*
%TO.P,D1,2*%
%TO.N,Net-(D1-Pad2)*%
X47050000Y-80020000D03*
%TD*%
D13*
%TO.P,D52,1*%
%TO.N,GND*%
X315630000Y-87490000D03*
D14*
%TO.P,D52,2*%
%TO.N,Net-(D52-Pad2)*%
X317520000Y-87490000D03*
%TD*%
D13*
%TO.P,D50,1*%
%TO.N,GND*%
X305470000Y-87490000D03*
D14*
%TO.P,D50,2*%
%TO.N,Net-(D50-Pad2)*%
X307360000Y-87490000D03*
%TD*%
D13*
%TO.P,D17,1*%
%TO.N,GND*%
X295380000Y-87530000D03*
D14*
%TO.P,D17,2*%
%TO.N,Net-(D17-Pad2)*%
X297270000Y-87530000D03*
%TD*%
D15*
%TO.P,R3,2*%
%TO.N,ScrollLock*%
X317520000Y-76050000D03*
%TO.P,R3,1*%
%TO.N,Net-(D52-Pad2)*%
X317530000Y-83770000D03*
D16*
X317530000Y-82450000D03*
D17*
X317530000Y-81350000D03*
%TO.P,R3,2*%
%TO.N,ScrollLock*%
X317530000Y-78550000D03*
D16*
X317530000Y-77450000D03*
%TD*%
D15*
%TO.P,R2,2*%
%TO.N,CapsLock*%
X307370000Y-76020000D03*
%TO.P,R2,1*%
%TO.N,Net-(D50-Pad2)*%
X307380000Y-83740000D03*
D16*
X307380000Y-82420000D03*
D17*
X307380000Y-81320000D03*
%TO.P,R2,2*%
%TO.N,CapsLock*%
X307380000Y-78520000D03*
D16*
X307380000Y-77420000D03*
%TD*%
D15*
%TO.P,R1,2*%
%TO.N,NumLock*%
X297340000Y-76060000D03*
%TO.P,R1,1*%
%TO.N,Net-(D17-Pad2)*%
X297350000Y-83780000D03*
D16*
X297350000Y-82460000D03*
D17*
X297350000Y-81360000D03*
%TO.P,R1,2*%
%TO.N,NumLock*%
X297350000Y-78560000D03*
D16*
X297350000Y-77460000D03*
%TD*%
D10*
%TO.P,left1,1*%
%TO.N,col7*%
X282308000Y-215772000D03*
%TO.P,left1,2*%
%TO.N,Net-(D116-Pad2)*%
X288658000Y-213232000D03*
%TD*%
%TO.P,R_mod3_1U1,2*%
%TO.N,Net-(D124-Pad2)*%
X259715000Y-207321250D03*
%TO.P,R_mod3_1U1,1*%
%TO.N,col6*%
X253365000Y-209861250D03*
%TD*%
%TO.P,R_mod2_1U1,2*%
%TO.N,Net-(D118-Pad2)*%
X240665000Y-207321250D03*
%TO.P,R_mod2_1U1,1*%
%TO.N,col5*%
X234315000Y-209861250D03*
%TD*%
%TO.P,R_mod1_1U1,2*%
%TO.N,Net-(D117-Pad2)*%
X221615000Y-207321350D03*
%TO.P,R_mod1_1U1,1*%
%TO.N,col5*%
X215265000Y-209861350D03*
%TD*%
%TO.P,L_mod3_1U1,2*%
%TO.N,Net-(D75-Pad2)*%
X69215000Y-207321250D03*
%TO.P,L_mod3_1U1,1*%
%TO.N,col1*%
X62865000Y-209861250D03*
%TD*%
%TO.P,lm21u1,2*%
%TO.N,Net-(D122-Pad2)*%
X50165000Y-207321250D03*
%TO.P,lm21u1,1*%
%TO.N,col0*%
X43815000Y-209861250D03*
%TD*%
%TO.P,lm1u1,2*%
%TO.N,Net-(D121-Pad2)*%
X31115000Y-207321250D03*
%TO.P,lm1u1,1*%
%TO.N,col0*%
X24765000Y-209861250D03*
%TD*%
D11*
%TO.P,D124,1*%
%TO.N,row13*%
X271510000Y-220850000D03*
D12*
%TO.P,D124,2*%
%TO.N,Net-(D124-Pad2)*%
X271510000Y-213050000D03*
%TD*%
D11*
%TO.P,D122,1*%
%TO.N,row12*%
X92150000Y-218000000D03*
D12*
%TO.P,D122,2*%
%TO.N,Net-(D122-Pad2)*%
X92150000Y-210200000D03*
%TD*%
D11*
%TO.P,D121,1*%
%TO.N,row13*%
X20130000Y-216020000D03*
D12*
%TO.P,D121,2*%
%TO.N,Net-(D121-Pad2)*%
X20130000Y-208220000D03*
%TD*%
D11*
%TO.P,D120,1*%
%TO.N,row13*%
X161925000Y-216693750D03*
D12*
%TO.P,D120,2*%
%TO.N,Net-(D120-Pad2)*%
X161925000Y-208893750D03*
%TD*%
D11*
%TO.P,D118,1*%
%TO.N,row12*%
X248480000Y-221870000D03*
D12*
%TO.P,D118,2*%
%TO.N,Net-(D118-Pad2)*%
X240680000Y-221870000D03*
%TD*%
D11*
%TO.P,D117,1*%
%TO.N,row13*%
X195260000Y-218563750D03*
D12*
%TO.P,D117,2*%
%TO.N,Net-(D117-Pad2)*%
X195260000Y-210763750D03*
%TD*%
D11*
%TO.P,D116,1*%
%TO.N,row12*%
X295272500Y-223445000D03*
D12*
%TO.P,D116,2*%
%TO.N,Net-(D116-Pad2)*%
X295272500Y-215645000D03*
%TD*%
D11*
%TO.P,D115,1*%
%TO.N,row12*%
X314322500Y-223445000D03*
D12*
%TO.P,D115,2*%
%TO.N,Net-(D115-Pad2)*%
X314322500Y-215645000D03*
%TD*%
D11*
%TO.P,D114,1*%
%TO.N,row13*%
X333372500Y-223445000D03*
D12*
%TO.P,D114,2*%
%TO.N,Net-(D114-Pad2)*%
X333372500Y-215645000D03*
%TD*%
D11*
%TO.P,D108,1*%
%TO.N,row13*%
X314322500Y-204395000D03*
D12*
%TO.P,D108,2*%
%TO.N,Net-(D108-Pad2)*%
X314322500Y-196595000D03*
%TD*%
D11*
%TO.P,D107,1*%
%TO.N,row10*%
X252232200Y-201281600D03*
D12*
%TO.P,D107,2*%
%TO.N,Net-(D107-Pad2)*%
X252232200Y-193481600D03*
%TD*%
D11*
%TO.P,D105,1*%
%TO.N,row10*%
X252333800Y-190921400D03*
D12*
%TO.P,D105,2*%
%TO.N,Net-(D105-Pad2)*%
X252333800Y-183121400D03*
%TD*%
D11*
%TO.P,D104,1*%
%TO.N,row11*%
X233360000Y-199632500D03*
D12*
%TO.P,D104,2*%
%TO.N,Net-(D104-Pad2)*%
X233360000Y-191832500D03*
%TD*%
D11*
%TO.P,D103,1*%
%TO.N,row10*%
X214310000Y-199632500D03*
D12*
%TO.P,D103,2*%
%TO.N,Net-(D103-Pad2)*%
X214310000Y-191832500D03*
%TD*%
D11*
%TO.P,D102,1*%
%TO.N,row11*%
X195260000Y-199632500D03*
D12*
%TO.P,D102,2*%
%TO.N,Net-(D102-Pad2)*%
X195260000Y-191832500D03*
%TD*%
D11*
%TO.P,D101,1*%
%TO.N,row10*%
X176210000Y-199632500D03*
D12*
%TO.P,D101,2*%
%TO.N,Net-(D101-Pad2)*%
X176210000Y-191832500D03*
%TD*%
D11*
%TO.P,D100,1*%
%TO.N,row11*%
X157160000Y-199632500D03*
D12*
%TO.P,D100,2*%
%TO.N,Net-(D100-Pad2)*%
X157160000Y-191832500D03*
%TD*%
D11*
%TO.P,D99,1*%
%TO.N,row10*%
X138110000Y-199632500D03*
D12*
%TO.P,D99,2*%
%TO.N,Net-(D99-Pad2)*%
X138110000Y-191832500D03*
%TD*%
D11*
%TO.P,D98,1*%
%TO.N,row11*%
X119060000Y-199632500D03*
D12*
%TO.P,D98,2*%
%TO.N,Net-(D98-Pad2)*%
X119060000Y-191832500D03*
%TD*%
D11*
%TO.P,D97,1*%
%TO.N,row10*%
X100010000Y-199632500D03*
D12*
%TO.P,D97,2*%
%TO.N,Net-(D97-Pad2)*%
X100010000Y-191832500D03*
%TD*%
D11*
%TO.P,D96,1*%
%TO.N,row11*%
X80960000Y-199632500D03*
D12*
%TO.P,D96,2*%
%TO.N,Net-(D96-Pad2)*%
X80960000Y-191832500D03*
%TD*%
D11*
%TO.P,D95,1*%
%TO.N,row10*%
X61910000Y-199632500D03*
D12*
%TO.P,D95,2*%
%TO.N,Net-(D95-Pad2)*%
X61910000Y-191832500D03*
%TD*%
D11*
%TO.P,D94,1*%
%TO.N,row11*%
X20300000Y-196940000D03*
D12*
%TO.P,D94,2*%
%TO.N,Net-(D94-Pad2)*%
X20300000Y-189140000D03*
%TD*%
D11*
%TO.P,D92,1*%
%TO.N,row11*%
X290510000Y-197370000D03*
D12*
%TO.P,D92,2*%
%TO.N,Net-(D92-Pad2)*%
X290510000Y-189570000D03*
%TD*%
D11*
%TO.P,D91,1*%
%TO.N,row13*%
X364328750Y-159151250D03*
D12*
%TO.P,D91,2*%
%TO.N,Net-(D91-Pad2)*%
X364328750Y-151351250D03*
%TD*%
D11*
%TO.P,D88,1*%
%TO.N,row9*%
X261833400Y-182655600D03*
D12*
%TO.P,D88,2*%
%TO.N,Net-(D88-Pad2)*%
X261833400Y-174855600D03*
%TD*%
D11*
%TO.P,D87,1*%
%TO.N,row8*%
X261833400Y-172289400D03*
D12*
%TO.P,D87,2*%
%TO.N,Net-(D87-Pad2)*%
X261833400Y-164489400D03*
%TD*%
D11*
%TO.P,D86,1*%
%TO.N,row9*%
X242885000Y-180582500D03*
D12*
%TO.P,D86,2*%
%TO.N,Net-(D86-Pad2)*%
X242885000Y-172782500D03*
%TD*%
D11*
%TO.P,D85,1*%
%TO.N,row8*%
X223835000Y-180582500D03*
D12*
%TO.P,D85,2*%
%TO.N,Net-(D85-Pad2)*%
X223835000Y-172782500D03*
%TD*%
D11*
%TO.P,D84,1*%
%TO.N,row9*%
X204785000Y-180582500D03*
D12*
%TO.P,D84,2*%
%TO.N,Net-(D84-Pad2)*%
X204785000Y-172782500D03*
%TD*%
D11*
%TO.P,D83,1*%
%TO.N,row8*%
X185735000Y-180582500D03*
D12*
%TO.P,D83,2*%
%TO.N,Net-(D83-Pad2)*%
X185735000Y-172782500D03*
%TD*%
D11*
%TO.P,D82,1*%
%TO.N,row9*%
X166685000Y-180582500D03*
D12*
%TO.P,D82,2*%
%TO.N,Net-(D82-Pad2)*%
X166685000Y-172782500D03*
%TD*%
D11*
%TO.P,D81,1*%
%TO.N,row8*%
X147635000Y-180582500D03*
D12*
%TO.P,D81,2*%
%TO.N,Net-(D81-Pad2)*%
X147635000Y-172782500D03*
%TD*%
D11*
%TO.P,D80,1*%
%TO.N,row9*%
X128585000Y-180582500D03*
D12*
%TO.P,D80,2*%
%TO.N,Net-(D80-Pad2)*%
X128585000Y-172782500D03*
%TD*%
D11*
%TO.P,D79,1*%
%TO.N,row8*%
X109535000Y-180582500D03*
D12*
%TO.P,D79,2*%
%TO.N,Net-(D79-Pad2)*%
X109535000Y-172782500D03*
%TD*%
D11*
%TO.P,D78,1*%
%TO.N,row9*%
X90485000Y-180582500D03*
D12*
%TO.P,D78,2*%
%TO.N,Net-(D78-Pad2)*%
X90485000Y-172782500D03*
%TD*%
D11*
%TO.P,D77,1*%
%TO.N,row8*%
X71435000Y-180582500D03*
D12*
%TO.P,D77,2*%
%TO.N,Net-(D77-Pad2)*%
X71435000Y-172782500D03*
%TD*%
D11*
%TO.P,D76,1*%
%TO.N,row9*%
X47622500Y-180582500D03*
D12*
%TO.P,D76,2*%
%TO.N,Net-(D76-Pad2)*%
X47622500Y-172782500D03*
%TD*%
D11*
%TO.P,D75,1*%
%TO.N,row13*%
X95290000Y-218010000D03*
D12*
%TO.P,D75,2*%
%TO.N,Net-(D75-Pad2)*%
X95290000Y-210210000D03*
%TD*%
D11*
%TO.P,D74,1*%
%TO.N,row8*%
X304797500Y-180582500D03*
D12*
%TO.P,D74,2*%
%TO.N,Net-(D74-Pad2)*%
X304797500Y-172782500D03*
%TD*%
D11*
%TO.P,D73,1*%
%TO.N,row10*%
X377753750Y-145726250D03*
D12*
%TO.P,D73,2*%
%TO.N,Net-(D73-Pad2)*%
X369953750Y-145726250D03*
%TD*%
D11*
%TO.P,D72,1*%
%TO.N,row12*%
X326228750Y-159151250D03*
D12*
%TO.P,D72,2*%
%TO.N,Net-(D72-Pad2)*%
X326228750Y-151351250D03*
%TD*%
D11*
%TO.P,D71,1*%
%TO.N,row6*%
X304797500Y-161532500D03*
D12*
%TO.P,D71,2*%
%TO.N,Net-(D71-Pad2)*%
X304797500Y-153732500D03*
%TD*%
D11*
%TO.P,D70,1*%
%TO.N,row7*%
X276222500Y-161532500D03*
D12*
%TO.P,D70,2*%
%TO.N,Net-(D70-Pad2)*%
X276222500Y-153732500D03*
%TD*%
D11*
%TO.P,D69,1*%
%TO.N,row6*%
X257172500Y-161532500D03*
D12*
%TO.P,D69,2*%
%TO.N,Net-(D69-Pad2)*%
X257172500Y-153732500D03*
%TD*%
D11*
%TO.P,D68,1*%
%TO.N,row7*%
X238122500Y-161532500D03*
D12*
%TO.P,D68,2*%
%TO.N,Net-(D68-Pad2)*%
X238122500Y-153732500D03*
%TD*%
D11*
%TO.P,D67,1*%
%TO.N,row6*%
X219072500Y-161532500D03*
D12*
%TO.P,D67,2*%
%TO.N,Net-(D67-Pad2)*%
X219072500Y-153732500D03*
%TD*%
D11*
%TO.P,D66,1*%
%TO.N,row7*%
X200022500Y-161532500D03*
D12*
%TO.P,D66,2*%
%TO.N,Net-(D66-Pad2)*%
X200022500Y-153732500D03*
%TD*%
D11*
%TO.P,D65,1*%
%TO.N,row6*%
X180972500Y-161532500D03*
D12*
%TO.P,D65,2*%
%TO.N,Net-(D65-Pad2)*%
X180972500Y-153732500D03*
%TD*%
D11*
%TO.P,D64,1*%
%TO.N,row7*%
X161922500Y-161532500D03*
D12*
%TO.P,D64,2*%
%TO.N,Net-(D64-Pad2)*%
X161922500Y-153732500D03*
%TD*%
D11*
%TO.P,D63,1*%
%TO.N,row6*%
X142872500Y-161532500D03*
D12*
%TO.P,D63,2*%
%TO.N,Net-(D63-Pad2)*%
X142872500Y-153732500D03*
%TD*%
D11*
%TO.P,D62,1*%
%TO.N,row7*%
X123822500Y-161532500D03*
D12*
%TO.P,D62,2*%
%TO.N,Net-(D62-Pad2)*%
X123822500Y-153732500D03*
%TD*%
D11*
%TO.P,D61,1*%
%TO.N,row6*%
X104772500Y-161532500D03*
D12*
%TO.P,D61,2*%
%TO.N,Net-(D61-Pad2)*%
X104772500Y-153732500D03*
%TD*%
D11*
%TO.P,D60,1*%
%TO.N,row7*%
X85722500Y-161532500D03*
D12*
%TO.P,D60,2*%
%TO.N,Net-(D60-Pad2)*%
X85722500Y-153732500D03*
%TD*%
D11*
%TO.P,D59,1*%
%TO.N,row6*%
X66672500Y-161532500D03*
D12*
%TO.P,D59,2*%
%TO.N,Net-(D59-Pad2)*%
X66672500Y-153732500D03*
%TD*%
D11*
%TO.P,D58,1*%
%TO.N,row7*%
X47622500Y-161532500D03*
D12*
%TO.P,D58,2*%
%TO.N,Net-(D58-Pad2)*%
X47622500Y-153732500D03*
%TD*%
D11*
%TO.P,D57,1*%
%TO.N,row11*%
X382204000Y-158627200D03*
D12*
%TO.P,D57,2*%
%TO.N,Net-(D57-Pad2)*%
X382204000Y-150827200D03*
%TD*%
D11*
%TO.P,D56,1*%
%TO.N,row10*%
X376772500Y-126676250D03*
D12*
%TO.P,D56,2*%
%TO.N,Net-(D56-Pad2)*%
X368972500Y-126676250D03*
%TD*%
D11*
%TO.P,D55,1*%
%TO.N,row8*%
X364328750Y-142482500D03*
D12*
%TO.P,D55,2*%
%TO.N,Net-(D55-Pad2)*%
X364328750Y-134682500D03*
%TD*%
D11*
%TO.P,D54,1*%
%TO.N,row9*%
X345278750Y-142482500D03*
D12*
%TO.P,D54,2*%
%TO.N,Net-(D54-Pad2)*%
X345278750Y-134682500D03*
%TD*%
D11*
%TO.P,D53,1*%
%TO.N,row11*%
X402828800Y-130582600D03*
D12*
%TO.P,D53,2*%
%TO.N,Net-(D53-Pad2)*%
X402828800Y-122782600D03*
%TD*%
D11*
%TO.P,D51,1*%
%TO.N,row5*%
X304797500Y-142482500D03*
D12*
%TO.P,D51,2*%
%TO.N,Net-(D51-Pad2)*%
X304797500Y-134682500D03*
%TD*%
D11*
%TO.P,D49,1*%
%TO.N,row5*%
X266697500Y-142482500D03*
D12*
%TO.P,D49,2*%
%TO.N,Net-(D49-Pad2)*%
X266697500Y-134682500D03*
%TD*%
D11*
%TO.P,D48,1*%
%TO.N,row4*%
X247647500Y-142482500D03*
D12*
%TO.P,D48,2*%
%TO.N,Net-(D48-Pad2)*%
X247647500Y-134682500D03*
%TD*%
D11*
%TO.P,D47,1*%
%TO.N,row5*%
X228597500Y-142482500D03*
D12*
%TO.P,D47,2*%
%TO.N,Net-(D47-Pad2)*%
X228597500Y-134682500D03*
%TD*%
D11*
%TO.P,D46,1*%
%TO.N,row4*%
X209547500Y-142482500D03*
D12*
%TO.P,D46,2*%
%TO.N,Net-(D46-Pad2)*%
X209547500Y-134682500D03*
%TD*%
D11*
%TO.P,D45,1*%
%TO.N,row5*%
X190497500Y-142482500D03*
D12*
%TO.P,D45,2*%
%TO.N,Net-(D45-Pad2)*%
X190497500Y-134682500D03*
%TD*%
D11*
%TO.P,D44,1*%
%TO.N,row4*%
X171447500Y-142482500D03*
D12*
%TO.P,D44,2*%
%TO.N,Net-(D44-Pad2)*%
X171447500Y-134682500D03*
%TD*%
D11*
%TO.P,D43,1*%
%TO.N,row5*%
X152397500Y-142482500D03*
D12*
%TO.P,D43,2*%
%TO.N,Net-(D43-Pad2)*%
X152397500Y-134682500D03*
%TD*%
D11*
%TO.P,D42,1*%
%TO.N,row4*%
X133347500Y-142482500D03*
D12*
%TO.P,D42,2*%
%TO.N,Net-(D42-Pad2)*%
X133347500Y-134682500D03*
%TD*%
D11*
%TO.P,D41,1*%
%TO.N,row5*%
X114297500Y-142482500D03*
D12*
%TO.P,D41,2*%
%TO.N,Net-(D41-Pad2)*%
X114297500Y-134682500D03*
%TD*%
D11*
%TO.P,D40,1*%
%TO.N,row4*%
X95247500Y-142482500D03*
D12*
%TO.P,D40,2*%
%TO.N,Net-(D40-Pad2)*%
X95247500Y-134682500D03*
%TD*%
D11*
%TO.P,D39,1*%
%TO.N,row5*%
X76197500Y-142482500D03*
D12*
%TO.P,D39,2*%
%TO.N,Net-(D39-Pad2)*%
X76197500Y-134682500D03*
%TD*%
D11*
%TO.P,D38,1*%
%TO.N,row4*%
X57147500Y-142482500D03*
D12*
%TO.P,D38,2*%
%TO.N,Net-(D38-Pad2)*%
X57147500Y-134682500D03*
%TD*%
D11*
%TO.P,D37,1*%
%TO.N,row5*%
X38097500Y-142482500D03*
D12*
%TO.P,D37,2*%
%TO.N,Net-(D37-Pad2)*%
X38097500Y-134682500D03*
%TD*%
D11*
%TO.P,D36,1*%
%TO.N,row6*%
X377753750Y-107626250D03*
D12*
%TO.P,D36,2*%
%TO.N,Net-(D36-Pad2)*%
X369953750Y-107626250D03*
%TD*%
D11*
%TO.P,D35,1*%
%TO.N,row4*%
X364328750Y-123432500D03*
D12*
%TO.P,D35,2*%
%TO.N,Net-(D35-Pad2)*%
X364328750Y-115632500D03*
%TD*%
D11*
%TO.P,D34,1*%
%TO.N,row5*%
X345278750Y-123432500D03*
D12*
%TO.P,D34,2*%
%TO.N,Net-(D34-Pad2)*%
X345278750Y-115632500D03*
%TD*%
D11*
%TO.P,D33,1*%
%TO.N,row7*%
X396456400Y-125488800D03*
D12*
%TO.P,D33,2*%
%TO.N,Net-(D33-Pad2)*%
X388656400Y-125488800D03*
%TD*%
D11*
%TO.P,D32,1*%
%TO.N,row2*%
X396803750Y-88576250D03*
D12*
%TO.P,D32,2*%
%TO.N,Net-(D32-Pad2)*%
X389003750Y-88576250D03*
%TD*%
D11*
%TO.P,D31,1*%
%TO.N,row4*%
X307590000Y-142500000D03*
D12*
%TO.P,D31,2*%
%TO.N,Net-(D31-Pad2)*%
X307590000Y-134700000D03*
%TD*%
D11*
%TO.P,D30,1*%
%TO.N,row3*%
X377872500Y-88576250D03*
D12*
%TO.P,D30,2*%
%TO.N,Net-(D30-Pad2)*%
X370072500Y-88576250D03*
%TD*%
D11*
%TO.P,D29,1*%
%TO.N,row2*%
X364328750Y-104382500D03*
D12*
%TO.P,D29,2*%
%TO.N,Net-(D29-Pad2)*%
X364328750Y-96582500D03*
%TD*%
D11*
%TO.P,D28,1*%
%TO.N,row3*%
X345278750Y-104382500D03*
D12*
%TO.P,D28,2*%
%TO.N,Net-(D28-Pad2)*%
X345278750Y-96582500D03*
%TD*%
D11*
%TO.P,D27,1*%
%TO.N,row3*%
X257172500Y-104382500D03*
D12*
%TO.P,D27,2*%
%TO.N,Net-(D27-Pad2)*%
X257172500Y-96582500D03*
%TD*%
D11*
%TO.P,D26,1*%
%TO.N,row3*%
X238122500Y-104382500D03*
D12*
%TO.P,D26,2*%
%TO.N,Net-(D26-Pad2)*%
X238122500Y-96582500D03*
%TD*%
D11*
%TO.P,D25,1*%
%TO.N,row2*%
X219072500Y-104382500D03*
D12*
%TO.P,D25,2*%
%TO.N,Net-(D25-Pad2)*%
X219072500Y-96582500D03*
%TD*%
D11*
%TO.P,D24,1*%
%TO.N,row3*%
X200022500Y-104382500D03*
D12*
%TO.P,D24,2*%
%TO.N,Net-(D24-Pad2)*%
X200022500Y-96582500D03*
%TD*%
D11*
%TO.P,D23,1*%
%TO.N,row2*%
X171447500Y-104382500D03*
D12*
%TO.P,D23,2*%
%TO.N,Net-(D23-Pad2)*%
X171447500Y-96582500D03*
%TD*%
D11*
%TO.P,D22,1*%
%TO.N,row3*%
X152397500Y-104501250D03*
D12*
%TO.P,D22,2*%
%TO.N,Net-(D22-Pad2)*%
X152397500Y-96701250D03*
%TD*%
D11*
%TO.P,D21,1*%
%TO.N,row2*%
X133347500Y-104501250D03*
D12*
%TO.P,D21,2*%
%TO.N,Net-(D21-Pad2)*%
X133347500Y-96701250D03*
%TD*%
D11*
%TO.P,D20,1*%
%TO.N,row3*%
X114297500Y-104501250D03*
D12*
%TO.P,D20,2*%
%TO.N,Net-(D20-Pad2)*%
X114297500Y-96701250D03*
%TD*%
D11*
%TO.P,D19,1*%
%TO.N,row2*%
X95247500Y-104501250D03*
D12*
%TO.P,D19,2*%
%TO.N,Net-(D19-Pad2)*%
X95247500Y-96701250D03*
%TD*%
D11*
%TO.P,D18,1*%
%TO.N,row3*%
X76197500Y-104501250D03*
D12*
%TO.P,D18,2*%
%TO.N,Net-(D18-Pad2)*%
X76197500Y-96701250D03*
%TD*%
D11*
%TO.P,D16,1*%
%TO.N,row0*%
X402428750Y-85451250D03*
D12*
%TO.P,D16,2*%
%TO.N,Net-(D16-Pad2)*%
X402428750Y-77651250D03*
%TD*%
D11*
%TO.P,D15,1*%
%TO.N,row1*%
X383378750Y-85332500D03*
D12*
%TO.P,D15,2*%
%TO.N,Net-(D15-Pad2)*%
X383378750Y-77532500D03*
%TD*%
D11*
%TO.P,D14,1*%
%TO.N,row0*%
X364328750Y-85332500D03*
D12*
%TO.P,D14,2*%
%TO.N,Net-(D14-Pad2)*%
X364328750Y-77532500D03*
%TD*%
D11*
%TO.P,D13,1*%
%TO.N,row1*%
X345278750Y-85332500D03*
D12*
%TO.P,D13,2*%
%TO.N,Net-(D13-Pad2)*%
X345278750Y-77532500D03*
%TD*%
D11*
%TO.P,D12,1*%
%TO.N,row1*%
X285747500Y-85213750D03*
D12*
%TO.P,D12,2*%
%TO.N,Net-(D12-Pad2)*%
X285747500Y-77413750D03*
%TD*%
D11*
%TO.P,D11,1*%
%TO.N,row0*%
X257172500Y-85213750D03*
D12*
%TO.P,D11,2*%
%TO.N,Net-(D11-Pad2)*%
X257172500Y-77413750D03*
%TD*%
D11*
%TO.P,D10,1*%
%TO.N,row1*%
X238122500Y-85213750D03*
D12*
%TO.P,D10,2*%
%TO.N,Net-(D10-Pad2)*%
X238122500Y-77413750D03*
%TD*%
D11*
%TO.P,D9,1*%
%TO.N,row0*%
X219072500Y-85332500D03*
D12*
%TO.P,D9,2*%
%TO.N,Net-(D9-Pad2)*%
X219072500Y-77532500D03*
%TD*%
D11*
%TO.P,D8,1*%
%TO.N,row1*%
X200022500Y-85213750D03*
D12*
%TO.P,D8,2*%
%TO.N,Net-(D8-Pad2)*%
X200022500Y-77413750D03*
%TD*%
D11*
%TO.P,D7,1*%
%TO.N,row0*%
X171447500Y-85213750D03*
D12*
%TO.P,D7,2*%
%TO.N,Net-(D7-Pad2)*%
X171447500Y-77413750D03*
%TD*%
D11*
%TO.P,D6,1*%
%TO.N,row1*%
X152397500Y-85213750D03*
D12*
%TO.P,D6,2*%
%TO.N,Net-(D6-Pad2)*%
X152397500Y-77413750D03*
%TD*%
D11*
%TO.P,D5,1*%
%TO.N,row0*%
X133347500Y-85213750D03*
D12*
%TO.P,D5,2*%
%TO.N,Net-(D5-Pad2)*%
X133347500Y-77413750D03*
%TD*%
D11*
%TO.P,D4,1*%
%TO.N,row1*%
X114297500Y-85213750D03*
D12*
%TO.P,D4,2*%
%TO.N,Net-(D4-Pad2)*%
X114297500Y-77413750D03*
%TD*%
D11*
%TO.P,D3,1*%
%TO.N,row0*%
X95247500Y-85332500D03*
D12*
%TO.P,D3,2*%
%TO.N,Net-(D3-Pad2)*%
X95247500Y-77532500D03*
%TD*%
D11*
%TO.P,D2,1*%
%TO.N,row1*%
X76197500Y-85332500D03*
D12*
%TO.P,D2,2*%
%TO.N,Net-(D2-Pad2)*%
X76197500Y-77532500D03*
%TD*%
D10*
%TO.P,end1,2*%
%TO.N,Net-(D25-Pad2)*%
X212087500Y-93021250D03*
%TO.P,end1,1*%
%TO.N,col5*%
X205737500Y-95561250D03*
%TD*%
%TO.P,e1,2*%
%TO.N,Net-(D61-Pad2)*%
X97787500Y-150171250D03*
%TO.P,e1,1*%
%TO.N,col1*%
X91437500Y-152711250D03*
%TD*%
%TO.P,down1,2*%
%TO.N,Net-(D115-Pad2)*%
X307830000Y-213250000D03*
%TO.P,down1,1*%
%TO.N,col4*%
X301480000Y-215790000D03*
%TD*%
%TO.P,dot1,2*%
%TO.N,Net-(D104-Pad2)*%
X226375000Y-188271250D03*
%TO.P,dot1,1*%
%TO.N,col5*%
X220025000Y-190811250D03*
%TD*%
%TO.P,delete1,2*%
%TO.N,Net-(D24-Pad2)*%
X193037500Y-93021250D03*
%TO.P,delete1,1*%
%TO.N,col4*%
X186687500Y-95561250D03*
%TD*%
%TO.P,lm2a1,2*%
%TO.N,Net-(D122-Pad2)*%
X57308750Y-207321240D03*
%TO.P,lm2a1,1*%
%TO.N,col0*%
X50958750Y-209861240D03*
%TD*%
%TO.P,lm1a1,2*%
%TO.N,Net-(D121-Pad2)*%
X33495000Y-207321250D03*
%TO.P,lm1a1,1*%
%TO.N,col0*%
X27145000Y-209861250D03*
%TD*%
%TO.P,L_mod3,2*%
%TO.N,Net-(D75-Pad2)*%
X81121250Y-207322250D03*
%TO.P,L_mod3,1*%
%TO.N,col1*%
X74771250Y-209862250D03*
%TD*%
%TO.P,lm2,2*%
%TO.N,Net-(D122-Pad2)*%
X64450000Y-207321250D03*
%TO.P,lm2,1*%
%TO.N,col0*%
X58100000Y-209861250D03*
%TD*%
%TO.P,lm1,2*%
%TO.N,Net-(D121-Pad2)*%
X35875000Y-207321250D03*
%TO.P,lm1,1*%
%TO.N,col0*%
X29525000Y-209861250D03*
%TD*%
%TO.P,space3,2*%
%TO.N,Net-(space1-Pad2)*%
X138268750Y-207321250D03*
%TO.P,space3,1*%
%TO.N,col3*%
X131918750Y-209861250D03*
%TD*%
%TO.P,space2,2*%
%TO.N,Net-(space1-Pad2)*%
X152558750Y-207321240D03*
%TO.P,space2,1*%
%TO.N,col3*%
X146208750Y-209861240D03*
%TD*%
%TO.P,space1,2*%
%TO.N,Net-(space1-Pad2)*%
X145412500Y-207321250D03*
%TO.P,space1,1*%
%TO.N,col3*%
X139062500Y-209861250D03*
%TD*%
%TO.P,R_mod3_alt1,2*%
%TO.N,Net-(D124-Pad2)*%
X252568750Y-207321250D03*
%TO.P,R_mod3_alt1,1*%
%TO.N,col6*%
X246218750Y-209861250D03*
%TD*%
%TO.P,R_mod2_alt1,2*%
%TO.N,Net-(D118-Pad2)*%
X233518750Y-207321250D03*
%TO.P,R_mod2_alt1,1*%
%TO.N,col5*%
X227168750Y-209861250D03*
%TD*%
%TO.P,R_mod3,2*%
%TO.N,Net-(D124-Pad2)*%
X254950000Y-207321250D03*
%TO.P,R_mod3,1*%
%TO.N,col6*%
X248600000Y-209861250D03*
%TD*%
%TO.P,R_mod2,2*%
%TO.N,Net-(D118-Pad2)*%
X226375000Y-207321250D03*
%TO.P,R_mod2,1*%
%TO.N,col5*%
X220025000Y-209861250D03*
%TD*%
%TO.P,R_mod1,2*%
%TO.N,Net-(D117-Pad2)*%
X209706250Y-207321250D03*
%TO.P,R_mod1,1*%
%TO.N,col5*%
X203356250Y-209861250D03*
%TD*%
%TO.P,insert1,2*%
%TO.N,Net-(D8-Pad2)*%
X193037500Y-73971250D03*
%TO.P,insert1,1*%
%TO.N,col4*%
X186687500Y-76511250D03*
%TD*%
D18*
%TO.P,J1,16*%
%TO.N,row13*%
X209340000Y-63860000D03*
%TO.P,J1,15*%
%TO.N,row12*%
X206800000Y-63860000D03*
%TO.P,J1,14*%
%TO.N,row11*%
X204260000Y-63860000D03*
%TO.P,J1,13*%
%TO.N,row10*%
X201720000Y-63860000D03*
%TO.P,J1,12*%
%TO.N,row9*%
X199180000Y-63860000D03*
%TO.P,J1,11*%
%TO.N,row8*%
X196640000Y-63860000D03*
%TO.P,J1,10*%
%TO.N,row7*%
X194100000Y-63860000D03*
%TO.P,J1,9*%
%TO.N,row6*%
X191560000Y-63860000D03*
%TO.P,J1,8*%
%TO.N,row5*%
X189020000Y-63860000D03*
%TO.P,J1,7*%
%TO.N,row4*%
X186480000Y-63860000D03*
%TO.P,J1,6*%
%TO.N,row3*%
X183940000Y-63860000D03*
%TO.P,J1,5*%
%TO.N,row2*%
X181400000Y-63860000D03*
%TO.P,J1,4*%
%TO.N,row1*%
X178860000Y-63860000D03*
%TO.P,J1,3*%
%TO.N,row0*%
X176320000Y-63860000D03*
%TO.P,J1,2*%
%TO.N,Net-(J1-Pad2)*%
X173780000Y-63860000D03*
D19*
%TO.P,J1,1*%
%TO.N,Net-(J1-Pad1)*%
X171240000Y-63860000D03*
%TD*%
D10*
%TO.P,scroll_lock1,2*%
%TO.N,Net-(D27-Pad2)*%
X250187500Y-93021250D03*
%TO.P,scroll_lock1,1*%
%TO.N,col6*%
X243837500Y-95561250D03*
%TD*%
%TO.P,pagedown1,2*%
%TO.N,Net-(D26-Pad2)*%
X231137500Y-93021250D03*
%TO.P,pagedown1,1*%
%TO.N,col5*%
X224787500Y-95561250D03*
%TD*%
%TO.P,f12,2*%
%TO.N,Net-(D23-Pad2)*%
X164462500Y-93021250D03*
%TO.P,f12,1*%
%TO.N,col3*%
X158112500Y-95561250D03*
%TD*%
%TO.P,f11,2*%
%TO.N,Net-(D22-Pad2)*%
X145412500Y-93021250D03*
%TO.P,f11,1*%
%TO.N,col3*%
X139062500Y-95561250D03*
%TD*%
%TO.P,f8,2*%
%TO.N,Net-(D19-Pad2)*%
X88262500Y-93021250D03*
%TO.P,f8,1*%
%TO.N,col1*%
X81912500Y-95561250D03*
%TD*%
%TO.P,f7,2*%
%TO.N,Net-(D18-Pad2)*%
X69212500Y-93021250D03*
%TO.P,f7,1*%
%TO.N,col1*%
X62862500Y-95561250D03*
%TD*%
%TO.P,kp_+2,2*%
%TO.N,Net-(D32-Pad2)*%
X395443750Y-93021250D03*
%TO.P,kp_+2,1*%
%TO.N,col8*%
X389093750Y-95561250D03*
%TD*%
%TO.P,print1,2*%
%TO.N,Net-(D11-Pad2)*%
X250187500Y-73971250D03*
%TO.P,print1,1*%
%TO.N,col6*%
X243837500Y-76511250D03*
%TD*%
%TO.P,pageup1,2*%
%TO.N,Net-(D10-Pad2)*%
X231137500Y-73971250D03*
%TO.P,pageup1,1*%
%TO.N,col5*%
X224787500Y-76511250D03*
%TD*%
%TO.P,home1,2*%
%TO.N,Net-(D9-Pad2)*%
X212087500Y-73971250D03*
%TO.P,home1,1*%
%TO.N,col5*%
X205737500Y-76511250D03*
%TD*%
%TO.P,f6,2*%
%TO.N,Net-(D7-Pad2)*%
X164462500Y-73971250D03*
%TO.P,f6,1*%
%TO.N,col3*%
X158112500Y-76511250D03*
%TD*%
%TO.P,f3,2*%
%TO.N,Net-(D4-Pad2)*%
X107312500Y-73971250D03*
%TO.P,f3,1*%
%TO.N,col2*%
X100962500Y-76511250D03*
%TD*%
%TO.P,f2,2*%
%TO.N,Net-(D3-Pad2)*%
X88262500Y-73971250D03*
%TO.P,f2,1*%
%TO.N,col1*%
X81912500Y-76511250D03*
%TD*%
%TO.P,f1,2*%
%TO.N,Net-(D2-Pad2)*%
X69212500Y-73971250D03*
%TO.P,f1,1*%
%TO.N,col1*%
X62862500Y-76511250D03*
%TD*%
%TO.P,escape1,2*%
%TO.N,Net-(D1-Pad2)*%
X31112500Y-73971250D03*
%TO.P,escape1,1*%
%TO.N,col0*%
X24762500Y-76511250D03*
%TD*%
D20*
%TO.P,H6,1*%
%TO.N,GND*%
X391930000Y-162570000D03*
%TD*%
D21*
%TO.P,H7,1*%
%TO.N,GND*%
X259800000Y-63930000D03*
%TD*%
D10*
%TO.P,right_shift2,1*%
%TO.N,col6*%
X267650000Y-190811250D03*
%TO.P,right_shift2,2*%
%TO.N,Net-(D107-Pad2)*%
X274000000Y-188271250D03*
%TD*%
%TO.P,backspace2,1*%
%TO.N,col6*%
X281937500Y-133661250D03*
%TO.P,backspace2,2*%
%TO.N,Net-(D31-Pad2)*%
X288287500Y-131121250D03*
%TD*%
%TO.P,iso_enter1,1*%
%TO.N,col7*%
X289081250Y-162236250D03*
%TO.P,iso_enter1,2*%
%TO.N,Net-(D74-Pad2)*%
X295431250Y-159696250D03*
%TD*%
D19*
%TO.P,J2,1*%
%TO.N,GND*%
X215110000Y-63850000D03*
D18*
%TO.P,J2,2*%
%TO.N,col0*%
X217650000Y-63850000D03*
%TO.P,J2,3*%
%TO.N,col1*%
X220190000Y-63850000D03*
%TO.P,J2,4*%
%TO.N,col2*%
X222730000Y-63850000D03*
%TO.P,J2,5*%
%TO.N,col3*%
X225270000Y-63850000D03*
%TO.P,J2,6*%
%TO.N,col4*%
X227810000Y-63850000D03*
%TO.P,J2,7*%
%TO.N,col5*%
X230350000Y-63850000D03*
%TO.P,J2,8*%
%TO.N,col6*%
X232890000Y-63850000D03*
%TO.P,J2,9*%
%TO.N,col7*%
X235430000Y-63850000D03*
%TO.P,J2,10*%
%TO.N,col8*%
X237970000Y-63850000D03*
%TO.P,J2,11*%
%TO.N,NumLock*%
X240510000Y-63850000D03*
%TO.P,J2,12*%
%TO.N,CapsLock*%
X243050000Y-63850000D03*
%TO.P,J2,13*%
%TO.N,ScrollLock*%
X245590000Y-63850000D03*
%TO.P,J2,14*%
%TO.N,Net-(J2-Pad14)*%
X248130000Y-63850000D03*
%TO.P,J2,15*%
%TO.N,Net-(J2-Pad15)*%
X250670000Y-63850000D03*
%TO.P,J2,16*%
%TO.N,Net-(J2-Pad16)*%
X253210000Y-63850000D03*
%TD*%
D10*
%TO.P,up1,1*%
%TO.N,col7*%
X301480000Y-196590000D03*
%TO.P,up1,2*%
%TO.N,Net-(D108-Pad2)*%
X307830000Y-194050000D03*
%TD*%
%TO.P,numlock1,1*%
%TO.N,col7*%
X331943750Y-76511250D03*
%TO.P,numlock1,2*%
%TO.N,Net-(D13-Pad2)*%
X338293750Y-73971250D03*
%TD*%
%TO.P,q1,1*%
%TO.N,col0*%
X53337500Y-152711250D03*
%TO.P,q1,2*%
%TO.N,Net-(D59-Pad2)*%
X59687500Y-150171250D03*
%TD*%
%TO.P,kp_3,1*%
%TO.N,col8*%
X370043750Y-133661250D03*
%TO.P,kp_3,2*%
%TO.N,Net-(D56-Pad2)*%
X376393750Y-131121250D03*
%TD*%
%TO.P,kp_enter3,1*%
%TO.N,col6*%
X389093750Y-152711250D03*
%TO.P,kp_enter3,2*%
%TO.N,Net-(D57-Pad2)*%
X395443750Y-150171250D03*
%TD*%
%TO.P,kp_enter1,2*%
%TO.N,Net-(D53-Pad2)*%
X395443750Y-140646250D03*
%TO.P,kp_enter1,1*%
%TO.N,col8*%
X389093750Y-143186250D03*
%TD*%
%TO.P,kp_enter2,1*%
%TO.N,col8*%
X389093750Y-133661250D03*
%TO.P,kp_enter2,2*%
%TO.N,Net-(D53-Pad2)*%
X395443750Y-131121250D03*
%TD*%
%TO.P,kp_2,1*%
%TO.N,col8*%
X350993750Y-133661250D03*
%TO.P,kp_2,2*%
%TO.N,Net-(D55-Pad2)*%
X357343750Y-131121250D03*
%TD*%
%TO.P,kp_6,1*%
%TO.N,col8*%
X370043750Y-114611250D03*
%TO.P,kp_6,2*%
%TO.N,Net-(D36-Pad2)*%
X376393750Y-112071250D03*
%TD*%
%TO.P,kp_5,1*%
%TO.N,col8*%
X350993750Y-114611250D03*
%TO.P,kp_5,2*%
%TO.N,Net-(D35-Pad2)*%
X357343750Y-112071250D03*
%TD*%
%TO.P,kp_4,1*%
%TO.N,col8*%
X331943750Y-114611250D03*
%TO.P,kp_4,2*%
%TO.N,Net-(D34-Pad2)*%
X338293750Y-112071250D03*
%TD*%
%TO.P,kp_9,1*%
%TO.N,col8*%
X370043750Y-95561250D03*
%TO.P,kp_9,2*%
%TO.N,Net-(D30-Pad2)*%
X376393750Y-93021250D03*
%TD*%
%TO.P,kp_7,1*%
%TO.N,col7*%
X331943750Y-95561250D03*
%TO.P,kp_7,2*%
%TO.N,Net-(D28-Pad2)*%
X338293750Y-93021250D03*
%TD*%
%TO.P,kp_-1,1*%
%TO.N,col8*%
X389093750Y-76511250D03*
%TO.P,kp_-1,2*%
%TO.N,Net-(D16-Pad2)*%
X395443750Y-73971250D03*
%TD*%
%TO.P,kp/\u002A1,1*%
%TO.N,col8*%
X370043750Y-76511250D03*
%TO.P,kp/\u002A1,2*%
%TO.N,Net-(D15-Pad2)*%
X376393750Y-73971250D03*
%TD*%
%TO.P,kp_/1,1*%
%TO.N,col7*%
X350993750Y-76511250D03*
%TO.P,kp_/1,2*%
%TO.N,Net-(D14-Pad2)*%
X357343750Y-73971250D03*
%TD*%
%TO.P,right1,1*%
%TO.N,col4*%
X320680000Y-215790000D03*
%TO.P,right1,2*%
%TO.N,Net-(D114-Pad2)*%
X327030000Y-213250000D03*
%TD*%
%TO.P,kp_0x1,1*%
%TO.N,col8*%
X350993750Y-152711250D03*
%TO.P,kp_0x1,2*%
%TO.N,Net-(D91-Pad2)*%
X357343750Y-150171250D03*
%TD*%
%TO.P,kp_zero1,1*%
%TO.N,col8*%
X331943750Y-152711250D03*
%TO.P,kp_zero1,2*%
%TO.N,Net-(D72-Pad2)*%
X338293750Y-150171250D03*
%TD*%
%TO.P,kp_comma1,1*%
%TO.N,col7*%
X370043750Y-152711250D03*
%TO.P,kp_comma1,2*%
%TO.N,Net-(D73-Pad2)*%
X376393750Y-150171250D03*
%TD*%
%TO.P,kp_zero2,1*%
%TO.N,col8*%
X341468750Y-152711250D03*
%TO.P,kp_zero2,2*%
%TO.N,Net-(D72-Pad2)*%
X347818750Y-150171250D03*
%TD*%
%TO.P,rightshift1,1*%
%TO.N,col7*%
X277175000Y-190811250D03*
%TO.P,rightshift1,2*%
%TO.N,Net-(D92-Pad2)*%
X283525000Y-188271250D03*
%TD*%
%TO.P,right_shift1,1*%
%TO.N,col6*%
X258125000Y-190811250D03*
%TO.P,right_shift1,2*%
%TO.N,Net-(D107-Pad2)*%
X264475000Y-188271250D03*
%TD*%
%TO.P,slash1,1*%
%TO.N,col5*%
X239075000Y-190811250D03*
%TO.P,slash1,2*%
%TO.N,Net-(D105-Pad2)*%
X245425000Y-188271250D03*
%TD*%
%TO.P,comma1,1*%
%TO.N,col4*%
X200975000Y-190811250D03*
%TO.P,comma1,2*%
%TO.N,Net-(D103-Pad2)*%
X207325000Y-188271250D03*
%TD*%
%TO.P,m1,1*%
%TO.N,col4*%
X181925000Y-190811250D03*
%TO.P,m1,2*%
%TO.N,Net-(D102-Pad2)*%
X188275000Y-188271250D03*
%TD*%
%TO.P,n10,1*%
%TO.N,col3*%
X162875000Y-190811250D03*
%TO.P,n10,2*%
%TO.N,Net-(D101-Pad2)*%
X169225000Y-188271250D03*
%TD*%
%TO.P,b1,1*%
%TO.N,col3*%
X143825000Y-190811250D03*
%TO.P,b1,2*%
%TO.N,Net-(D100-Pad2)*%
X150175000Y-188271250D03*
%TD*%
%TO.P,v1,1*%
%TO.N,col2*%
X124775000Y-190811250D03*
%TO.P,v1,2*%
%TO.N,Net-(D99-Pad2)*%
X131125000Y-188271250D03*
%TD*%
%TO.P,c1,1*%
%TO.N,col2*%
X105725000Y-190811250D03*
%TO.P,c1,2*%
%TO.N,Net-(D98-Pad2)*%
X112075000Y-188271250D03*
%TD*%
%TO.P,x1,1*%
%TO.N,col1*%
X86675000Y-190811250D03*
%TO.P,x1,2*%
%TO.N,Net-(D97-Pad2)*%
X93025000Y-188271250D03*
%TD*%
%TO.P,z1,1*%
%TO.N,col1*%
X67625000Y-190811250D03*
%TO.P,z1,2*%
%TO.N,Net-(D96-Pad2)*%
X73975000Y-188271250D03*
%TD*%
%TO.P,NUBS1,1*%
%TO.N,col0*%
X48575000Y-190811250D03*
%TO.P,NUBS1,2*%
%TO.N,Net-(D95-Pad2)*%
X54925000Y-188271250D03*
%TD*%
%TO.P,ansi_enter1,1*%
%TO.N,col7*%
X279556250Y-171761250D03*
%TO.P,ansi_enter1,2*%
%TO.N,Net-(D74-Pad2)*%
X285906250Y-169221250D03*
%TD*%
%TO.P,NUHS1,1*%
%TO.N,col6*%
X267650000Y-171761250D03*
%TO.P,NUHS1,2*%
%TO.N,Net-(D88-Pad2)*%
X274000000Y-169221250D03*
%TD*%
%TO.P,apostrophe1,1*%
%TO.N,col5*%
X248600000Y-171761250D03*
%TO.P,apostrophe1,2*%
%TO.N,Net-(D87-Pad2)*%
X254950000Y-169221250D03*
%TD*%
%TO.P,semicolon1,1*%
%TO.N,col5*%
X229550000Y-171761250D03*
%TO.P,semicolon1,2*%
%TO.N,Net-(D86-Pad2)*%
X235900000Y-169221250D03*
%TD*%
%TO.P,l1,1*%
%TO.N,col4*%
X210500000Y-171761250D03*
%TO.P,l1,2*%
%TO.N,Net-(D85-Pad2)*%
X216850000Y-169221250D03*
%TD*%
%TO.P,k1,1*%
%TO.N,col4*%
X191450000Y-171761250D03*
%TO.P,k1,2*%
%TO.N,Net-(D84-Pad2)*%
X197800000Y-169221250D03*
%TD*%
%TO.P,j1,1*%
%TO.N,col3*%
X172400000Y-171761250D03*
%TO.P,j1,2*%
%TO.N,Net-(D83-Pad2)*%
X178750000Y-169221250D03*
%TD*%
%TO.P,h1,1*%
%TO.N,col3*%
X153350000Y-171761250D03*
%TO.P,h1,2*%
%TO.N,Net-(D82-Pad2)*%
X159700000Y-169221250D03*
%TD*%
%TO.P,g1,1*%
%TO.N,col2*%
X134300000Y-171761250D03*
%TO.P,g1,2*%
%TO.N,Net-(D81-Pad2)*%
X140650000Y-169221250D03*
%TD*%
%TO.P,f13,1*%
%TO.N,col2*%
X115250000Y-171761250D03*
%TO.P,f13,2*%
%TO.N,Net-(D80-Pad2)*%
X121600000Y-169221250D03*
%TD*%
%TO.P,d1,1*%
%TO.N,col1*%
X96200000Y-171761250D03*
%TO.P,d1,2*%
%TO.N,Net-(D79-Pad2)*%
X102550000Y-169221250D03*
%TD*%
%TO.P,s1,1*%
%TO.N,col1*%
X77150000Y-171761250D03*
%TO.P,s1,2*%
%TO.N,Net-(D78-Pad2)*%
X83500000Y-169221250D03*
%TD*%
%TO.P,a1,1*%
%TO.N,col0*%
X58100000Y-171761250D03*
%TO.P,a1,2*%
%TO.N,Net-(D77-Pad2)*%
X64450000Y-169221250D03*
%TD*%
%TO.P,pipe1,1*%
%TO.N,col7*%
X286700000Y-152711250D03*
%TO.P,pipe1,2*%
%TO.N,Net-(D71-Pad2)*%
X293050000Y-150171250D03*
%TD*%
%TO.P,rightbrace1,1*%
%TO.N,col6*%
X262887500Y-152711250D03*
%TO.P,rightbrace1,2*%
%TO.N,Net-(D70-Pad2)*%
X269237500Y-150171250D03*
%TD*%
%TO.P,leftbrace1,1*%
%TO.N,col5*%
X243837500Y-152711250D03*
%TO.P,leftbrace1,2*%
%TO.N,Net-(D69-Pad2)*%
X250187500Y-150171250D03*
%TD*%
%TO.P,p1,1*%
%TO.N,col5*%
X224787500Y-152711250D03*
%TO.P,p1,2*%
%TO.N,Net-(D68-Pad2)*%
X231137500Y-150171250D03*
%TD*%
%TO.P,o1,1*%
%TO.N,col4*%
X205737500Y-152711250D03*
%TO.P,o1,2*%
%TO.N,Net-(D67-Pad2)*%
X212087500Y-150171250D03*
%TD*%
%TO.P,i1,1*%
%TO.N,col4*%
X186687500Y-152711250D03*
%TO.P,i1,2*%
%TO.N,Net-(D66-Pad2)*%
X193037500Y-150171250D03*
%TD*%
%TO.P,u1,1*%
%TO.N,col3*%
X167637500Y-152711250D03*
%TO.P,u1,2*%
%TO.N,Net-(D65-Pad2)*%
X173987500Y-150171250D03*
%TD*%
%TO.P,y1,1*%
%TO.N,col3*%
X148587500Y-152711250D03*
%TO.P,y1,2*%
%TO.N,Net-(D64-Pad2)*%
X154937500Y-150171250D03*
%TD*%
%TO.P,t1,1*%
%TO.N,col2*%
X129537500Y-152711250D03*
%TO.P,t1,2*%
%TO.N,Net-(D63-Pad2)*%
X135887500Y-150171250D03*
%TD*%
%TO.P,r1,1*%
%TO.N,col2*%
X110487500Y-152711250D03*
%TO.P,r1,2*%
%TO.N,Net-(D62-Pad2)*%
X116837500Y-150171250D03*
%TD*%
%TO.P,w1,1*%
%TO.N,col1*%
X72387500Y-152711250D03*
%TO.P,w1,2*%
%TO.N,Net-(D60-Pad2)*%
X78737500Y-150171250D03*
%TD*%
%TO.P,kp_+1,2*%
%TO.N,Net-(D32-Pad2)*%
X395443750Y-102546250D03*
%TO.P,kp_+1,1*%
%TO.N,col8*%
X389093750Y-105086250D03*
%TD*%
%TO.P,backspace3,1*%
%TO.N,col7*%
X291462500Y-133661250D03*
%TO.P,backspace3,2*%
%TO.N,Net-(D51-Pad2)*%
X297812500Y-131121250D03*
%TD*%
%TO.P,backspace1,1*%
%TO.N,col6*%
X272412500Y-133661250D03*
%TO.P,backspace1,2*%
%TO.N,Net-(D31-Pad2)*%
X278762500Y-131121250D03*
%TD*%
%TO.P,equal1,1*%
%TO.N,col6*%
X253362500Y-133661250D03*
%TO.P,equal1,2*%
%TO.N,Net-(D49-Pad2)*%
X259712500Y-131121250D03*
%TD*%
%TO.P,minus1,1*%
%TO.N,col5*%
X234312500Y-133661250D03*
%TO.P,minus1,2*%
%TO.N,Net-(D48-Pad2)*%
X240662500Y-131121250D03*
%TD*%
%TO.P,n0,1*%
%TO.N,col5*%
X215262500Y-133661250D03*
%TO.P,n0,2*%
%TO.N,Net-(D47-Pad2)*%
X221612500Y-131121250D03*
%TD*%
%TO.P,n9,1*%
%TO.N,col4*%
X196212500Y-133661250D03*
%TO.P,n9,2*%
%TO.N,Net-(D46-Pad2)*%
X202562500Y-131121250D03*
%TD*%
%TO.P,n8,1*%
%TO.N,col4*%
X177162500Y-133661250D03*
%TO.P,n8,2*%
%TO.N,Net-(D45-Pad2)*%
X183512500Y-131121250D03*
%TD*%
%TO.P,n6,1*%
%TO.N,col3*%
X139062500Y-133661250D03*
%TO.P,n6,2*%
%TO.N,Net-(D43-Pad2)*%
X145412500Y-131121250D03*
%TD*%
%TO.P,n5,1*%
%TO.N,col2*%
X120012500Y-133661250D03*
%TO.P,n5,2*%
%TO.N,Net-(D42-Pad2)*%
X126362500Y-131121250D03*
%TD*%
%TO.P,n4,1*%
%TO.N,col2*%
X100962500Y-133661250D03*
%TO.P,n4,2*%
%TO.N,Net-(D41-Pad2)*%
X107312500Y-131121250D03*
%TD*%
%TO.P,n3,1*%
%TO.N,col1*%
X81912500Y-133661250D03*
%TO.P,n3,2*%
%TO.N,Net-(D40-Pad2)*%
X88262500Y-131121250D03*
%TD*%
%TO.P,n2,1*%
%TO.N,col1*%
X62862500Y-133661250D03*
%TO.P,n2,2*%
%TO.N,Net-(D39-Pad2)*%
X69212500Y-131121250D03*
%TD*%
%TO.P,n1,1*%
%TO.N,col0*%
X43812500Y-133661250D03*
%TO.P,n1,2*%
%TO.N,Net-(D38-Pad2)*%
X50162500Y-131121250D03*
%TD*%
%TO.P,kp_+3,1*%
%TO.N,col8*%
X389093750Y-114611250D03*
%TO.P,kp_+3,2*%
%TO.N,Net-(D33-Pad2)*%
X395443750Y-112071250D03*
%TD*%
D22*
%TO.N,col0*%
X217439993Y-60525552D03*
%TO.N,row6*%
X190170000Y-66175000D03*
%TO.N,row5*%
X187690000Y-66625010D03*
%TO.N,col1*%
X220120000Y-61250000D03*
%TO.N,col2*%
X222620000Y-61660000D03*
%TO.N,row4*%
X185120000Y-67075020D03*
%TO.N,GND*%
X234430000Y-67310000D03*
X219900000Y-69600000D03*
%TD*%
D23*
%TO.N,Net-(D2-Pad2)*%
X69212500Y-73971250D02*
X72636250Y-73971250D01*
X72636250Y-73971250D02*
X76197500Y-77532500D01*
%TO.N,Net-(D3-Pad2)*%
X88262500Y-73971250D02*
X91686250Y-73971250D01*
X91686250Y-73971250D02*
X95247500Y-77532500D01*
%TO.N,Net-(D4-Pad2)*%
X110855000Y-73971250D02*
X114297500Y-77413750D01*
X107312500Y-73971250D02*
X110855000Y-73971250D01*
%TO.N,Net-(D6-Pad2)*%
X148955000Y-73971250D02*
X152397500Y-77413750D01*
X145412500Y-73971250D02*
X148955000Y-73971250D01*
%TO.N,Net-(D7-Pad2)*%
X168005000Y-73971250D02*
X171447500Y-77413750D01*
X164462500Y-73971250D02*
X168005000Y-73971250D01*
%TO.N,Net-(D8-Pad2)*%
X196580000Y-73971250D02*
X200022500Y-77413750D01*
X193037500Y-73971250D02*
X196580000Y-73971250D01*
%TO.N,Net-(D9-Pad2)*%
X215511250Y-73971250D02*
X219072500Y-77532500D01*
X212087500Y-73971250D02*
X215511250Y-73971250D01*
%TO.N,Net-(D10-Pad2)*%
X234680000Y-73971250D02*
X238122500Y-77413750D01*
X231137500Y-73971250D02*
X234680000Y-73971250D01*
%TO.N,Net-(D11-Pad2)*%
X253730000Y-73971250D02*
X257172500Y-77413750D01*
X250187500Y-73971250D02*
X253730000Y-73971250D01*
%TO.N,Net-(D12-Pad2)*%
X282305000Y-73971250D02*
X285747500Y-77413750D01*
X278762500Y-73971250D02*
X282305000Y-73971250D01*
%TO.N,Net-(D13-Pad2)*%
X341717500Y-73971250D02*
X345278750Y-77532500D01*
X338293750Y-73971250D02*
X341717500Y-73971250D01*
%TO.N,Net-(D14-Pad2)*%
X360767500Y-73971250D02*
X364328750Y-77532500D01*
X357343750Y-73971250D02*
X360767500Y-73971250D01*
%TO.N,Net-(D15-Pad2)*%
X379817500Y-73971250D02*
X383378750Y-77532500D01*
X376393750Y-73971250D02*
X379817500Y-73971250D01*
%TO.N,Net-(D16-Pad2)*%
X398748750Y-73971250D02*
X402428750Y-77651250D01*
X395443750Y-73971250D02*
X398748750Y-73971250D01*
%TO.N,Net-(D18-Pad2)*%
X72517500Y-93021250D02*
X76197500Y-96701250D01*
X69212500Y-93021250D02*
X72517500Y-93021250D01*
%TO.N,Net-(D19-Pad2)*%
X91567500Y-93021250D02*
X95247500Y-96701250D01*
X88262500Y-93021250D02*
X91567500Y-93021250D01*
%TO.N,Net-(D20-Pad2)*%
X110617500Y-93021250D02*
X114297500Y-96701250D01*
X107312500Y-93021250D02*
X110617500Y-93021250D01*
%TO.N,Net-(D21-Pad2)*%
X129667500Y-93021250D02*
X133347500Y-96701250D01*
X126362500Y-93021250D02*
X129667500Y-93021250D01*
%TO.N,Net-(D22-Pad2)*%
X148717500Y-93021250D02*
X152397500Y-96701250D01*
X145412500Y-93021250D02*
X148717500Y-93021250D01*
%TO.N,Net-(D23-Pad2)*%
X167886250Y-93021250D02*
X171447500Y-96582500D01*
X164462500Y-93021250D02*
X167886250Y-93021250D01*
%TO.N,Net-(D24-Pad2)*%
X196461250Y-93021250D02*
X200022500Y-96582500D01*
X193037500Y-93021250D02*
X196461250Y-93021250D01*
%TO.N,Net-(D25-Pad2)*%
X215511250Y-93021250D02*
X219072500Y-96582500D01*
X212087500Y-93021250D02*
X215511250Y-93021250D01*
%TO.N,Net-(D26-Pad2)*%
X234561250Y-93021250D02*
X238122500Y-96582500D01*
X231137500Y-93021250D02*
X234561250Y-93021250D01*
%TO.N,Net-(D27-Pad2)*%
X253611250Y-93021250D02*
X257172500Y-96582500D01*
X250187500Y-93021250D02*
X253611250Y-93021250D01*
%TO.N,Net-(D28-Pad2)*%
X341717500Y-93021250D02*
X345278750Y-96582500D01*
X338293750Y-93021250D02*
X341717500Y-93021250D01*
%TO.N,Net-(D29-Pad2)*%
X360767500Y-93021250D02*
X364328750Y-96582500D01*
X357343750Y-93021250D02*
X360767500Y-93021250D01*
%TO.N,Net-(D30-Pad2)*%
X376393750Y-93021250D02*
X371790000Y-93021250D01*
X370072500Y-91303750D02*
X370072500Y-88576250D01*
X371790000Y-93021250D02*
X370072500Y-91303750D01*
%TO.N,Net-(D31-Pad2)*%
X278762500Y-131121250D02*
X288287500Y-131121250D01*
X305890000Y-136400000D02*
X307590000Y-134700000D01*
X302900000Y-136400000D02*
X305890000Y-136400000D01*
X301070000Y-134570000D02*
X302900000Y-136400000D01*
X297940000Y-134570000D02*
X301070000Y-134570000D01*
X294491250Y-131121250D02*
X297940000Y-134570000D01*
X288287500Y-131121250D02*
X294491250Y-131121250D01*
%TO.N,Net-(D32-Pad2)*%
X395443750Y-102546250D02*
X395443750Y-93021250D01*
X395443750Y-93021250D02*
X392521250Y-93021250D01*
X389003750Y-89503750D02*
X389003750Y-88576250D01*
X392521250Y-93021250D02*
X389003750Y-89503750D01*
%TO.N,Net-(D33-Pad2)*%
X395443750Y-112071250D02*
X395443750Y-120580250D01*
X395443750Y-120580250D02*
X393837200Y-122186800D01*
X391958400Y-122186800D02*
X388656400Y-125488800D01*
X393837200Y-122186800D02*
X391958400Y-122186800D01*
%TO.N,Net-(D34-Pad2)*%
X341717500Y-112071250D02*
X345278750Y-115632500D01*
X338293750Y-112071250D02*
X341717500Y-112071250D01*
%TO.N,Net-(D35-Pad2)*%
X360767500Y-112071250D02*
X364328750Y-115632500D01*
X357343750Y-112071250D02*
X360767500Y-112071250D01*
%TO.N,Net-(D36-Pad2)*%
X369953750Y-108488750D02*
X369953750Y-107626250D01*
X376393750Y-112071250D02*
X371790000Y-112071250D01*
X369953750Y-110235000D02*
X369953750Y-107626250D01*
X371790000Y-112071250D02*
X369953750Y-110235000D01*
%TO.N,Net-(D37-Pad2)*%
X34536250Y-131121250D02*
X38097500Y-134682500D01*
X31112500Y-131121250D02*
X34536250Y-131121250D01*
%TO.N,Net-(D38-Pad2)*%
X53586250Y-131121250D02*
X57147500Y-134682500D01*
X50162500Y-131121250D02*
X53586250Y-131121250D01*
%TO.N,Net-(D39-Pad2)*%
X72636250Y-131121250D02*
X76197500Y-134682500D01*
X69212500Y-131121250D02*
X72636250Y-131121250D01*
%TO.N,Net-(D40-Pad2)*%
X91686250Y-131121250D02*
X95247500Y-134682500D01*
X88262500Y-131121250D02*
X91686250Y-131121250D01*
%TO.N,Net-(D41-Pad2)*%
X110736250Y-131121250D02*
X114297500Y-134682500D01*
X107312500Y-131121250D02*
X110736250Y-131121250D01*
%TO.N,Net-(D42-Pad2)*%
X129786250Y-131121250D02*
X133347500Y-134682500D01*
X126362500Y-131121250D02*
X129786250Y-131121250D01*
%TO.N,Net-(D43-Pad2)*%
X148836250Y-131121250D02*
X152397500Y-134682500D01*
X145412500Y-131121250D02*
X148836250Y-131121250D01*
%TO.N,Net-(D44-Pad2)*%
X167886250Y-131121250D02*
X171447500Y-134682500D01*
X164462500Y-131121250D02*
X167886250Y-131121250D01*
%TO.N,Net-(D45-Pad2)*%
X186936250Y-131121250D02*
X190497500Y-134682500D01*
X183512500Y-131121250D02*
X186936250Y-131121250D01*
%TO.N,Net-(D46-Pad2)*%
X205986250Y-131121250D02*
X209547500Y-134682500D01*
X202562500Y-131121250D02*
X205986250Y-131121250D01*
%TO.N,Net-(D47-Pad2)*%
X225036250Y-131121250D02*
X228597500Y-134682500D01*
X221612500Y-131121250D02*
X225036250Y-131121250D01*
%TO.N,Net-(D48-Pad2)*%
X244086250Y-131121250D02*
X247647500Y-134682500D01*
X240662500Y-131121250D02*
X244086250Y-131121250D01*
%TO.N,Net-(D49-Pad2)*%
X263136250Y-131121250D02*
X266697500Y-134682500D01*
X259712500Y-131121250D02*
X263136250Y-131121250D01*
%TO.N,Net-(D51-Pad2)*%
X301236250Y-131121250D02*
X304797500Y-134682500D01*
X297812500Y-131121250D02*
X301236250Y-131121250D01*
%TO.N,Net-(D53-Pad2)*%
X395740000Y-131417500D02*
X395443750Y-131121250D01*
X395443750Y-131121250D02*
X398237750Y-131121250D01*
X398237750Y-131121250D02*
X399450600Y-129908400D01*
X399450600Y-126160800D02*
X402828800Y-122782600D01*
X399450600Y-129908400D02*
X399450600Y-126160800D01*
X395443750Y-140646250D02*
X395443750Y-139782650D01*
X395443750Y-139782650D02*
X396326400Y-138900000D01*
X396326400Y-132003900D02*
X395443750Y-131121250D01*
X396326400Y-138900000D02*
X396326400Y-132003900D01*
%TO.N,Net-(D54-Pad2)*%
X341717500Y-131121250D02*
X345278750Y-134682500D01*
X338293750Y-131121250D02*
X341717500Y-131121250D01*
%TO.N,Net-(D55-Pad2)*%
X357343750Y-131121250D02*
X360767500Y-131121250D01*
X360767500Y-131121250D02*
X364328750Y-134682500D01*
%TO.N,Net-(D56-Pad2)*%
X376393750Y-131121250D02*
X371155000Y-131121250D01*
X368972500Y-128938750D02*
X368972500Y-126676250D01*
X371155000Y-131121250D02*
X368972500Y-128938750D01*
%TO.N,Net-(D57-Pad2)*%
X384309951Y-148721249D02*
X382204000Y-150827200D01*
X393993749Y-148721249D02*
X384309951Y-148721249D01*
X395443750Y-150171250D02*
X393993749Y-148721249D01*
X395443750Y-150171250D02*
X395443750Y-150193750D01*
%TO.N,Net-(D58-Pad2)*%
X44061250Y-150171250D02*
X47622500Y-153732500D01*
X35875000Y-150171250D02*
X44061250Y-150171250D01*
%TO.N,Net-(D59-Pad2)*%
X63111250Y-150171250D02*
X66672500Y-153732500D01*
X59687500Y-150171250D02*
X63111250Y-150171250D01*
%TO.N,Net-(D60-Pad2)*%
X82161250Y-150171250D02*
X85722500Y-153732500D01*
X78737500Y-150171250D02*
X82161250Y-150171250D01*
%TO.N,Net-(D61-Pad2)*%
X101211250Y-150171250D02*
X104772500Y-153732500D01*
X97787500Y-150171250D02*
X101211250Y-150171250D01*
%TO.N,Net-(D62-Pad2)*%
X120261250Y-150171250D02*
X123822500Y-153732500D01*
X116837500Y-150171250D02*
X120261250Y-150171250D01*
%TO.N,Net-(D63-Pad2)*%
X139311250Y-150171250D02*
X142872500Y-153732500D01*
X135887500Y-150171250D02*
X139311250Y-150171250D01*
%TO.N,Net-(D64-Pad2)*%
X158361250Y-150171250D02*
X161922500Y-153732500D01*
X154937500Y-150171250D02*
X158361250Y-150171250D01*
%TO.N,Net-(D65-Pad2)*%
X177411250Y-150171250D02*
X180972500Y-153732500D01*
X173987500Y-150171250D02*
X177411250Y-150171250D01*
%TO.N,Net-(D66-Pad2)*%
X196461250Y-150171250D02*
X200022500Y-153732500D01*
X193037500Y-150171250D02*
X196461250Y-150171250D01*
%TO.N,Net-(D67-Pad2)*%
X212087500Y-150171250D02*
X212087500Y-150114100D01*
X215511250Y-150171250D02*
X219072500Y-153732500D01*
X212087500Y-150171250D02*
X215511250Y-150171250D01*
%TO.N,Net-(D68-Pad2)*%
X234561250Y-150171250D02*
X238122500Y-153732500D01*
X231137500Y-150171250D02*
X234561250Y-150171250D01*
%TO.N,Net-(D69-Pad2)*%
X253611250Y-150171250D02*
X257172500Y-153732500D01*
X250187500Y-150171250D02*
X253611250Y-150171250D01*
%TO.N,Net-(D70-Pad2)*%
X272661250Y-150171250D02*
X276222500Y-153732500D01*
X269237500Y-150171250D02*
X272661250Y-150171250D01*
%TO.N,Net-(D71-Pad2)*%
X301236250Y-150171250D02*
X304797500Y-153732500D01*
X293050000Y-150171250D02*
X301236250Y-150171250D01*
%TO.N,Net-(D72-Pad2)*%
X327408750Y-150171250D02*
X326228750Y-151351250D01*
X338293750Y-150171250D02*
X327408750Y-150171250D01*
X338293750Y-150171250D02*
X347818750Y-150171250D01*
%TO.N,Net-(D73-Pad2)*%
X376393750Y-150171250D02*
X371790000Y-150171250D01*
X369953750Y-148335000D02*
X369953750Y-145726250D01*
X371790000Y-150171250D02*
X369953750Y-148335000D01*
%TO.N,Net-(D74-Pad2)*%
X304797500Y-170916700D02*
X304797500Y-172782500D01*
X301197050Y-167316250D02*
X304797500Y-170916700D01*
X298486250Y-167316250D02*
X299626250Y-167316250D01*
X295431250Y-164261250D02*
X298486250Y-167316250D01*
X299626250Y-167316250D02*
X301197050Y-167316250D01*
X290150000Y-167480000D02*
X290150000Y-163870000D01*
X285906250Y-169221250D02*
X288408750Y-169221250D01*
X288408750Y-169221250D02*
X290150000Y-167480000D01*
X295431250Y-162098750D02*
X295431250Y-164261250D01*
X291921250Y-162098750D02*
X295431250Y-162098750D01*
X290150000Y-163870000D02*
X291921250Y-162098750D01*
X295431250Y-159696250D02*
X295431250Y-162098750D01*
%TO.N,Net-(D76-Pad2)*%
X33493750Y-169221250D02*
X38256250Y-169221250D01*
X44061250Y-169221250D02*
X47622500Y-172782500D01*
X38256250Y-169221250D02*
X44061250Y-169221250D01*
%TO.N,Net-(D77-Pad2)*%
X67873750Y-169221250D02*
X71435000Y-172782500D01*
X64450000Y-169221250D02*
X67873750Y-169221250D01*
%TO.N,Net-(D78-Pad2)*%
X86923750Y-169221250D02*
X90485000Y-172782500D01*
X83500000Y-169221250D02*
X86923750Y-169221250D01*
%TO.N,Net-(D79-Pad2)*%
X105973750Y-169221250D02*
X109535000Y-172782500D01*
X102550000Y-169221250D02*
X105973750Y-169221250D01*
%TO.N,Net-(D80-Pad2)*%
X125023750Y-169221250D02*
X128585000Y-172782500D01*
X121600000Y-169221250D02*
X125023750Y-169221250D01*
%TO.N,Net-(D81-Pad2)*%
X144073750Y-169221250D02*
X147635000Y-172782500D01*
X140650000Y-169221250D02*
X144073750Y-169221250D01*
%TO.N,Net-(D82-Pad2)*%
X163123750Y-169221250D02*
X166685000Y-172782500D01*
X159700000Y-169221250D02*
X163123750Y-169221250D01*
%TO.N,Net-(D83-Pad2)*%
X182173750Y-169221250D02*
X185735000Y-172782500D01*
X178750000Y-169221250D02*
X182173750Y-169221250D01*
%TO.N,Net-(D84-Pad2)*%
X201223750Y-169221250D02*
X204785000Y-172782500D01*
X197800000Y-169221250D02*
X201223750Y-169221250D01*
%TO.N,Net-(D85-Pad2)*%
X220273750Y-169221250D02*
X223835000Y-172782500D01*
X216850000Y-169221250D02*
X220273750Y-169221250D01*
%TO.N,Net-(D86-Pad2)*%
X239323750Y-169221250D02*
X242885000Y-172782500D01*
X235900000Y-169221250D02*
X239323750Y-169221250D01*
%TO.N,Net-(D87-Pad2)*%
X254950000Y-169221250D02*
X254950000Y-166408200D01*
X256868800Y-164489400D02*
X261833400Y-164489400D01*
X254950000Y-166408200D02*
X256868800Y-164489400D01*
%TO.N,Net-(D88-Pad2)*%
X261833400Y-174855600D02*
X263114200Y-174855600D01*
X263114200Y-174855600D02*
X264271800Y-173698000D01*
X264271800Y-173698000D02*
X264271800Y-171132600D01*
X266183150Y-169221250D02*
X274000000Y-169221250D01*
X264271800Y-171132600D02*
X266183150Y-169221250D01*
%TO.N,Net-(D91-Pad2)*%
X363148750Y-150171250D02*
X364328750Y-151351250D01*
X357343750Y-150171250D02*
X363148750Y-150171250D01*
%TO.N,Net-(D92-Pad2)*%
X289211250Y-188271250D02*
X290510000Y-189570000D01*
X283525000Y-188271250D02*
X289211250Y-188271250D01*
%TO.N,Net-(D94-Pad2)*%
X43018750Y-188271250D02*
X33493750Y-188271250D01*
X21168750Y-188271250D02*
X20300000Y-189140000D01*
X33493750Y-188271250D02*
X21168750Y-188271250D01*
%TO.N,Net-(D95-Pad2)*%
X58348750Y-188271250D02*
X61910000Y-191832500D01*
X54925000Y-188271250D02*
X58348750Y-188271250D01*
%TO.N,Net-(D96-Pad2)*%
X77398750Y-188271250D02*
X80960000Y-191832500D01*
X73975000Y-188271250D02*
X77398750Y-188271250D01*
%TO.N,Net-(D97-Pad2)*%
X93025000Y-188271250D02*
X92942450Y-188271250D01*
X96448750Y-188271250D02*
X100010000Y-191832500D01*
X93025000Y-188271250D02*
X96448750Y-188271250D01*
%TO.N,Net-(D98-Pad2)*%
X115498750Y-188271250D02*
X119060000Y-191832500D01*
X112075000Y-188271250D02*
X115498750Y-188271250D01*
%TO.N,Net-(D99-Pad2)*%
X134548750Y-188271250D02*
X138110000Y-191832500D01*
X131125000Y-188271250D02*
X134548750Y-188271250D01*
%TO.N,Net-(D100-Pad2)*%
X153598750Y-188271250D02*
X157160000Y-191832500D01*
X150175000Y-188271250D02*
X153598750Y-188271250D01*
%TO.N,Net-(D101-Pad2)*%
X172648750Y-188271250D02*
X176210000Y-191832500D01*
X169225000Y-188271250D02*
X172648750Y-188271250D01*
%TO.N,Net-(D102-Pad2)*%
X191698750Y-188271250D02*
X195260000Y-191832500D01*
X188275000Y-188271250D02*
X191698750Y-188271250D01*
%TO.N,Net-(D103-Pad2)*%
X210748750Y-188271250D02*
X214310000Y-191832500D01*
X207325000Y-188271250D02*
X210748750Y-188271250D01*
%TO.N,Net-(D104-Pad2)*%
X229798750Y-188271250D02*
X233360000Y-191832500D01*
X226375000Y-188271250D02*
X229798750Y-188271250D01*
%TO.N,Net-(D105-Pad2)*%
X245425000Y-188271250D02*
X245425000Y-185280400D01*
X247584000Y-183121400D02*
X252333800Y-183121400D01*
X245425000Y-185280400D02*
X247584000Y-183121400D01*
%TO.N,Net-(D107-Pad2)*%
X274000000Y-188271250D02*
X264475000Y-188271250D01*
X264475000Y-188271250D02*
X263185950Y-188271250D01*
X263185950Y-188271250D02*
X262671600Y-188785600D01*
X256928200Y-188785600D02*
X252232200Y-193481600D01*
X262671600Y-188785600D02*
X256928200Y-188785600D01*
%TO.N,Net-(D108-Pad2)*%
X311867500Y-194140000D02*
X314322500Y-196595000D01*
X307650000Y-194140000D02*
X311867500Y-194140000D01*
%TO.N,Net-(D114-Pad2)*%
X331067500Y-213340000D02*
X333372500Y-215645000D01*
X326850000Y-213340000D02*
X331067500Y-213340000D01*
%TO.N,Net-(D115-Pad2)*%
X312017500Y-213340000D02*
X314322500Y-215645000D01*
X307650000Y-213340000D02*
X312017500Y-213340000D01*
%TO.N,Net-(D116-Pad2)*%
X292949500Y-213322000D02*
X295272500Y-215645000D01*
X288478000Y-213322000D02*
X292949500Y-213322000D01*
%TO.N,Net-(D117-Pad2)*%
X195260000Y-210763750D02*
X196506250Y-210763750D01*
X199948750Y-207321250D02*
X209706250Y-207321250D01*
X196506250Y-210763750D02*
X199948750Y-207321250D01*
X209706350Y-207321350D02*
X209706250Y-207321250D01*
X221615000Y-207321350D02*
X209706350Y-207321350D01*
%TO.N,Net-(D118-Pad2)*%
X226375000Y-207321250D02*
X240665000Y-207321250D01*
X240665000Y-221855000D02*
X240680000Y-221870000D01*
X240665000Y-207321250D02*
X240665000Y-221855000D01*
%TO.N,Net-(D120-Pad2)*%
X160352490Y-207321240D02*
X161925000Y-208893750D01*
X152558750Y-207321240D02*
X160352490Y-207321240D01*
D24*
%TO.N,Net-(D121-Pad2)*%
X22100000Y-206250000D02*
X20130000Y-208220000D01*
X35835000Y-207901250D02*
X35835000Y-206215000D01*
X35835000Y-206215000D02*
X35220000Y-205600000D01*
X35220000Y-205600000D02*
X29980000Y-205600000D01*
D23*
X35875000Y-207321250D02*
X31115000Y-207321250D01*
X22750000Y-205600000D02*
X22100000Y-206250000D01*
X29980000Y-205600000D02*
X22750000Y-205600000D01*
%TO.N,Net-(D122-Pad2)*%
X64449990Y-207321240D02*
X64450000Y-207321250D01*
X57308750Y-207321240D02*
X64449990Y-207321240D01*
X50165010Y-207321240D02*
X50165000Y-207321250D01*
X57308750Y-207321240D02*
X50165010Y-207321240D01*
X65531250Y-207321250D02*
X64450000Y-207321250D01*
D24*
X69600000Y-210870000D02*
X66051250Y-207321250D01*
X69600000Y-212420000D02*
X69600000Y-210870000D01*
X66051250Y-207321250D02*
X64450000Y-207321250D01*
X71898651Y-214718651D02*
X69600000Y-212420000D01*
X87631349Y-214718651D02*
X71898651Y-214718651D01*
X92150000Y-210200000D02*
X87631349Y-214718651D01*
D23*
%TO.N,Net-(D124-Pad2)*%
X252568750Y-207321250D02*
X259715000Y-207321250D01*
X265781250Y-207321250D02*
X271510000Y-213050000D01*
X259715000Y-207321250D02*
X265781250Y-207321250D01*
%TO.N,col0*%
X217439993Y-63639993D02*
X217650000Y-63850000D01*
X217439993Y-60525552D02*
X217439993Y-63639993D01*
%TO.N,row0*%
X167822499Y-81588749D02*
X171447500Y-85213750D01*
X136972501Y-81588749D02*
X167822499Y-81588749D01*
X133347500Y-85213750D02*
X136972501Y-81588749D01*
X215328749Y-81588749D02*
X219072500Y-85332500D01*
X175072501Y-81588749D02*
X215328749Y-81588749D01*
X253547499Y-81588749D02*
X257172500Y-85213750D01*
X222816251Y-81588749D02*
X253547499Y-81588749D01*
X219072500Y-85332500D02*
X222816251Y-81588749D01*
X398684999Y-81707499D02*
X402428750Y-85451250D01*
X367953751Y-81707499D02*
X398684999Y-81707499D01*
X364328750Y-85332500D02*
X367953751Y-81707499D01*
X129722499Y-81588749D02*
X133347500Y-85213750D01*
X98991251Y-81588749D02*
X129722499Y-81588749D01*
X95247500Y-85332500D02*
X98991251Y-81588749D01*
X95247500Y-85332500D02*
X95247500Y-84682500D01*
X360473125Y-81476875D02*
X364328750Y-85332500D01*
X360366401Y-81370151D02*
X360473125Y-81476875D01*
X171447500Y-85213750D02*
X175072501Y-81588749D01*
X94572509Y-86007491D02*
X95247500Y-85332500D01*
X47050000Y-87820000D02*
X67240000Y-87820000D01*
X67240000Y-87820000D02*
X73550000Y-81510000D01*
X91425000Y-81510000D02*
X95247500Y-85332500D01*
X73550000Y-81510000D02*
X91425000Y-81510000D01*
X344060000Y-82066248D02*
X344751248Y-81375000D01*
X344060000Y-86570000D02*
X344060000Y-82066248D01*
X344751248Y-81375000D02*
X360371250Y-81375000D01*
X344400000Y-86910000D02*
X344060000Y-86570000D01*
X345533590Y-86910000D02*
X344400000Y-86910000D01*
X360371250Y-81375000D02*
X360473125Y-81476875D01*
X346989990Y-97553600D02*
X346989990Y-88366400D01*
X345323600Y-99219990D02*
X346989990Y-97553600D01*
X344382190Y-99219990D02*
X345323600Y-99219990D01*
X343049982Y-100552198D02*
X344382190Y-99219990D01*
X343049981Y-103032470D02*
X343049982Y-100552198D01*
X259425020Y-103032470D02*
X343049981Y-103032470D01*
X259425020Y-87699980D02*
X259425020Y-103032470D01*
X258625009Y-85213750D02*
X259300000Y-85888741D01*
X259300000Y-85888741D02*
X284386259Y-85888741D01*
X284386259Y-85888741D02*
X284400000Y-85875000D01*
X284400000Y-85875000D02*
X284400000Y-83980000D01*
X284400000Y-83980000D02*
X284410000Y-83970000D01*
X287200000Y-83970000D02*
X287200000Y-86200000D01*
X259475000Y-87636410D02*
X259475000Y-87650000D01*
X284410000Y-83970000D02*
X287200000Y-83970000D01*
X287200000Y-86200000D02*
X286049990Y-87350010D01*
X346989990Y-88366400D02*
X345533590Y-86910000D01*
X259475000Y-87650000D02*
X259425020Y-87699980D01*
X257172500Y-85213750D02*
X258625009Y-85213750D01*
X286049990Y-87350010D02*
X259761400Y-87350010D01*
X259761400Y-87350010D02*
X259475000Y-87636410D01*
%TO.N,row1*%
X113053749Y-86457501D02*
X114297500Y-85213750D01*
X77322501Y-86457501D02*
X113053749Y-86457501D01*
X76197500Y-85332500D02*
X77322501Y-86457501D01*
X151272499Y-86338751D02*
X152397500Y-85213750D01*
X115422501Y-86338751D02*
X151272499Y-86338751D01*
X114297500Y-85213750D02*
X115422501Y-86338751D01*
X198897499Y-86338751D02*
X200022500Y-85213750D01*
X153522501Y-86338751D02*
X198897499Y-86338751D01*
X152397500Y-85213750D02*
X153522501Y-86338751D01*
X236878749Y-86457501D02*
X238122500Y-85213750D01*
X201266251Y-86457501D02*
X236878749Y-86457501D01*
X200022500Y-85213750D02*
X201266251Y-86457501D01*
X239247501Y-86338751D02*
X284622499Y-86338751D01*
X284622499Y-86338751D02*
X285747500Y-85213750D01*
X238122500Y-85213750D02*
X239247501Y-86338751D01*
X382253749Y-86457501D02*
X383378750Y-85332500D01*
X346403751Y-86457501D02*
X382253749Y-86457501D01*
X345278750Y-85332500D02*
X346403751Y-86457501D01*
X345278750Y-86018750D02*
X345278750Y-85332500D01*
X347440000Y-88180000D02*
X345278750Y-86018750D01*
X285747500Y-85877500D02*
X284725000Y-86900000D01*
X284725000Y-86900000D02*
X259575000Y-86900000D01*
X347440000Y-97740000D02*
X347440000Y-88180000D01*
X259575000Y-86900000D02*
X258975010Y-87499990D01*
X258975010Y-87499990D02*
X258975010Y-103400010D01*
X258975010Y-103400010D02*
X259057480Y-103482480D01*
X285747500Y-85213750D02*
X285747500Y-85877500D01*
X259057480Y-103482480D02*
X343487520Y-103482480D01*
X343487520Y-103482480D02*
X343499990Y-103470010D01*
X343499991Y-100738599D02*
X344568590Y-99670000D01*
X344568590Y-99670000D02*
X345510000Y-99670000D01*
X343499990Y-103470010D02*
X343499991Y-100738599D01*
X345510000Y-99670000D02*
X347440000Y-97740000D01*
%TO.N,row2*%
X129722499Y-100876249D02*
X133347500Y-104501250D01*
X98872501Y-100876249D02*
X129722499Y-100876249D01*
X95247500Y-104501250D02*
X98872501Y-100876249D01*
X167941249Y-100876249D02*
X171447500Y-104382500D01*
X136972501Y-100876249D02*
X167941249Y-100876249D01*
X133347500Y-104501250D02*
X136972501Y-100876249D01*
X175072501Y-100757499D02*
X215447499Y-100757499D01*
X215447499Y-100757499D02*
X219072500Y-104382500D01*
X171447500Y-104382500D02*
X175072501Y-100757499D01*
X364328750Y-104382500D02*
X365667500Y-104382500D01*
X365667500Y-104382500D02*
X365667500Y-89932500D01*
X365667500Y-89932500D02*
X368520000Y-87080000D01*
X395307500Y-87080000D02*
X396803750Y-88576250D01*
X368520000Y-87080000D02*
X395307500Y-87080000D01*
X363653759Y-105057491D02*
X364328750Y-104382500D01*
X219072500Y-104382500D02*
X222697501Y-100757499D01*
X343950000Y-103750000D02*
X343950000Y-103170000D01*
X222697501Y-100757499D02*
X258332499Y-100757499D01*
X258332499Y-100757499D02*
X258525000Y-100950000D01*
X258525000Y-103600000D02*
X258857490Y-103932490D01*
X346650000Y-103400000D02*
X346650000Y-105000000D01*
X258525000Y-100950000D02*
X258525000Y-103600000D01*
X258857490Y-103932490D02*
X343767510Y-103932490D01*
X343767510Y-103932490D02*
X343950000Y-103750000D01*
X346420000Y-103170000D02*
X346650000Y-103400000D01*
X343950000Y-103170000D02*
X346420000Y-103170000D01*
X346650000Y-105000000D02*
X346707491Y-105057491D01*
X346707491Y-105057491D02*
X363653759Y-105057491D01*
%TO.N,row3*%
X113172499Y-105626251D02*
X114297500Y-104501250D01*
X77322501Y-105626251D02*
X113172499Y-105626251D01*
X76197500Y-104501250D02*
X77322501Y-105626251D01*
X151272499Y-105626251D02*
X152397500Y-104501250D01*
X115422501Y-105626251D02*
X151272499Y-105626251D01*
X114297500Y-104501250D02*
X115422501Y-105626251D01*
X236997499Y-105507501D02*
X238122500Y-104382500D01*
X201147501Y-105507501D02*
X236997499Y-105507501D01*
X200022500Y-104382500D02*
X201147501Y-105507501D01*
X238122500Y-104382500D02*
X257172500Y-104382500D01*
X369879473Y-105507501D02*
X377872500Y-97514474D01*
X377872500Y-97514474D02*
X377872500Y-88576250D01*
X346403751Y-105507501D02*
X369879473Y-105507501D01*
X345278750Y-104382500D02*
X346403751Y-105507501D01*
D24*
X257172500Y-104382500D02*
X258157500Y-104382500D01*
D23*
X258157500Y-104382500D02*
X345278750Y-104382500D01*
X198875000Y-105530000D02*
X200022500Y-104382500D01*
X153426250Y-105530000D02*
X198875000Y-105530000D01*
X152397500Y-104501250D02*
X153426250Y-105530000D01*
%TO.N,row6*%
X101147499Y-157907499D02*
X104772500Y-161532500D01*
X70297501Y-157907499D02*
X101147499Y-157907499D01*
X66672500Y-161532500D02*
X70297501Y-157907499D01*
X139247499Y-157907499D02*
X142872500Y-161532500D01*
X177010151Y-157570151D02*
X180972500Y-161532500D01*
X146834849Y-157570151D02*
X177010151Y-157570151D01*
X142872500Y-161532500D02*
X146834849Y-157570151D01*
X215447499Y-157907499D02*
X219072500Y-161532500D01*
X184597501Y-157907499D02*
X215447499Y-157907499D01*
X180972500Y-161532500D02*
X184597501Y-157907499D01*
X253547499Y-157907499D02*
X257172500Y-161532500D01*
X222697501Y-157907499D02*
X253547499Y-157907499D01*
X219072500Y-161532500D02*
X222697501Y-157907499D01*
X300835151Y-157570151D02*
X304797500Y-161532500D01*
X261134849Y-157570151D02*
X300835151Y-157570151D01*
X257172500Y-161532500D02*
X261134849Y-157570151D01*
X304797500Y-161532500D02*
X304797500Y-169643880D01*
X137476632Y-72395299D02*
X143971920Y-65900010D01*
X118068059Y-71269980D02*
X119193381Y-72395300D01*
X61156400Y-71259990D02*
X61166390Y-71269980D01*
X52872188Y-71259990D02*
X61156400Y-71259990D01*
X143971920Y-65900010D02*
X174279990Y-65900010D01*
X44819982Y-79312196D02*
X52872188Y-71259990D01*
X19750428Y-158283729D02*
X19768993Y-108792057D01*
X50812500Y-160132500D02*
X48310000Y-157630000D01*
X48310000Y-157630000D02*
X42210000Y-157630000D01*
X42210000Y-157630000D02*
X38757510Y-161082490D01*
X119193381Y-72395300D02*
X137476632Y-72395299D01*
X44819981Y-91737199D02*
X44819982Y-79312196D01*
X38757510Y-161082490D02*
X22549188Y-161082490D01*
X22549188Y-161082490D02*
X19750428Y-158283729D01*
X66672500Y-161532500D02*
X65272500Y-160132500D01*
X65272500Y-160132500D02*
X50812500Y-160132500D01*
X19768993Y-108792057D02*
X19769608Y-108791442D01*
X19769608Y-108791442D02*
X19769608Y-106633982D01*
X39947200Y-96609980D02*
X44819981Y-91737199D01*
X61166390Y-71269980D02*
X118068059Y-71269980D01*
X19769608Y-106633982D02*
X29793609Y-96609981D01*
X29793609Y-96609981D02*
X39947200Y-96609980D01*
X306372511Y-181727489D02*
X306372511Y-171218891D01*
X305710000Y-186403590D02*
X305710000Y-182390000D01*
X317797240Y-186589940D02*
X305896350Y-186589940D01*
X317829936Y-186557244D02*
X317797240Y-186589940D01*
X317829936Y-165890064D02*
X317829936Y-186557244D01*
X305896350Y-186589940D02*
X305710000Y-186403590D01*
X320795200Y-161259930D02*
X317829937Y-164225193D01*
X304797500Y-169643880D02*
X306339310Y-171185690D01*
X305710000Y-182390000D02*
X306372511Y-181727489D01*
X333992341Y-125551249D02*
X328569991Y-130973599D01*
X377753750Y-107626250D02*
X382300000Y-112172500D01*
X322559955Y-145697995D02*
X322559954Y-161259930D01*
X328569991Y-130973599D02*
X328569990Y-139687960D01*
X322559954Y-161259930D02*
X320795200Y-161259930D01*
X382300000Y-118740000D02*
X377710000Y-123330000D01*
X366528751Y-125551249D02*
X333992341Y-125551249D01*
X317829937Y-164225193D02*
X317829936Y-165890064D01*
X377710000Y-123330000D02*
X368750000Y-123330000D01*
X382300000Y-112172500D02*
X382300000Y-118740000D01*
X328569990Y-139687960D02*
X322559955Y-145697995D01*
X368750000Y-123330000D02*
X366528751Y-125551249D01*
X306372511Y-171218891D02*
X306339310Y-171185690D01*
X189895010Y-65900010D02*
X190170000Y-66175000D01*
X174279990Y-65900010D02*
X189895010Y-65900010D01*
X106997501Y-159307499D02*
X104772500Y-161532500D01*
X106997501Y-159307499D02*
X106997501Y-159292499D01*
X108382501Y-157907499D02*
X139247499Y-157907499D01*
X106997501Y-159292499D02*
X108382501Y-157907499D01*
%TO.N,row5*%
X75072499Y-143607501D02*
X76197500Y-142482500D01*
X39222501Y-143607501D02*
X75072499Y-143607501D01*
X38097500Y-142482500D02*
X39222501Y-143607501D01*
X113172499Y-143607501D02*
X114297500Y-142482500D01*
X77322501Y-143607501D02*
X113172499Y-143607501D01*
X76197500Y-142482500D02*
X77322501Y-143607501D01*
X151272499Y-143607501D02*
X152397500Y-142482500D01*
X115422501Y-143607501D02*
X151272499Y-143607501D01*
X114297500Y-142482500D02*
X115422501Y-143607501D01*
X189372499Y-143607501D02*
X190497500Y-142482500D01*
X153522501Y-143607501D02*
X189372499Y-143607501D01*
X152397500Y-142482500D02*
X153522501Y-143607501D01*
X227472499Y-143607501D02*
X228597500Y-142482500D01*
X191622501Y-143607501D02*
X227472499Y-143607501D01*
X190497500Y-142482500D02*
X191622501Y-143607501D01*
X265572499Y-143607501D02*
X266697500Y-142482500D01*
X229722501Y-143607501D02*
X265572499Y-143607501D01*
X228597500Y-142482500D02*
X229722501Y-143607501D01*
X266697500Y-143532500D02*
X268200251Y-145035251D01*
X266697500Y-142482500D02*
X266697500Y-143532500D01*
X302244749Y-145035251D02*
X304797500Y-142482500D01*
X268200251Y-145035251D02*
X301903051Y-145035251D01*
X304797500Y-142482500D02*
X304797500Y-143167500D01*
X20542500Y-142482500D02*
X20668953Y-142482500D01*
X60979990Y-71719990D02*
X60970000Y-71710000D01*
X40133600Y-97059990D02*
X29980010Y-97059990D01*
X29980010Y-97059990D02*
X20219618Y-106820382D01*
X60970000Y-71710000D02*
X53058588Y-71710000D01*
X53058588Y-71710000D02*
X45269991Y-79498597D01*
X20219618Y-108977842D02*
X20218932Y-108978528D01*
X20206491Y-142146490D02*
X20542500Y-142482500D01*
X45269991Y-79498597D02*
X45269990Y-91923600D01*
X45269990Y-91923600D02*
X40133600Y-97059990D01*
X20218932Y-108978528D02*
X20206491Y-142146490D01*
X20219618Y-106820382D02*
X20219618Y-108977842D01*
X76180000Y-71719990D02*
X75930010Y-71719990D01*
X75930010Y-71719990D02*
X60979990Y-71719990D01*
X137663033Y-72845308D02*
X144158320Y-66350020D01*
X129490000Y-75960000D02*
X132604692Y-72845308D01*
X125580000Y-75960000D02*
X129490000Y-75960000D01*
X122465309Y-72845309D02*
X125580000Y-75960000D01*
X132604692Y-72845308D02*
X137663033Y-72845308D01*
X119006982Y-72845309D02*
X122465309Y-72845309D01*
X144158320Y-66350020D02*
X176369980Y-66350020D01*
X117881661Y-71719990D02*
X119006982Y-72845309D01*
X75930010Y-71719990D02*
X117881661Y-71719990D01*
X304797500Y-152037500D02*
X304797500Y-142482500D01*
X328119981Y-139501559D02*
X322109945Y-145511595D01*
X306822520Y-171032490D02*
X305922501Y-170132471D01*
X335474680Y-123432500D02*
X328119982Y-130787198D01*
X322109945Y-145511595D02*
X322109945Y-160809920D01*
X345278750Y-123432500D02*
X335474680Y-123432500D01*
X328119982Y-130787198D02*
X328119981Y-139501559D01*
X322109945Y-160809920D02*
X320608800Y-160809920D01*
X306822521Y-181913889D02*
X306822520Y-171032490D01*
X320608800Y-160809920D02*
X317379928Y-164038792D01*
X305922501Y-153162501D02*
X304797500Y-152037500D01*
X305922501Y-170132471D02*
X305922501Y-153162501D01*
X306160010Y-186139930D02*
X306160010Y-182576400D01*
X317379928Y-164038792D02*
X317379926Y-186139930D01*
X317379926Y-186139930D02*
X306160010Y-186139930D01*
X306160010Y-182576400D02*
X306822521Y-181913889D01*
X20668953Y-142482500D02*
X38097500Y-142482500D01*
X301903051Y-145035251D02*
X302244749Y-145035251D01*
X187415010Y-66350020D02*
X187690000Y-66625010D01*
X176369980Y-66350020D02*
X187415010Y-66350020D01*
%TO.N,row7*%
X84597499Y-162657501D02*
X85722500Y-161532500D01*
X48747501Y-162657501D02*
X84597499Y-162657501D01*
X47622500Y-161532500D02*
X48747501Y-162657501D01*
X122697499Y-162657501D02*
X123822500Y-161532500D01*
X86847501Y-162657501D02*
X122697499Y-162657501D01*
X85722500Y-161532500D02*
X86847501Y-162657501D01*
X160797499Y-162657501D02*
X161922500Y-161532500D01*
X124947501Y-162657501D02*
X160797499Y-162657501D01*
X123822500Y-161532500D02*
X124947501Y-162657501D01*
X198897499Y-162657501D02*
X200022500Y-161532500D01*
X163047501Y-162657501D02*
X198897499Y-162657501D01*
X161922500Y-161532500D02*
X163047501Y-162657501D01*
X236997499Y-162657501D02*
X238122500Y-161532500D01*
X201147501Y-162657501D02*
X236997499Y-162657501D01*
X200022500Y-161532500D02*
X201147501Y-162657501D01*
X275097499Y-162657501D02*
X276222500Y-161532500D01*
X239247501Y-162657501D02*
X275097499Y-162657501D01*
X238122500Y-161532500D02*
X239247501Y-162657501D01*
X318279945Y-186743645D02*
X317983640Y-187039950D01*
X318279946Y-164411594D02*
X318279945Y-186743645D01*
X320981600Y-161709940D02*
X318279946Y-164411594D01*
X322820060Y-161709940D02*
X320981600Y-161709940D01*
X332920000Y-127260000D02*
X329020000Y-131160000D01*
X323009964Y-145884396D02*
X323009963Y-161520037D01*
X396456400Y-125488800D02*
X394775200Y-127170000D01*
X317983640Y-187039950D02*
X305709950Y-187039950D01*
X329020000Y-131160000D02*
X329020000Y-139874360D01*
X323009963Y-161520037D02*
X322820060Y-161709940D01*
X383780000Y-124770000D02*
X368490000Y-124770000D01*
X368490000Y-124770000D02*
X366000000Y-127260000D01*
X394775200Y-127170000D02*
X386180000Y-127170000D01*
X386180000Y-127170000D02*
X383780000Y-124770000D01*
X366000000Y-127260000D02*
X332920000Y-127260000D01*
X305709950Y-187039950D02*
X305247510Y-186577510D01*
X329020000Y-139874360D02*
X323009964Y-145884396D01*
X305922501Y-181541089D02*
X305922501Y-171405291D01*
X305247510Y-182216080D02*
X305922501Y-181541089D01*
X305247510Y-186577510D02*
X305247510Y-182216080D01*
X276222500Y-161532500D02*
X276632500Y-161532500D01*
X304347490Y-169830280D02*
X304538605Y-170021395D01*
X300648751Y-158020161D02*
X303390000Y-160761410D01*
X277859839Y-158020161D02*
X300648751Y-158020161D01*
X304340000Y-162930000D02*
X304347490Y-162937490D01*
X277027500Y-161532500D02*
X277650000Y-160910000D01*
X277650000Y-160910000D02*
X277650000Y-158230000D01*
X277650000Y-158230000D02*
X277859839Y-158020161D01*
X303390000Y-160761410D02*
X303390000Y-162570000D01*
X303390000Y-162570000D02*
X303750000Y-162930000D01*
X276222500Y-161532500D02*
X277027500Y-161532500D01*
X303750000Y-162930000D02*
X304340000Y-162930000D01*
X304347490Y-162937490D02*
X304347490Y-169830280D01*
X305922501Y-171405291D02*
X304538605Y-170021395D01*
X305858605Y-171341395D02*
X304538605Y-170021395D01*
X143785520Y-65450000D02*
X192510000Y-65450000D01*
X47622500Y-161532500D02*
X22362788Y-161532500D01*
X22362788Y-161532500D02*
X19300348Y-158470059D01*
X19300348Y-158470059D02*
X19319054Y-108605586D01*
X137290231Y-71945290D02*
X143785520Y-65450000D01*
X19319054Y-108605586D02*
X19319598Y-108605042D01*
X52685788Y-70809980D02*
X118244467Y-70809980D01*
X19319598Y-108605042D02*
X19319599Y-106447581D01*
X192510000Y-65450000D02*
X194100000Y-63860000D01*
X118244467Y-70809980D02*
X119379780Y-71945291D01*
X19319599Y-106447581D02*
X29607210Y-96159970D01*
X29607210Y-96159970D02*
X39760800Y-96159970D01*
X39760800Y-96159970D02*
X44369972Y-91550798D01*
X44369972Y-91550798D02*
X44369973Y-79125795D01*
X119379780Y-71945291D02*
X137290231Y-71945290D01*
X44369973Y-79125795D02*
X52685788Y-70809980D01*
%TO.N,row8*%
X105909999Y-176957499D02*
X109535000Y-180582500D01*
X75060001Y-176957499D02*
X105909999Y-176957499D01*
X71435000Y-180582500D02*
X75060001Y-176957499D01*
X144009999Y-176957499D02*
X147635000Y-180582500D01*
X113160001Y-176957499D02*
X144009999Y-176957499D01*
X109535000Y-180582500D02*
X113160001Y-176957499D01*
X151260001Y-176957499D02*
X182109999Y-176957499D01*
X182109999Y-176957499D02*
X185735000Y-180582500D01*
X147635000Y-180582500D02*
X151260001Y-176957499D01*
X220209999Y-176957499D02*
X223835000Y-180582500D01*
X189360001Y-176957499D02*
X220209999Y-176957499D01*
X185735000Y-180582500D02*
X189360001Y-176957499D01*
X304452349Y-180237349D02*
X304797500Y-180582500D01*
X360703749Y-138857499D02*
X364328750Y-142482500D01*
X323459972Y-161823618D02*
X323459973Y-146070797D01*
X304797500Y-180582500D02*
X304797500Y-184827460D01*
X329287510Y-142032490D02*
X332462501Y-138857499D01*
X323459973Y-146070797D02*
X327498280Y-142032490D01*
X318170040Y-187489960D02*
X318729954Y-186930046D01*
X327498280Y-142032490D02*
X329287510Y-142032490D01*
X323123640Y-162159950D02*
X323459972Y-161823618D01*
X318729954Y-186930046D02*
X318729955Y-164597995D01*
X332462501Y-138857499D02*
X360703749Y-138857499D01*
X318729955Y-164597995D02*
X321168000Y-162159950D01*
X321168000Y-162159950D02*
X323123640Y-162159950D01*
X304797500Y-186262500D02*
X304797500Y-180582500D01*
X305359960Y-187489960D02*
X307569960Y-187489960D01*
X304797500Y-186927500D02*
X305359960Y-187489960D01*
X307569960Y-187489960D02*
X318170040Y-187489960D01*
X307460000Y-187489960D02*
X307569960Y-187489960D01*
X304235039Y-187489961D02*
X304797500Y-186927500D01*
X289159990Y-184839990D02*
X289189990Y-184839990D01*
X281470000Y-181710000D02*
X286030000Y-181710000D01*
X286030000Y-181710000D02*
X289159990Y-184839990D01*
X278430000Y-178670000D02*
X281470000Y-181710000D01*
X289189990Y-184839990D02*
X293070375Y-188720375D01*
X293070375Y-188720375D02*
X294673985Y-188720375D01*
X294673985Y-188720375D02*
X295904399Y-187489961D01*
X295904399Y-187489961D02*
X304235039Y-187489961D01*
X261162798Y-178670000D02*
X261650000Y-178670000D01*
X260708399Y-178215601D02*
X261162798Y-178670000D01*
X260708399Y-173414401D02*
X260708399Y-178215601D01*
X261833400Y-172289400D02*
X260708399Y-173414401D01*
X259450297Y-176957499D02*
X260708399Y-178215601D01*
X196050000Y-62500000D02*
X196640000Y-63090000D01*
X194412091Y-62500000D02*
X196050000Y-62500000D01*
X196640000Y-63090000D02*
X196640000Y-63860000D01*
X146100960Y-62499040D02*
X194411131Y-62499040D01*
X194411131Y-62499040D02*
X194412091Y-62500000D01*
X143600010Y-64999990D02*
X146100960Y-62499040D01*
X143599120Y-64999990D02*
X143600010Y-64999990D01*
X118430865Y-70359970D02*
X119566179Y-71495282D01*
X43919964Y-78939394D02*
X52499388Y-70359970D01*
X43919963Y-91364397D02*
X43919964Y-78939394D01*
X52499388Y-70359970D02*
X118430865Y-70359970D01*
X48750000Y-176660000D02*
X43950000Y-176660000D01*
X29420809Y-95709961D02*
X39574400Y-95709960D01*
X43950000Y-176660000D02*
X40477510Y-180132490D01*
X39574400Y-95709960D02*
X43919963Y-91364397D01*
X40477510Y-180132490D02*
X20012490Y-180132490D01*
X52672500Y-180582500D02*
X48750000Y-176660000D01*
X20012490Y-180132490D02*
X18850030Y-178970030D01*
X119566179Y-71495282D02*
X137103830Y-71495281D01*
X18850030Y-178970030D02*
X18850030Y-159288464D01*
X71435000Y-180582500D02*
X52672500Y-180582500D01*
X18869588Y-106261182D02*
X29420809Y-95709961D01*
X137103830Y-71495281D02*
X143599120Y-64999990D01*
X18850030Y-159288464D02*
X18869115Y-108419115D01*
X18869115Y-108419115D02*
X18869588Y-108418642D01*
X18869588Y-108418642D02*
X18869588Y-106261182D01*
X261650000Y-178670000D02*
X278430000Y-178670000D01*
X304797500Y-186262500D02*
X304797500Y-186927500D01*
X226060001Y-178357499D02*
X223835000Y-180582500D01*
X227460001Y-176957499D02*
X226060001Y-178357499D01*
X259450297Y-176957499D02*
X227460001Y-176957499D01*
%TO.N,row10*%
X134484999Y-196007499D02*
X138110000Y-199632500D01*
X100010000Y-199632500D02*
X103635001Y-196007499D01*
X172584999Y-196007499D02*
X176210000Y-199632500D01*
X138110000Y-199632500D02*
X141735001Y-196007499D01*
X214310000Y-199632500D02*
X217935001Y-196007499D01*
X380133751Y-130037501D02*
X376772500Y-126676250D01*
X343042510Y-142932510D02*
X343990000Y-143880000D01*
X376320000Y-143880000D02*
X380133751Y-140066249D01*
X343990000Y-143880000D02*
X376320000Y-143880000D01*
X380133751Y-140066249D02*
X380133751Y-130037501D01*
X327871080Y-142932510D02*
X328272510Y-142932510D01*
X321540800Y-163059970D02*
X323547210Y-163059970D01*
X319629973Y-164970797D02*
X321540800Y-163059970D01*
X296277200Y-188389980D02*
X318720020Y-188389980D01*
X324359991Y-146443599D02*
X327871080Y-142932510D01*
X319629972Y-187480028D02*
X319629973Y-164970797D01*
X295109981Y-192133609D02*
X295109982Y-189557198D01*
X318720020Y-188389980D02*
X319629972Y-187480028D01*
X295109982Y-189557198D02*
X296277200Y-188389980D01*
X252333800Y-190921400D02*
X250400000Y-192855200D01*
X323547210Y-163059970D02*
X324359990Y-162247190D01*
X324359990Y-162247190D02*
X324359991Y-146443599D01*
X285738749Y-194551251D02*
X288163749Y-194551251D01*
X289395000Y-193320000D02*
X293923590Y-193320000D01*
X293923590Y-193320000D02*
X295109981Y-192133609D01*
X264230000Y-200490000D02*
X279800000Y-200490000D01*
X279800000Y-200490000D02*
X285738749Y-194551251D01*
X288163749Y-194551251D02*
X289395000Y-193320000D01*
X217935001Y-196007499D02*
X247247701Y-196007499D01*
X176210000Y-199632500D02*
X179835001Y-196007499D01*
X210684999Y-196007499D02*
X214310000Y-199632500D01*
X179835001Y-196007499D02*
X210684999Y-196007499D01*
X141735001Y-196007499D02*
X172584999Y-196007499D01*
X103635001Y-196007499D02*
X134484999Y-196007499D01*
X96384999Y-196007499D02*
X100010000Y-199632500D01*
X61910000Y-199632500D02*
X65535001Y-196007499D01*
X65535001Y-196007499D02*
X96384999Y-196007499D01*
X328272510Y-142932510D02*
X343042510Y-142932510D01*
D24*
X252232200Y-201281600D02*
X255498400Y-201281600D01*
X255498400Y-201281600D02*
X258040000Y-198740000D01*
X262480000Y-198740000D02*
X264230000Y-200490000D01*
X258040000Y-198740000D02*
X262480000Y-198740000D01*
X251309699Y-200359099D02*
X251309699Y-194220401D01*
X251309699Y-194220401D02*
X250197600Y-193108302D01*
X252232200Y-201281600D02*
X251309699Y-200359099D01*
D23*
X250197600Y-193057600D02*
X252333800Y-190921400D01*
D24*
X250197600Y-193108302D02*
X250197600Y-193057600D01*
D23*
X247247701Y-196007499D02*
X250197600Y-193057600D01*
D24*
X377753750Y-145313750D02*
X376320000Y-143880000D01*
X377753750Y-145726250D02*
X377753750Y-145313750D01*
D23*
X60361408Y-199632500D02*
X61910000Y-199632500D01*
X59566247Y-198837339D02*
X60361408Y-199632500D01*
X21680000Y-197683590D02*
X22833749Y-198837339D01*
X18250000Y-195750000D02*
X21350000Y-195750000D01*
X21680000Y-196080000D02*
X21680000Y-197683590D01*
X17940030Y-195440030D02*
X18250000Y-195750000D01*
X17940030Y-185896608D02*
X17940030Y-195440030D01*
X17969569Y-106340431D02*
X17969486Y-106340514D01*
X17969570Y-105888382D02*
X17969569Y-106340431D01*
X201720000Y-63860000D02*
X199459366Y-61599366D01*
X17969486Y-106340514D02*
X17969486Y-107360029D01*
X199459366Y-61599366D02*
X146095739Y-61595739D01*
X52126588Y-69459950D02*
X43019946Y-78566592D01*
X21350000Y-195750000D02*
X21680000Y-196080000D01*
X17955435Y-144829823D02*
X17940030Y-185896608D01*
X17969486Y-107360029D02*
X17955435Y-144829823D01*
X146095739Y-61595739D02*
X146095699Y-61595779D01*
X146095699Y-61595779D02*
X145730511Y-61595779D01*
X145730511Y-61595779D02*
X136731028Y-70595263D01*
X43019945Y-90991595D02*
X39201600Y-94809940D01*
X119938977Y-70595264D02*
X118803661Y-69459950D01*
X118803661Y-69459950D02*
X52126588Y-69459950D01*
X22833749Y-198837339D02*
X59566247Y-198837339D01*
X39201600Y-94809940D02*
X29048009Y-94809941D01*
X136731028Y-70595263D02*
X119938977Y-70595264D01*
X43019946Y-78566592D02*
X43019945Y-90991595D01*
X29048009Y-94809941D02*
X17969570Y-105888382D01*
%TO.N,row9*%
X89359999Y-181707501D02*
X90485000Y-180582500D01*
X48747501Y-181707501D02*
X89359999Y-181707501D01*
X47622500Y-180582500D02*
X48747501Y-181707501D01*
X127459999Y-181707501D02*
X128585000Y-180582500D01*
X91610001Y-181707501D02*
X127459999Y-181707501D01*
X90485000Y-180582500D02*
X91610001Y-181707501D01*
X165559999Y-181707501D02*
X166685000Y-180582500D01*
X129710001Y-181707501D02*
X165559999Y-181707501D01*
X128585000Y-180582500D02*
X129710001Y-181707501D01*
X203659999Y-181707501D02*
X204785000Y-180582500D01*
X167810001Y-181707501D02*
X203659999Y-181707501D01*
X166685000Y-180582500D02*
X167810001Y-181707501D01*
X241759999Y-181707501D02*
X242885000Y-180582500D01*
X205910001Y-181707501D02*
X241759999Y-181707501D01*
X204785000Y-180582500D02*
X205910001Y-181707501D01*
X259760300Y-180582500D02*
X261833400Y-182655600D01*
X242885000Y-180582500D02*
X259760300Y-180582500D01*
X323909982Y-146257198D02*
X327684680Y-142482500D01*
X323310040Y-162609960D02*
X323909981Y-162010019D01*
X321354400Y-162609960D02*
X323310040Y-162609960D01*
X319179964Y-164784396D02*
X321354400Y-162609960D01*
X319179963Y-187130037D02*
X319179964Y-164784396D01*
X327684680Y-142482500D02*
X327967500Y-142482500D01*
X318370030Y-187939970D02*
X319179963Y-187130037D01*
X292853975Y-189170385D02*
X294860385Y-189170385D01*
X285843600Y-182160010D02*
X292853975Y-189170385D01*
X323909981Y-162010019D02*
X323909982Y-146257198D01*
X281283600Y-182160010D02*
X285843600Y-182160010D01*
X294860385Y-189170385D02*
X296090800Y-187939970D01*
X296090800Y-187939970D02*
X318370030Y-187939970D01*
X261833400Y-182655600D02*
X263144400Y-182655600D01*
X263144400Y-182655600D02*
X264100000Y-181700000D01*
X264100000Y-179720000D02*
X264699990Y-179120010D01*
X264100000Y-181700000D02*
X264100000Y-179720000D01*
X278243600Y-179120010D02*
X281283600Y-182160010D01*
X264699990Y-179120010D02*
X278243600Y-179120010D01*
X145916912Y-62045788D02*
X146654212Y-62045788D01*
X136917429Y-71045272D02*
X145916912Y-62045788D01*
X119752578Y-71045273D02*
X136917429Y-71045272D01*
X52312988Y-69909960D02*
X118617263Y-69909960D01*
X118617263Y-69909960D02*
X119752578Y-71045273D01*
X47622500Y-180582500D02*
X19762520Y-180582500D01*
X18400020Y-179220000D02*
X18400020Y-159288663D01*
X199180000Y-62630000D02*
X199180000Y-63860000D01*
X19762520Y-180582500D02*
X18400020Y-179220000D01*
X198599316Y-62049316D02*
X199180000Y-62630000D01*
X146654212Y-62045788D02*
X198599316Y-62049316D01*
X18419579Y-106074781D02*
X29234410Y-95259950D01*
X18400020Y-159288663D02*
X18414572Y-120493158D01*
X18419510Y-107320041D02*
X18419510Y-107230490D01*
X18419510Y-107230490D02*
X18419578Y-107230422D01*
X18419578Y-107230422D02*
X18419579Y-106074781D01*
X29234410Y-95259950D02*
X39388000Y-95259950D01*
X39388000Y-95259950D02*
X43469954Y-91177996D01*
X43469954Y-91177996D02*
X43469955Y-78752993D01*
X18414572Y-120493158D02*
X18419510Y-107320041D01*
X43469955Y-78752993D02*
X52312988Y-69909960D01*
X327967500Y-142482500D02*
X345278750Y-142482500D01*
%TO.N,row12*%
X314322500Y-223445000D02*
X314605000Y-223445000D01*
X295272500Y-223722500D02*
X295819990Y-224269990D01*
X295272500Y-223445000D02*
X295272500Y-223722500D01*
X313497510Y-224269990D02*
X314322500Y-223445000D01*
X295819990Y-224269990D02*
X313497510Y-224269990D01*
X326228750Y-161651250D02*
X326228750Y-159151250D01*
X320529991Y-165343599D02*
X321913600Y-163959990D01*
X320529990Y-188000010D02*
X320529991Y-165343599D01*
X319240000Y-189290000D02*
X320529990Y-188000010D01*
X296010000Y-189930000D02*
X296650000Y-189290000D01*
X321913600Y-163959990D02*
X323920010Y-163959990D01*
X314322500Y-223445000D02*
X314322500Y-223167500D01*
X312203900Y-212889990D02*
X309359990Y-212889990D01*
X314322500Y-223167500D02*
X315510000Y-221980000D01*
X315510000Y-215167498D02*
X314692502Y-214350000D01*
X313663910Y-214350000D02*
X312203900Y-212889990D01*
X323920010Y-163959990D02*
X326228750Y-161651250D01*
X314692502Y-214350000D02*
X313663910Y-214350000D01*
X309359990Y-212889990D02*
X304670000Y-208200000D01*
X304670000Y-208200000D02*
X295830000Y-208200000D01*
X296650000Y-189290000D02*
X319240000Y-189290000D01*
X296010000Y-192506410D02*
X296010000Y-189930000D01*
X295830000Y-208200000D02*
X295680010Y-208050010D01*
X295680010Y-192836400D02*
X296010000Y-192506410D01*
X315510000Y-221980000D02*
X315510000Y-215167498D01*
X295680010Y-208050010D02*
X295680010Y-192836400D01*
D24*
X65715141Y-222525141D02*
X65794859Y-222525141D01*
D23*
X68435141Y-222525141D02*
X74735141Y-222525141D01*
X65715141Y-222525141D02*
X68435141Y-222525141D01*
D24*
X92150000Y-220520662D02*
X92150000Y-218000000D01*
X84184328Y-223784990D02*
X88885672Y-223784990D01*
X82929480Y-222530141D02*
X84184328Y-223784990D01*
X88885672Y-223784990D02*
X92150000Y-220520662D01*
X78820141Y-222530141D02*
X82929480Y-222530141D01*
X78815141Y-222525141D02*
X78820141Y-222530141D01*
X74735141Y-222525141D02*
X78815141Y-222525141D01*
X96630000Y-221300000D02*
X98840000Y-223510000D01*
X98840000Y-223510000D02*
X103880000Y-223510000D01*
X103880000Y-223510000D02*
X154483590Y-223510000D01*
D23*
X268263600Y-223459990D02*
X250049990Y-223459990D01*
X269970000Y-221753590D02*
X268263600Y-223459990D01*
X269970000Y-219690000D02*
X269970000Y-221753590D01*
X273010000Y-219690000D02*
X269970000Y-219690000D01*
X248480000Y-221890000D02*
X248480000Y-221870000D01*
X273010000Y-221723590D02*
X273010000Y-219690000D01*
X275556400Y-224269990D02*
X273010000Y-221723590D01*
X294447510Y-224269990D02*
X275556400Y-224269990D01*
X250049990Y-223459990D02*
X248480000Y-221890000D01*
X295272500Y-223445000D02*
X294447510Y-224269990D01*
X160720000Y-217273590D02*
X154483590Y-223510000D01*
X160864999Y-215568749D02*
X160720000Y-215713748D01*
X248480000Y-221870000D02*
X246890010Y-223459990D01*
X246890010Y-223459990D02*
X197839990Y-223459990D01*
X197839990Y-223459990D02*
X196653590Y-222273590D01*
X193941251Y-217438749D02*
X193930000Y-217450000D01*
X196653590Y-222273590D02*
X196653590Y-217503590D01*
X193930000Y-217450000D02*
X193930000Y-219257340D01*
X160720000Y-215713748D02*
X160720000Y-217273590D01*
X196653590Y-217503590D02*
X196588749Y-217438749D01*
X189677350Y-223509990D02*
X169377650Y-223509990D01*
X163298830Y-217431170D02*
X163298830Y-215678830D01*
X196588749Y-217438749D02*
X193941251Y-217438749D01*
X193930000Y-219257340D02*
X189677350Y-223509990D01*
X169377650Y-223509990D02*
X163298830Y-217431170D01*
X163188749Y-215568749D02*
X160864999Y-215568749D01*
X163298830Y-215678830D02*
X163188749Y-215568749D01*
X96350000Y-216730000D02*
X96632500Y-217012500D01*
X92150000Y-216730000D02*
X96350000Y-216730000D01*
X96632500Y-217012500D02*
X96632500Y-221298965D01*
X92150000Y-218000000D02*
X92150000Y-216730000D01*
X145679311Y-60695690D02*
X203639648Y-60699632D01*
X136358226Y-69695245D02*
X145357777Y-60695694D01*
X119176459Y-68559930D02*
X120311775Y-69695246D01*
X145357777Y-60695694D02*
X145679306Y-60695694D01*
X42119926Y-90618794D02*
X42119928Y-78193790D01*
X203639648Y-60699632D02*
X206800000Y-63859984D01*
X28738800Y-93909920D02*
X38828800Y-93909920D01*
X206800000Y-63859984D02*
X206800000Y-63860000D01*
X28679786Y-93912420D02*
X28736300Y-93912420D01*
X38828800Y-93909920D02*
X42119926Y-90618794D01*
X23731551Y-222525141D02*
X21260000Y-220053590D01*
X120311775Y-69695246D02*
X136358226Y-69695245D01*
X21260000Y-215330000D02*
X21255001Y-215334999D01*
X65715141Y-222525141D02*
X23731551Y-222525141D01*
X17040010Y-214590010D02*
X17040010Y-185896813D01*
X21255001Y-215334999D02*
X21255001Y-214959999D01*
X51753788Y-68559930D02*
X119176459Y-68559930D01*
X21260000Y-220053590D02*
X21260000Y-215330000D01*
X21255001Y-214959999D02*
X21190001Y-214894999D01*
X145679306Y-60695694D02*
X145679311Y-60695690D01*
X42119928Y-78193790D02*
X51753788Y-68559930D01*
X17069968Y-106030032D02*
X17071966Y-106028034D01*
X21190001Y-214894999D02*
X17344999Y-214894999D01*
X17071967Y-105520239D02*
X28679786Y-93912420D01*
X17344999Y-214894999D02*
X17040010Y-214590010D01*
X17040010Y-185896813D02*
X17069968Y-106030032D01*
X28736300Y-93912420D02*
X28738800Y-93909920D01*
X17071966Y-106028034D02*
X17071967Y-105520239D01*
%TO.N,row11*%
X20300000Y-196940000D02*
X18500020Y-196940000D01*
X18000000Y-196940000D02*
X17490020Y-196430020D01*
X17490020Y-196430020D02*
X17490020Y-189730000D01*
X17490020Y-185896750D02*
X17493006Y-177936994D01*
X17493006Y-177936994D02*
X17495572Y-171094428D01*
X17495572Y-171094428D02*
X17502355Y-153010057D01*
X17502355Y-153010057D02*
X17505495Y-144643256D01*
X17505495Y-144643256D02*
X17514692Y-120120024D01*
X17514692Y-120120024D02*
X17517505Y-112620017D01*
X17517505Y-112620017D02*
X17519476Y-107365888D01*
D24*
X17519476Y-105705604D02*
X17519476Y-107365888D01*
X28865150Y-94359930D02*
X17519476Y-105705604D01*
X28925200Y-94359930D02*
X28865150Y-94359930D01*
D23*
X79571391Y-200757501D02*
X80509991Y-199818901D01*
X60849999Y-200757501D02*
X79571391Y-200757501D01*
X80509991Y-199818901D02*
X80509991Y-199632500D01*
X59379847Y-199287349D02*
X60849999Y-200757501D01*
X22647349Y-199287349D02*
X59379847Y-199287349D01*
X20300000Y-196940000D02*
X22647349Y-199287349D01*
X117934999Y-200757501D02*
X119060000Y-199632500D01*
X82085001Y-200757501D02*
X117934999Y-200757501D01*
X80960000Y-199632500D02*
X82085001Y-200757501D01*
X156034999Y-200757501D02*
X157160000Y-199632500D01*
X120185001Y-200757501D02*
X156034999Y-200757501D01*
X119060000Y-199632500D02*
X120185001Y-200757501D01*
X194134999Y-200757501D02*
X195260000Y-199632500D01*
X158285001Y-200757501D02*
X194134999Y-200757501D01*
X157160000Y-199632500D02*
X158285001Y-200757501D01*
X232234999Y-200757501D02*
X233360000Y-199632500D01*
X196385001Y-200757501D02*
X232234999Y-200757501D01*
X195260000Y-199632500D02*
X196385001Y-200757501D01*
X233360000Y-199632500D02*
X233360000Y-200030000D01*
X320079982Y-165157198D02*
X321727200Y-163509980D01*
X319053600Y-188839990D02*
X320079981Y-187813609D01*
X295559991Y-189743599D02*
X296463600Y-188839990D01*
X328057480Y-143382520D02*
X342856110Y-143382520D01*
X320079981Y-187813609D02*
X320079982Y-165157198D01*
X296463600Y-188839990D02*
X319053600Y-188839990D01*
X295559990Y-192320010D02*
X295559991Y-189743599D01*
X294109990Y-193770010D02*
X295559990Y-192320010D01*
X291850000Y-193880000D02*
X291959990Y-193770010D01*
X342856110Y-143382520D02*
X343803600Y-144330010D01*
X291959990Y-193770010D02*
X294109990Y-193770010D01*
X343803600Y-144330010D02*
X365312350Y-144330010D01*
X291850000Y-196870000D02*
X291850000Y-193880000D01*
X291350000Y-197370000D02*
X291850000Y-196870000D01*
X321727200Y-163509980D02*
X323733610Y-163509980D01*
X290510000Y-197370000D02*
X291350000Y-197370000D01*
X323733610Y-163509980D02*
X324809999Y-162433589D01*
X324809999Y-162433589D02*
X324810000Y-158340000D01*
X324810000Y-158340000D02*
X324810000Y-146630000D01*
X324810000Y-146630000D02*
X328057480Y-143382520D01*
X136544627Y-70145254D02*
X145544178Y-61145703D01*
X120125376Y-70145255D02*
X136544627Y-70145254D01*
X145730074Y-61145703D02*
X145730089Y-61145718D01*
X51940188Y-69009940D02*
X118990059Y-69009940D01*
X145950691Y-61145718D02*
X201549500Y-61149499D01*
X145730089Y-61145718D02*
X145950691Y-61145718D01*
X42569937Y-78380191D02*
X51940188Y-69009940D01*
X42569935Y-90805195D02*
X42569937Y-78380191D01*
X39015200Y-94359930D02*
X42569935Y-90805195D01*
X145544178Y-61145703D02*
X145730074Y-61145703D01*
X118990059Y-69009940D02*
X120125376Y-70145255D01*
X28925200Y-94359930D02*
X39015200Y-94359930D01*
X203410001Y-63010001D02*
X204260000Y-63860000D01*
X201549500Y-61149499D02*
X203410001Y-63010001D01*
X17490020Y-189730000D02*
X17490020Y-185896750D01*
X18500020Y-196940000D02*
X18000000Y-196940000D01*
D24*
X233360000Y-199632500D02*
X233360000Y-200870000D01*
X233360000Y-200870000D02*
X237160000Y-204670000D01*
X237160000Y-204670000D02*
X285600000Y-204670000D01*
X290510000Y-199760000D02*
X290510000Y-197370000D01*
X285600000Y-204670000D02*
X290510000Y-199760000D01*
D23*
X380550000Y-156973200D02*
X382204000Y-158627200D01*
X380550000Y-154430000D02*
X380550000Y-156973200D01*
X379650000Y-153530000D02*
X380550000Y-154430000D01*
X376800000Y-153530000D02*
X379650000Y-153530000D01*
X365312350Y-144330010D02*
X371632340Y-150650000D01*
X403920000Y-145520000D02*
X403920000Y-131673800D01*
X403920000Y-131673800D02*
X402828800Y-130582600D01*
X395840000Y-153600000D02*
X403920000Y-145520000D01*
X395840000Y-157770000D02*
X395840000Y-153600000D01*
X393850000Y-159760000D02*
X395840000Y-157770000D01*
X384150000Y-159760000D02*
X393850000Y-159760000D01*
D24*
X373920000Y-150650000D02*
X371632340Y-150650000D01*
X376800000Y-153530000D02*
X373920000Y-150650000D01*
X383120000Y-158730000D02*
X382306800Y-158730000D01*
X382306800Y-158730000D02*
X382204000Y-158627200D01*
D23*
X383120000Y-158730000D02*
X384150000Y-159760000D01*
%TO.N,row13*%
X190848599Y-222975151D02*
X195260000Y-218563750D01*
X332097500Y-224720000D02*
X333372500Y-223445000D01*
X320980000Y-165530000D02*
X322100000Y-164410000D01*
X322100000Y-164410000D02*
X359070000Y-164410000D01*
X359070000Y-164410000D02*
X364328750Y-159151250D01*
X298165000Y-204395000D02*
X314322500Y-204395000D01*
X296130020Y-204799980D02*
X296535000Y-204395000D01*
X296130020Y-207740020D02*
X296130020Y-204799980D01*
X296139990Y-207749990D02*
X296130020Y-207740020D01*
X304856400Y-207749990D02*
X296139990Y-207749990D01*
X333372500Y-223445000D02*
X333372500Y-223297500D01*
X312390300Y-212439980D02*
X309546390Y-212439980D01*
X334520000Y-214670000D02*
X334300000Y-214450000D01*
X334300000Y-214450000D02*
X332813910Y-214450000D01*
X328750000Y-212889990D02*
X327540010Y-211680000D01*
X309546390Y-212439980D02*
X304856400Y-207749990D01*
X324144008Y-213899990D02*
X313850310Y-213899990D01*
X333372500Y-223297500D02*
X334520000Y-222150000D01*
X332813910Y-214450000D02*
X331253900Y-212889990D01*
X327540010Y-211680000D02*
X326363998Y-211680000D01*
X313850310Y-213899990D02*
X312390300Y-212439980D01*
X334520000Y-222150000D02*
X334520000Y-214670000D01*
X331253900Y-212889990D02*
X328750000Y-212889990D01*
X326363998Y-211680000D02*
X324144008Y-213899990D01*
X314322500Y-204395000D02*
X315125000Y-204395000D01*
X315125000Y-204395000D02*
X315720000Y-203800000D01*
X315720000Y-191000000D02*
X316979990Y-189740010D01*
X315720000Y-203800000D02*
X315720000Y-191000000D01*
X319426401Y-189740009D02*
X320979999Y-188186409D01*
X316979990Y-189740010D02*
X319426401Y-189740009D01*
X320979999Y-188186409D02*
X320979999Y-165530001D01*
X16590000Y-215611231D02*
X16998769Y-216020000D01*
X205729765Y-60249765D02*
X209340000Y-63860000D01*
X41669919Y-78007389D02*
X41669917Y-90432393D01*
X16998769Y-216020000D02*
X20130000Y-216020000D01*
X41669917Y-90432393D02*
X38642400Y-93459910D01*
X136171825Y-69245236D02*
X120498175Y-69245236D01*
X145171376Y-60245685D02*
X136171825Y-69245236D01*
X120498175Y-69245236D02*
X119362859Y-68109920D01*
X16621958Y-105333838D02*
X16621957Y-105798043D01*
X145866920Y-60245686D02*
X145171376Y-60245685D01*
X16620045Y-105799955D02*
X16590000Y-185897051D01*
X145866928Y-60245694D02*
X145866920Y-60245686D01*
X203826062Y-60249635D02*
X145866928Y-60245694D01*
X203826191Y-60249765D02*
X203826062Y-60249635D01*
X28495886Y-93459910D02*
X16621958Y-105333838D01*
X51567388Y-68109920D02*
X41669919Y-78007389D01*
X119362859Y-68109920D02*
X51567388Y-68109920D01*
X205729765Y-60249765D02*
X203826191Y-60249765D01*
X38642400Y-93459910D02*
X28495886Y-93459910D01*
X16621957Y-105798043D02*
X16620045Y-105799955D01*
X16590000Y-185897051D02*
X16590000Y-215611231D01*
X296535000Y-204395000D02*
X298165000Y-204395000D01*
X189863750Y-223960000D02*
X190848599Y-222975151D01*
X169191250Y-223960000D02*
X189863750Y-223960000D01*
X161925000Y-216693750D02*
X169191250Y-223960000D01*
X20130000Y-216320000D02*
X20130000Y-216020000D01*
X20809990Y-216999990D02*
X20130000Y-216320000D01*
X23545151Y-222975151D02*
X20809991Y-220239991D01*
X67660009Y-222975151D02*
X23545151Y-222975151D01*
X20809991Y-220239991D02*
X20809990Y-216999990D01*
X161925000Y-216693750D02*
X161925000Y-216705000D01*
X161925000Y-216705000D02*
X155690000Y-222940000D01*
D24*
X84000000Y-224230000D02*
X89070000Y-224230000D01*
X82745151Y-222975151D02*
X84000000Y-224230000D01*
X67660009Y-222975151D02*
X82745151Y-222975151D01*
X98658170Y-223957509D02*
X154672491Y-223957509D01*
X96184990Y-221484329D02*
X98658170Y-223957509D01*
X96184990Y-218974990D02*
X96184990Y-221484329D01*
X95290000Y-218080000D02*
X96184990Y-218974990D01*
X154672491Y-223957509D02*
X155690000Y-222940000D01*
X95290000Y-218010000D02*
X95290000Y-218080000D01*
D23*
X197590000Y-223910000D02*
X268450000Y-223910000D01*
X196139990Y-222459990D02*
X197590000Y-223910000D01*
X196139990Y-219443740D02*
X196139990Y-222459990D01*
X268450000Y-223910000D02*
X271510000Y-220850000D01*
X195260000Y-218563750D02*
X196139990Y-219443740D01*
X271510000Y-220850000D02*
X271510000Y-220860000D01*
X275370000Y-224720000D02*
X332097500Y-224720000D01*
X271510000Y-220860000D02*
X275370000Y-224720000D01*
X89070000Y-224230000D02*
X89080000Y-224230000D01*
X89080000Y-224230000D02*
X93680000Y-219630000D01*
X93680000Y-219630000D02*
X93680000Y-218340000D01*
X94010000Y-218010000D02*
X95290000Y-218010000D01*
X93680000Y-218340000D02*
X94010000Y-218010000D01*
%TO.N,col1*%
X220120000Y-63780000D02*
X220190000Y-63850000D01*
X220120000Y-61250000D02*
X220120000Y-63780000D01*
%TO.N,col2*%
X222610000Y-63730000D02*
X222730000Y-63850000D01*
X222620000Y-63740000D02*
X222730000Y-63850000D01*
X222620000Y-61660000D02*
X222620000Y-63740000D01*
D24*
%TO.N,col3*%
X139062500Y-209861250D02*
X139138750Y-209861250D01*
D23*
%TO.N,col4*%
X186687500Y-76511250D02*
X194323750Y-68875000D01*
X194323750Y-68875000D02*
X223675000Y-68875000D01*
X223675000Y-68875000D02*
X227275000Y-65275000D01*
X227275000Y-64385000D02*
X227810000Y-63850000D01*
X227275000Y-65275000D02*
X227275000Y-64385000D01*
%TO.N,row4*%
X91622499Y-138857499D02*
X95247500Y-142482500D01*
X60772501Y-138857499D02*
X91622499Y-138857499D01*
X57147500Y-142482500D02*
X60772501Y-138857499D01*
X129722499Y-138857499D02*
X133347500Y-142482500D01*
X98872501Y-138857499D02*
X129722499Y-138857499D01*
X95247500Y-142482500D02*
X98872501Y-138857499D01*
X167485151Y-138520151D02*
X171447500Y-142482500D01*
X137309849Y-138520151D02*
X167485151Y-138520151D01*
X133347500Y-142482500D02*
X137309849Y-138520151D01*
X205922499Y-138857499D02*
X209547500Y-142482500D01*
X175072501Y-138857499D02*
X205922499Y-138857499D01*
X171447500Y-142482500D02*
X175072501Y-138857499D01*
X244022499Y-138857499D02*
X247647500Y-142482500D01*
X213172501Y-138857499D02*
X244022499Y-138857499D01*
X209547500Y-142482500D02*
X213172501Y-138857499D01*
D24*
X360426250Y-119530000D02*
X364328750Y-123432500D01*
X340655010Y-122984990D02*
X344110000Y-119530000D01*
X344110000Y-119530000D02*
X360426250Y-119530000D01*
X327672473Y-130601833D02*
X335289316Y-122984990D01*
X321662435Y-146747565D02*
X321662435Y-145326231D01*
X321662435Y-145326231D02*
X327672472Y-139316194D01*
X327672472Y-139316194D02*
X327672473Y-130601833D01*
X335289316Y-122984990D02*
X340655010Y-122984990D01*
X321657510Y-146752490D02*
X321662435Y-146747565D01*
D23*
X137849434Y-73295317D02*
X144344720Y-66800030D01*
X129676400Y-76410010D02*
X132791092Y-73295318D01*
X122283590Y-73300000D02*
X125393600Y-76410010D01*
X118825263Y-73300000D02*
X122283590Y-73300000D01*
X132791092Y-73295318D02*
X137849434Y-73295317D01*
X53234998Y-72170000D02*
X117695263Y-72170000D01*
X117695263Y-72170000D02*
X118825263Y-73300000D01*
X20656595Y-141896594D02*
X20668871Y-109164999D01*
X35207499Y-138857499D02*
X32032508Y-142032490D01*
X144344720Y-66800030D02*
X178459970Y-66800030D01*
X57147500Y-142482500D02*
X53522499Y-138857499D01*
X53522499Y-138857499D02*
X35207499Y-138857499D01*
X45720000Y-79684998D02*
X53234998Y-72170000D01*
X125393600Y-76410010D02*
X129676400Y-76410010D01*
X32032508Y-142032490D02*
X20792490Y-142032490D01*
X20792490Y-142032490D02*
X20656595Y-141896594D01*
X30230000Y-97510000D02*
X40320000Y-97510000D01*
X20668871Y-109164999D02*
X20669628Y-109164242D01*
X20669628Y-109164242D02*
X20669628Y-107070372D01*
X20669628Y-107070372D02*
X30230000Y-97510000D01*
X40320000Y-97510000D02*
X45720000Y-92110000D01*
X45720000Y-92110000D02*
X45720000Y-79684998D01*
X307590000Y-143550000D02*
X307590000Y-142500000D01*
X321659935Y-146747565D02*
X321659935Y-160359910D01*
X321659935Y-160359910D02*
X320422400Y-160359910D01*
X305247510Y-145892490D02*
X307590000Y-143550000D01*
X306372511Y-169946072D02*
X306372511Y-152976101D01*
X320422400Y-160359910D02*
X316929919Y-163852391D01*
X307272530Y-170846091D02*
X306372511Y-169946072D01*
X306619920Y-185689920D02*
X306610020Y-185680020D01*
X316929917Y-185689920D02*
X306619920Y-185689920D01*
X306372511Y-152976101D02*
X305247510Y-151851100D01*
X305247510Y-151851100D02*
X305247510Y-145892490D01*
X316929919Y-163852391D02*
X316929917Y-185689920D01*
X306610020Y-185680020D02*
X306610020Y-182762800D01*
X306610020Y-182762800D02*
X307272530Y-182100288D01*
X307272530Y-182100288D02*
X307272530Y-170846091D01*
X184845010Y-66800030D02*
X185120000Y-67075020D01*
X178459970Y-66800030D02*
X184845010Y-66800030D01*
X303947499Y-138857499D02*
X307590000Y-142500000D01*
X251272501Y-138857499D02*
X303947499Y-138857499D01*
X247647500Y-142482500D02*
X251272501Y-138857499D01*
D24*
%TO.N,GND*%
X234430000Y-67310000D02*
X225872874Y-67310000D01*
X223582874Y-69600000D02*
X219900000Y-69600000D01*
X225872874Y-67310000D02*
X223582874Y-69600000D01*
D23*
%TO.N,Net-(J1-Pad1)*%
X171100000Y-64000000D02*
X171240000Y-63860000D01*
D24*
%TO.N,Net-(D17-Pad2)*%
X297340000Y-87460000D02*
X297270000Y-87530000D01*
D23*
X297270000Y-82540000D02*
X297270000Y-87530000D01*
X297350000Y-82460000D02*
X297270000Y-82540000D01*
%TO.N,Net-(D50-Pad2)*%
X307360000Y-87490000D02*
X307360000Y-86994998D01*
D24*
X307370000Y-87480000D02*
X307360000Y-87490000D01*
X307370000Y-83820000D02*
X307370000Y-87480000D01*
D23*
%TO.N,Net-(D52-Pad2)*%
X317520000Y-87490000D02*
X317520000Y-86994998D01*
D24*
X317520000Y-83850000D02*
X317520000Y-87490000D01*
%TO.N,Net-(D75-Pad2)*%
X81081250Y-207902250D02*
X92982250Y-207902250D01*
X95290000Y-210210000D02*
X92982250Y-207902250D01*
D23*
X81120250Y-207321250D02*
X81121250Y-207322250D01*
X69215000Y-207321250D02*
X81120250Y-207321250D01*
%TO.N,Net-(space1-Pad2)*%
X151922350Y-207321250D02*
X152240545Y-207639445D01*
X138268750Y-207321250D02*
X151922350Y-207321250D01*
%TO.N,NumLock*%
X247780000Y-71120000D02*
X240510000Y-63850000D01*
X289300000Y-71120000D02*
X247780000Y-71120000D01*
D24*
X293700000Y-71120000D02*
X289300000Y-71120000D01*
D23*
X297340000Y-74760000D02*
X293700000Y-71120000D01*
X297340000Y-76060000D02*
X297340000Y-74760000D01*
%TO.N,CapsLock*%
X297409990Y-70669990D02*
X249869990Y-70669990D01*
X249869990Y-70669990D02*
X243050000Y-63850000D01*
D24*
X307380000Y-75725000D02*
X302322490Y-70667490D01*
X307380000Y-77420000D02*
X307380000Y-75725000D01*
X297412490Y-70667490D02*
X297409990Y-70669990D01*
X302322490Y-70667490D02*
X297412490Y-70667490D01*
%TO.N,ScrollLock*%
X251962480Y-70222480D02*
X245590000Y-63850000D01*
X313342480Y-70222480D02*
X251962480Y-70222480D01*
X317530000Y-74410000D02*
X313342480Y-70222480D01*
X317530000Y-77450000D02*
X317530000Y-74410000D01*
%TD*%
M02*
