%TF.GenerationSoftware,KiCad,Pcbnew,5.1.9+dfsg1-1*%
%TF.CreationDate,2022-02-11T04:52:15+01:00*%
%TF.ProjectId,va11800,76613131-3830-4302-9e6b-696361645f70,rev?*%
%TF.SameCoordinates,Original*%
%TF.FileFunction,Copper,L2,Bot*%
%TF.FilePolarity,Positive*%
%FSLAX46Y46*%
G04 Gerber Fmt 4.6, Leading zero omitted, Abs format (unit mm)*
G04 Created by KiCad (PCBNEW 5.1.9+dfsg1-1) date 2022-02-11 04:52:15*
%MOMM*%
%LPD*%
G01*
G04 APERTURE LIST*
%TA.AperFunction,ComponentPad*%
%ADD10C,2.250000*%
%TD*%
%TA.AperFunction,ComponentPad*%
%ADD11R,1.600000X1.600000*%
%TD*%
%TA.AperFunction,ComponentPad*%
%ADD12C,1.600000*%
%TD*%
%TA.AperFunction,ComponentPad*%
%ADD13R,1.800000X1.800000*%
%TD*%
%TA.AperFunction,ComponentPad*%
%ADD14C,1.800000*%
%TD*%
%TA.AperFunction,ComponentPad*%
%ADD15C,1.524000*%
%TD*%
%TA.AperFunction,SMDPad,CuDef*%
%ADD16R,0.500000X2.900000*%
%TD*%
%TA.AperFunction,SMDPad,CuDef*%
%ADD17R,1.200000X1.600000*%
%TD*%
%TA.AperFunction,ComponentPad*%
%ADD18O,1.700000X1.700000*%
%TD*%
%TA.AperFunction,ComponentPad*%
%ADD19R,1.700000X1.700000*%
%TD*%
%TA.AperFunction,SMDPad,CuDef*%
%ADD20R,25.000000X5.000000*%
%TD*%
%TA.AperFunction,SMDPad,CuDef*%
%ADD21O,3.000000X3.000000*%
%TD*%
%TA.AperFunction,ViaPad*%
%ADD22C,0.800000*%
%TD*%
%TA.AperFunction,Conductor*%
%ADD23C,0.250000*%
%TD*%
%TA.AperFunction,Conductor*%
%ADD24C,0.245000*%
%TD*%
G04 APERTURE END LIST*
D10*
%TO.P,f5,2*%
%TO.N,Net-(D6-Pad2)*%
X145412500Y-73971250D03*
%TO.P,f5,1*%
%TO.N,col3*%
X139062500Y-76511250D03*
%TD*%
%TO.P,pause1,2*%
%TO.N,Net-(D12-Pad2)*%
X278762500Y-73971250D03*
%TO.P,pause1,1*%
%TO.N,col6*%
X272412500Y-76511250D03*
%TD*%
%TO.P,f4,2*%
%TO.N,Net-(D5-Pad2)*%
X126362500Y-73971250D03*
%TO.P,f4,1*%
%TO.N,col2*%
X120012500Y-76511250D03*
%TD*%
%TO.P,f10,2*%
%TO.N,Net-(D21-Pad2)*%
X126362500Y-93021250D03*
%TO.P,f10,1*%
%TO.N,col2*%
X120012500Y-95561250D03*
%TD*%
%TO.P,f9,2*%
%TO.N,Net-(D20-Pad2)*%
X107312500Y-93021250D03*
%TO.P,f9,1*%
%TO.N,col2*%
X100962500Y-95561250D03*
%TD*%
%TO.P,kp_8,1*%
%TO.N,col7*%
X350993750Y-95561250D03*
%TO.P,kp_8,2*%
%TO.N,Net-(D29-Pad2)*%
X357343750Y-93021250D03*
%TD*%
%TO.P,kp_1,1*%
%TO.N,col8*%
X331943750Y-133661250D03*
%TO.P,kp_1,2*%
%TO.N,Net-(D54-Pad2)*%
X338293750Y-131121250D03*
%TD*%
%TO.P,n7,1*%
%TO.N,col3*%
X158112500Y-133661250D03*
%TO.P,n7,2*%
%TO.N,Net-(D44-Pad2)*%
X164462500Y-131121250D03*
%TD*%
%TO.P,grave1,1*%
%TO.N,col0*%
X24762500Y-133661250D03*
%TO.P,grave1,2*%
%TO.N,Net-(D37-Pad2)*%
X31112500Y-131121250D03*
%TD*%
%TO.P,left_shift2,1*%
%TO.N,col0*%
X27143750Y-190811250D03*
%TO.P,left_shift2,2*%
%TO.N,Net-(D94-Pad2)*%
X33493750Y-188271250D03*
%TD*%
%TO.P,left_shift1,1*%
%TO.N,col0*%
X36668750Y-190811250D03*
%TO.P,left_shift1,2*%
%TO.N,Net-(D94-Pad2)*%
X43018750Y-188271250D03*
%TD*%
%TO.P,stepped_capslock1,1*%
%TO.N,col0*%
X27143750Y-171761250D03*
%TO.P,stepped_capslock1,2*%
%TO.N,Net-(D76-Pad2)*%
X33493750Y-169221250D03*
%TD*%
%TO.P,capslock1,1*%
%TO.N,col0*%
X31906250Y-171761250D03*
%TO.P,capslock1,2*%
%TO.N,Net-(D76-Pad2)*%
X38256250Y-169221250D03*
%TD*%
%TO.P,tab1,1*%
%TO.N,col0*%
X29525000Y-152711250D03*
%TO.P,tab1,2*%
%TO.N,Net-(D58-Pad2)*%
X35875000Y-150171250D03*
%TD*%
D11*
%TO.P,D1,1*%
%TO.N,row0*%
X47050000Y-87820000D03*
D12*
%TO.P,D1,2*%
%TO.N,Net-(D1-Pad2)*%
X47050000Y-80020000D03*
%TD*%
D13*
%TO.P,D52,1*%
%TO.N,GND*%
X315630000Y-87490000D03*
D14*
%TO.P,D52,2*%
%TO.N,Net-(D52-Pad2)*%
X317520000Y-87490000D03*
%TD*%
D13*
%TO.P,D50,1*%
%TO.N,GND*%
X305470000Y-87490000D03*
D14*
%TO.P,D50,2*%
%TO.N,Net-(D50-Pad2)*%
X307360000Y-87490000D03*
%TD*%
D13*
%TO.P,D17,1*%
%TO.N,GND*%
X295380000Y-87530000D03*
D14*
%TO.P,D17,2*%
%TO.N,Net-(D17-Pad2)*%
X297270000Y-87530000D03*
%TD*%
D15*
%TO.P,R3,2*%
%TO.N,ScrollLock*%
X317520000Y-76050000D03*
%TO.P,R3,1*%
%TO.N,Net-(D52-Pad2)*%
X317530000Y-83770000D03*
D16*
X317530000Y-82450000D03*
%TO.P,R3,2*%
%TO.N,ScrollLock*%
X317530000Y-77450000D03*
D17*
X317530000Y-78550000D03*
%TO.P,R3,1*%
%TO.N,Net-(D52-Pad2)*%
X317530000Y-81350000D03*
%TD*%
D15*
%TO.P,R2,2*%
%TO.N,CapsLock*%
X307370000Y-76020000D03*
%TO.P,R2,1*%
%TO.N,Net-(D50-Pad2)*%
X307380000Y-83740000D03*
D16*
X307380000Y-82420000D03*
%TO.P,R2,2*%
%TO.N,CapsLock*%
X307380000Y-77420000D03*
D17*
X307380000Y-78520000D03*
%TO.P,R2,1*%
%TO.N,Net-(D50-Pad2)*%
X307380000Y-81320000D03*
%TD*%
D15*
%TO.P,R1,2*%
%TO.N,NumLock*%
X297340000Y-76060000D03*
%TO.P,R1,1*%
%TO.N,Net-(D17-Pad2)*%
X297350000Y-83780000D03*
D16*
X297350000Y-82460000D03*
%TO.P,R1,2*%
%TO.N,NumLock*%
X297350000Y-77460000D03*
D17*
X297350000Y-78560000D03*
%TO.P,R1,1*%
%TO.N,Net-(D17-Pad2)*%
X297350000Y-81360000D03*
%TD*%
D10*
%TO.P,left1,1*%
%TO.N,col7*%
X282308000Y-215772000D03*
%TO.P,left1,2*%
%TO.N,Net-(D116-Pad2)*%
X288658000Y-213232000D03*
%TD*%
%TO.P,R_mod3_1U1,2*%
%TO.N,Net-(D124-Pad2)*%
X259715000Y-207321250D03*
%TO.P,R_mod3_1U1,1*%
%TO.N,col6*%
X253365000Y-209861250D03*
%TD*%
%TO.P,R_mod2_1U1,2*%
%TO.N,Net-(D118-Pad2)*%
X240665000Y-207321250D03*
%TO.P,R_mod2_1U1,1*%
%TO.N,col5*%
X234315000Y-209861250D03*
%TD*%
%TO.P,R_mod1_1U1,2*%
%TO.N,Net-(D117-Pad2)*%
X221615000Y-207321350D03*
%TO.P,R_mod1_1U1,1*%
%TO.N,col5*%
X215265000Y-209861350D03*
%TD*%
%TO.P,L_mod3_1U1,2*%
%TO.N,Net-(D75-Pad2)*%
X69215000Y-207321250D03*
%TO.P,L_mod3_1U1,1*%
%TO.N,col1*%
X62865000Y-209861250D03*
%TD*%
%TO.P,lm21u1,2*%
%TO.N,Net-(D122-Pad2)*%
X50165000Y-207321250D03*
%TO.P,lm21u1,1*%
%TO.N,col0*%
X43815000Y-209861250D03*
%TD*%
%TO.P,lm1u1,2*%
%TO.N,Net-(D121-Pad2)*%
X31115000Y-207321250D03*
%TO.P,lm1u1,1*%
%TO.N,col0*%
X24765000Y-209861250D03*
%TD*%
D11*
%TO.P,D124,1*%
%TO.N,row13*%
X271510000Y-220850000D03*
D12*
%TO.P,D124,2*%
%TO.N,Net-(D124-Pad2)*%
X271510000Y-213050000D03*
%TD*%
D11*
%TO.P,D122,1*%
%TO.N,row12*%
X92150000Y-218000000D03*
D12*
%TO.P,D122,2*%
%TO.N,Net-(D122-Pad2)*%
X92150000Y-210200000D03*
%TD*%
D11*
%TO.P,D121,1*%
%TO.N,row13*%
X20130000Y-216020000D03*
D12*
%TO.P,D121,2*%
%TO.N,Net-(D121-Pad2)*%
X20130000Y-208220000D03*
%TD*%
D11*
%TO.P,D120,1*%
%TO.N,row13*%
X161925000Y-216693750D03*
D12*
%TO.P,D120,2*%
%TO.N,Net-(D120-Pad2)*%
X161925000Y-208893750D03*
%TD*%
D11*
%TO.P,D118,1*%
%TO.N,row12*%
X248480000Y-221870000D03*
D12*
%TO.P,D118,2*%
%TO.N,Net-(D118-Pad2)*%
X240680000Y-221870000D03*
%TD*%
D11*
%TO.P,D117,1*%
%TO.N,row13*%
X195260000Y-218563750D03*
D12*
%TO.P,D117,2*%
%TO.N,Net-(D117-Pad2)*%
X195260000Y-210763750D03*
%TD*%
D11*
%TO.P,D116,1*%
%TO.N,row12*%
X295272500Y-223445000D03*
D12*
%TO.P,D116,2*%
%TO.N,Net-(D116-Pad2)*%
X295272500Y-215645000D03*
%TD*%
D11*
%TO.P,D115,1*%
%TO.N,row12*%
X314322500Y-223445000D03*
D12*
%TO.P,D115,2*%
%TO.N,Net-(D115-Pad2)*%
X314322500Y-215645000D03*
%TD*%
D11*
%TO.P,D114,1*%
%TO.N,row13*%
X333372500Y-223445000D03*
D12*
%TO.P,D114,2*%
%TO.N,Net-(D114-Pad2)*%
X333372500Y-215645000D03*
%TD*%
D11*
%TO.P,D108,1*%
%TO.N,row13*%
X314322500Y-204395000D03*
D12*
%TO.P,D108,2*%
%TO.N,Net-(D108-Pad2)*%
X314322500Y-196595000D03*
%TD*%
D11*
%TO.P,D107,1*%
%TO.N,row10*%
X252232200Y-201281600D03*
D12*
%TO.P,D107,2*%
%TO.N,Net-(D107-Pad2)*%
X252232200Y-193481600D03*
%TD*%
D11*
%TO.P,D105,1*%
%TO.N,row10*%
X252333800Y-190921400D03*
D12*
%TO.P,D105,2*%
%TO.N,Net-(D105-Pad2)*%
X252333800Y-183121400D03*
%TD*%
D11*
%TO.P,D104,1*%
%TO.N,row11*%
X233360000Y-199632500D03*
D12*
%TO.P,D104,2*%
%TO.N,Net-(D104-Pad2)*%
X233360000Y-191832500D03*
%TD*%
D11*
%TO.P,D103,1*%
%TO.N,row10*%
X214310000Y-199632500D03*
D12*
%TO.P,D103,2*%
%TO.N,Net-(D103-Pad2)*%
X214310000Y-191832500D03*
%TD*%
D11*
%TO.P,D102,1*%
%TO.N,row11*%
X195260000Y-199632500D03*
D12*
%TO.P,D102,2*%
%TO.N,Net-(D102-Pad2)*%
X195260000Y-191832500D03*
%TD*%
D11*
%TO.P,D101,1*%
%TO.N,row10*%
X176210000Y-199632500D03*
D12*
%TO.P,D101,2*%
%TO.N,Net-(D101-Pad2)*%
X176210000Y-191832500D03*
%TD*%
D11*
%TO.P,D100,1*%
%TO.N,row11*%
X157160000Y-199632500D03*
D12*
%TO.P,D100,2*%
%TO.N,Net-(D100-Pad2)*%
X157160000Y-191832500D03*
%TD*%
D11*
%TO.P,D99,1*%
%TO.N,row10*%
X138110000Y-199632500D03*
D12*
%TO.P,D99,2*%
%TO.N,Net-(D99-Pad2)*%
X138110000Y-191832500D03*
%TD*%
D11*
%TO.P,D98,1*%
%TO.N,row11*%
X119060000Y-199632500D03*
D12*
%TO.P,D98,2*%
%TO.N,Net-(D98-Pad2)*%
X119060000Y-191832500D03*
%TD*%
D11*
%TO.P,D97,1*%
%TO.N,row10*%
X100010000Y-199632500D03*
D12*
%TO.P,D97,2*%
%TO.N,Net-(D97-Pad2)*%
X100010000Y-191832500D03*
%TD*%
D11*
%TO.P,D96,1*%
%TO.N,row11*%
X80960000Y-199632500D03*
D12*
%TO.P,D96,2*%
%TO.N,Net-(D96-Pad2)*%
X80960000Y-191832500D03*
%TD*%
D11*
%TO.P,D95,1*%
%TO.N,row10*%
X61910000Y-199632500D03*
D12*
%TO.P,D95,2*%
%TO.N,Net-(D95-Pad2)*%
X61910000Y-191832500D03*
%TD*%
D11*
%TO.P,D94,1*%
%TO.N,row11*%
X20300000Y-196940000D03*
D12*
%TO.P,D94,2*%
%TO.N,Net-(D94-Pad2)*%
X20300000Y-189140000D03*
%TD*%
D11*
%TO.P,D92,1*%
%TO.N,row11*%
X290510000Y-197370000D03*
D12*
%TO.P,D92,2*%
%TO.N,Net-(D92-Pad2)*%
X290510000Y-189570000D03*
%TD*%
D11*
%TO.P,D91,1*%
%TO.N,row13*%
X364328750Y-159151250D03*
D12*
%TO.P,D91,2*%
%TO.N,Net-(D91-Pad2)*%
X364328750Y-151351250D03*
%TD*%
D11*
%TO.P,D88,1*%
%TO.N,row9*%
X261833400Y-182655600D03*
D12*
%TO.P,D88,2*%
%TO.N,Net-(D88-Pad2)*%
X261833400Y-174855600D03*
%TD*%
D11*
%TO.P,D87,1*%
%TO.N,row8*%
X261833400Y-172289400D03*
D12*
%TO.P,D87,2*%
%TO.N,Net-(D87-Pad2)*%
X261833400Y-164489400D03*
%TD*%
D11*
%TO.P,D86,1*%
%TO.N,row9*%
X242885000Y-180582500D03*
D12*
%TO.P,D86,2*%
%TO.N,Net-(D86-Pad2)*%
X242885000Y-172782500D03*
%TD*%
D11*
%TO.P,D85,1*%
%TO.N,row8*%
X223835000Y-180582500D03*
D12*
%TO.P,D85,2*%
%TO.N,Net-(D85-Pad2)*%
X223835000Y-172782500D03*
%TD*%
D11*
%TO.P,D84,1*%
%TO.N,row9*%
X204785000Y-180582500D03*
D12*
%TO.P,D84,2*%
%TO.N,Net-(D84-Pad2)*%
X204785000Y-172782500D03*
%TD*%
D11*
%TO.P,D83,1*%
%TO.N,row8*%
X185735000Y-180582500D03*
D12*
%TO.P,D83,2*%
%TO.N,Net-(D83-Pad2)*%
X185735000Y-172782500D03*
%TD*%
D11*
%TO.P,D82,1*%
%TO.N,row9*%
X166685000Y-180582500D03*
D12*
%TO.P,D82,2*%
%TO.N,Net-(D82-Pad2)*%
X166685000Y-172782500D03*
%TD*%
D11*
%TO.P,D81,1*%
%TO.N,row8*%
X147635000Y-180582500D03*
D12*
%TO.P,D81,2*%
%TO.N,Net-(D81-Pad2)*%
X147635000Y-172782500D03*
%TD*%
D11*
%TO.P,D80,1*%
%TO.N,row9*%
X128585000Y-180582500D03*
D12*
%TO.P,D80,2*%
%TO.N,Net-(D80-Pad2)*%
X128585000Y-172782500D03*
%TD*%
D11*
%TO.P,D79,1*%
%TO.N,row8*%
X109535000Y-180582500D03*
D12*
%TO.P,D79,2*%
%TO.N,Net-(D79-Pad2)*%
X109535000Y-172782500D03*
%TD*%
D11*
%TO.P,D78,1*%
%TO.N,row9*%
X90485000Y-180582500D03*
D12*
%TO.P,D78,2*%
%TO.N,Net-(D78-Pad2)*%
X90485000Y-172782500D03*
%TD*%
D11*
%TO.P,D77,1*%
%TO.N,row8*%
X71435000Y-180582500D03*
D12*
%TO.P,D77,2*%
%TO.N,Net-(D77-Pad2)*%
X71435000Y-172782500D03*
%TD*%
D11*
%TO.P,D76,1*%
%TO.N,row9*%
X47622500Y-180582500D03*
D12*
%TO.P,D76,2*%
%TO.N,Net-(D76-Pad2)*%
X47622500Y-172782500D03*
%TD*%
D11*
%TO.P,D75,1*%
%TO.N,row13*%
X95290000Y-218010000D03*
D12*
%TO.P,D75,2*%
%TO.N,Net-(D75-Pad2)*%
X95290000Y-210210000D03*
%TD*%
D11*
%TO.P,D74,1*%
%TO.N,row8*%
X304797500Y-180582500D03*
D12*
%TO.P,D74,2*%
%TO.N,Net-(D74-Pad2)*%
X304797500Y-172782500D03*
%TD*%
D11*
%TO.P,D73,1*%
%TO.N,row10*%
X377753750Y-145726250D03*
D12*
%TO.P,D73,2*%
%TO.N,Net-(D73-Pad2)*%
X369953750Y-145726250D03*
%TD*%
D11*
%TO.P,D72,1*%
%TO.N,row12*%
X326228750Y-159151250D03*
D12*
%TO.P,D72,2*%
%TO.N,Net-(D72-Pad2)*%
X326228750Y-151351250D03*
%TD*%
D11*
%TO.P,D71,1*%
%TO.N,row6*%
X304797500Y-161532500D03*
D12*
%TO.P,D71,2*%
%TO.N,Net-(D71-Pad2)*%
X304797500Y-153732500D03*
%TD*%
D11*
%TO.P,D70,1*%
%TO.N,row7*%
X276222500Y-161532500D03*
D12*
%TO.P,D70,2*%
%TO.N,Net-(D70-Pad2)*%
X276222500Y-153732500D03*
%TD*%
D11*
%TO.P,D69,1*%
%TO.N,row6*%
X257172500Y-161532500D03*
D12*
%TO.P,D69,2*%
%TO.N,Net-(D69-Pad2)*%
X257172500Y-153732500D03*
%TD*%
D11*
%TO.P,D68,1*%
%TO.N,row7*%
X238122500Y-161532500D03*
D12*
%TO.P,D68,2*%
%TO.N,Net-(D68-Pad2)*%
X238122500Y-153732500D03*
%TD*%
D11*
%TO.P,D67,1*%
%TO.N,row6*%
X219072500Y-161532500D03*
D12*
%TO.P,D67,2*%
%TO.N,Net-(D67-Pad2)*%
X219072500Y-153732500D03*
%TD*%
D11*
%TO.P,D66,1*%
%TO.N,row7*%
X200022500Y-161532500D03*
D12*
%TO.P,D66,2*%
%TO.N,Net-(D66-Pad2)*%
X200022500Y-153732500D03*
%TD*%
D11*
%TO.P,D65,1*%
%TO.N,row6*%
X180972500Y-161532500D03*
D12*
%TO.P,D65,2*%
%TO.N,Net-(D65-Pad2)*%
X180972500Y-153732500D03*
%TD*%
D11*
%TO.P,D64,1*%
%TO.N,row7*%
X161922500Y-161532500D03*
D12*
%TO.P,D64,2*%
%TO.N,Net-(D64-Pad2)*%
X161922500Y-153732500D03*
%TD*%
D11*
%TO.P,D63,1*%
%TO.N,row6*%
X142872500Y-161532500D03*
D12*
%TO.P,D63,2*%
%TO.N,Net-(D63-Pad2)*%
X142872500Y-153732500D03*
%TD*%
D11*
%TO.P,D62,1*%
%TO.N,row7*%
X123822500Y-161532500D03*
D12*
%TO.P,D62,2*%
%TO.N,Net-(D62-Pad2)*%
X123822500Y-153732500D03*
%TD*%
D11*
%TO.P,D61,1*%
%TO.N,row6*%
X104772500Y-161532500D03*
D12*
%TO.P,D61,2*%
%TO.N,Net-(D61-Pad2)*%
X104772500Y-153732500D03*
%TD*%
D11*
%TO.P,D60,1*%
%TO.N,row7*%
X85722500Y-161532500D03*
D12*
%TO.P,D60,2*%
%TO.N,Net-(D60-Pad2)*%
X85722500Y-153732500D03*
%TD*%
D11*
%TO.P,D59,1*%
%TO.N,row6*%
X66672500Y-161532500D03*
D12*
%TO.P,D59,2*%
%TO.N,Net-(D59-Pad2)*%
X66672500Y-153732500D03*
%TD*%
D11*
%TO.P,D58,1*%
%TO.N,row7*%
X47622500Y-161532500D03*
D12*
%TO.P,D58,2*%
%TO.N,Net-(D58-Pad2)*%
X47622500Y-153732500D03*
%TD*%
D11*
%TO.P,D57,1*%
%TO.N,row11*%
X382204000Y-158627200D03*
D12*
%TO.P,D57,2*%
%TO.N,Net-(D57-Pad2)*%
X382204000Y-150827200D03*
%TD*%
D11*
%TO.P,D56,1*%
%TO.N,row10*%
X376772500Y-126676250D03*
D12*
%TO.P,D56,2*%
%TO.N,Net-(D56-Pad2)*%
X368972500Y-126676250D03*
%TD*%
D11*
%TO.P,D55,1*%
%TO.N,row8*%
X364328750Y-142482500D03*
D12*
%TO.P,D55,2*%
%TO.N,Net-(D55-Pad2)*%
X364328750Y-134682500D03*
%TD*%
D11*
%TO.P,D54,1*%
%TO.N,row9*%
X345278750Y-142482500D03*
D12*
%TO.P,D54,2*%
%TO.N,Net-(D54-Pad2)*%
X345278750Y-134682500D03*
%TD*%
D11*
%TO.P,D53,1*%
%TO.N,row11*%
X402828800Y-130582600D03*
D12*
%TO.P,D53,2*%
%TO.N,Net-(D53-Pad2)*%
X402828800Y-122782600D03*
%TD*%
D11*
%TO.P,D51,1*%
%TO.N,row5*%
X304797500Y-142482500D03*
D12*
%TO.P,D51,2*%
%TO.N,Net-(D51-Pad2)*%
X304797500Y-134682500D03*
%TD*%
D11*
%TO.P,D49,1*%
%TO.N,row5*%
X266697500Y-142482500D03*
D12*
%TO.P,D49,2*%
%TO.N,Net-(D49-Pad2)*%
X266697500Y-134682500D03*
%TD*%
D11*
%TO.P,D48,1*%
%TO.N,row4*%
X247647500Y-142482500D03*
D12*
%TO.P,D48,2*%
%TO.N,Net-(D48-Pad2)*%
X247647500Y-134682500D03*
%TD*%
D11*
%TO.P,D47,1*%
%TO.N,row5*%
X228597500Y-142482500D03*
D12*
%TO.P,D47,2*%
%TO.N,Net-(D47-Pad2)*%
X228597500Y-134682500D03*
%TD*%
D11*
%TO.P,D46,1*%
%TO.N,row4*%
X209547500Y-142482500D03*
D12*
%TO.P,D46,2*%
%TO.N,Net-(D46-Pad2)*%
X209547500Y-134682500D03*
%TD*%
D11*
%TO.P,D45,1*%
%TO.N,row5*%
X190497500Y-142482500D03*
D12*
%TO.P,D45,2*%
%TO.N,Net-(D45-Pad2)*%
X190497500Y-134682500D03*
%TD*%
D11*
%TO.P,D44,1*%
%TO.N,row4*%
X171447500Y-142482500D03*
D12*
%TO.P,D44,2*%
%TO.N,Net-(D44-Pad2)*%
X171447500Y-134682500D03*
%TD*%
D11*
%TO.P,D43,1*%
%TO.N,row5*%
X152397500Y-142482500D03*
D12*
%TO.P,D43,2*%
%TO.N,Net-(D43-Pad2)*%
X152397500Y-134682500D03*
%TD*%
D11*
%TO.P,D42,1*%
%TO.N,row4*%
X133347500Y-142482500D03*
D12*
%TO.P,D42,2*%
%TO.N,Net-(D42-Pad2)*%
X133347500Y-134682500D03*
%TD*%
D11*
%TO.P,D41,1*%
%TO.N,row5*%
X114297500Y-142482500D03*
D12*
%TO.P,D41,2*%
%TO.N,Net-(D41-Pad2)*%
X114297500Y-134682500D03*
%TD*%
D11*
%TO.P,D40,1*%
%TO.N,row4*%
X95247500Y-142482500D03*
D12*
%TO.P,D40,2*%
%TO.N,Net-(D40-Pad2)*%
X95247500Y-134682500D03*
%TD*%
D11*
%TO.P,D39,1*%
%TO.N,row5*%
X76197500Y-142482500D03*
D12*
%TO.P,D39,2*%
%TO.N,Net-(D39-Pad2)*%
X76197500Y-134682500D03*
%TD*%
D11*
%TO.P,D38,1*%
%TO.N,row4*%
X57147500Y-142482500D03*
D12*
%TO.P,D38,2*%
%TO.N,Net-(D38-Pad2)*%
X57147500Y-134682500D03*
%TD*%
D11*
%TO.P,D37,1*%
%TO.N,row5*%
X38097500Y-142482500D03*
D12*
%TO.P,D37,2*%
%TO.N,Net-(D37-Pad2)*%
X38097500Y-134682500D03*
%TD*%
D11*
%TO.P,D36,1*%
%TO.N,row6*%
X377753750Y-107626250D03*
D12*
%TO.P,D36,2*%
%TO.N,Net-(D36-Pad2)*%
X369953750Y-107626250D03*
%TD*%
D11*
%TO.P,D35,1*%
%TO.N,row4*%
X364328750Y-123432500D03*
D12*
%TO.P,D35,2*%
%TO.N,Net-(D35-Pad2)*%
X364328750Y-115632500D03*
%TD*%
D11*
%TO.P,D34,1*%
%TO.N,row5*%
X345278750Y-123432500D03*
D12*
%TO.P,D34,2*%
%TO.N,Net-(D34-Pad2)*%
X345278750Y-115632500D03*
%TD*%
D11*
%TO.P,D33,1*%
%TO.N,row7*%
X396456400Y-125488800D03*
D12*
%TO.P,D33,2*%
%TO.N,Net-(D33-Pad2)*%
X388656400Y-125488800D03*
%TD*%
D11*
%TO.P,D32,1*%
%TO.N,row2*%
X396803750Y-88576250D03*
D12*
%TO.P,D32,2*%
%TO.N,Net-(D32-Pad2)*%
X389003750Y-88576250D03*
%TD*%
D11*
%TO.P,D31,1*%
%TO.N,row4*%
X307590000Y-142500000D03*
D12*
%TO.P,D31,2*%
%TO.N,Net-(D31-Pad2)*%
X307590000Y-134700000D03*
%TD*%
D11*
%TO.P,D30,1*%
%TO.N,row3*%
X377872500Y-88576250D03*
D12*
%TO.P,D30,2*%
%TO.N,Net-(D30-Pad2)*%
X370072500Y-88576250D03*
%TD*%
D11*
%TO.P,D29,1*%
%TO.N,row2*%
X364328750Y-104382500D03*
D12*
%TO.P,D29,2*%
%TO.N,Net-(D29-Pad2)*%
X364328750Y-96582500D03*
%TD*%
D11*
%TO.P,D28,1*%
%TO.N,row3*%
X345278750Y-104382500D03*
D12*
%TO.P,D28,2*%
%TO.N,Net-(D28-Pad2)*%
X345278750Y-96582500D03*
%TD*%
D11*
%TO.P,D27,1*%
%TO.N,row3*%
X257172500Y-104382500D03*
D12*
%TO.P,D27,2*%
%TO.N,Net-(D27-Pad2)*%
X257172500Y-96582500D03*
%TD*%
D11*
%TO.P,D26,1*%
%TO.N,row3*%
X238122500Y-104382500D03*
D12*
%TO.P,D26,2*%
%TO.N,Net-(D26-Pad2)*%
X238122500Y-96582500D03*
%TD*%
D11*
%TO.P,D25,1*%
%TO.N,row2*%
X219072500Y-104382500D03*
D12*
%TO.P,D25,2*%
%TO.N,Net-(D25-Pad2)*%
X219072500Y-96582500D03*
%TD*%
D11*
%TO.P,D24,1*%
%TO.N,row3*%
X200022500Y-104382500D03*
D12*
%TO.P,D24,2*%
%TO.N,Net-(D24-Pad2)*%
X200022500Y-96582500D03*
%TD*%
D11*
%TO.P,D23,1*%
%TO.N,row2*%
X171447500Y-104382500D03*
D12*
%TO.P,D23,2*%
%TO.N,Net-(D23-Pad2)*%
X171447500Y-96582500D03*
%TD*%
D11*
%TO.P,D22,1*%
%TO.N,row3*%
X152397500Y-104501250D03*
D12*
%TO.P,D22,2*%
%TO.N,Net-(D22-Pad2)*%
X152397500Y-96701250D03*
%TD*%
D11*
%TO.P,D21,1*%
%TO.N,row2*%
X133347500Y-104501250D03*
D12*
%TO.P,D21,2*%
%TO.N,Net-(D21-Pad2)*%
X133347500Y-96701250D03*
%TD*%
D11*
%TO.P,D20,1*%
%TO.N,row3*%
X114297500Y-104501250D03*
D12*
%TO.P,D20,2*%
%TO.N,Net-(D20-Pad2)*%
X114297500Y-96701250D03*
%TD*%
D11*
%TO.P,D19,1*%
%TO.N,row2*%
X95247500Y-104501250D03*
D12*
%TO.P,D19,2*%
%TO.N,Net-(D19-Pad2)*%
X95247500Y-96701250D03*
%TD*%
D11*
%TO.P,D18,1*%
%TO.N,row3*%
X76197500Y-104501250D03*
D12*
%TO.P,D18,2*%
%TO.N,Net-(D18-Pad2)*%
X76197500Y-96701250D03*
%TD*%
D11*
%TO.P,D16,1*%
%TO.N,row0*%
X402428750Y-85451250D03*
D12*
%TO.P,D16,2*%
%TO.N,Net-(D16-Pad2)*%
X402428750Y-77651250D03*
%TD*%
D11*
%TO.P,D15,1*%
%TO.N,row1*%
X383378750Y-85332500D03*
D12*
%TO.P,D15,2*%
%TO.N,Net-(D15-Pad2)*%
X383378750Y-77532500D03*
%TD*%
D11*
%TO.P,D14,1*%
%TO.N,row0*%
X364328750Y-85332500D03*
D12*
%TO.P,D14,2*%
%TO.N,Net-(D14-Pad2)*%
X364328750Y-77532500D03*
%TD*%
D11*
%TO.P,D13,1*%
%TO.N,row1*%
X345278750Y-85332500D03*
D12*
%TO.P,D13,2*%
%TO.N,Net-(D13-Pad2)*%
X345278750Y-77532500D03*
%TD*%
D11*
%TO.P,D12,1*%
%TO.N,row1*%
X285747500Y-85213750D03*
D12*
%TO.P,D12,2*%
%TO.N,Net-(D12-Pad2)*%
X285747500Y-77413750D03*
%TD*%
D11*
%TO.P,D11,1*%
%TO.N,row0*%
X257172500Y-85213750D03*
D12*
%TO.P,D11,2*%
%TO.N,Net-(D11-Pad2)*%
X257172500Y-77413750D03*
%TD*%
D11*
%TO.P,D10,1*%
%TO.N,row1*%
X238122500Y-85213750D03*
D12*
%TO.P,D10,2*%
%TO.N,Net-(D10-Pad2)*%
X238122500Y-77413750D03*
%TD*%
D11*
%TO.P,D9,1*%
%TO.N,row0*%
X219072500Y-85332500D03*
D12*
%TO.P,D9,2*%
%TO.N,Net-(D9-Pad2)*%
X219072500Y-77532500D03*
%TD*%
D11*
%TO.P,D8,1*%
%TO.N,row1*%
X200022500Y-85213750D03*
D12*
%TO.P,D8,2*%
%TO.N,Net-(D8-Pad2)*%
X200022500Y-77413750D03*
%TD*%
D11*
%TO.P,D7,1*%
%TO.N,row0*%
X171447500Y-85213750D03*
D12*
%TO.P,D7,2*%
%TO.N,Net-(D7-Pad2)*%
X171447500Y-77413750D03*
%TD*%
D11*
%TO.P,D6,1*%
%TO.N,row1*%
X152397500Y-85213750D03*
D12*
%TO.P,D6,2*%
%TO.N,Net-(D6-Pad2)*%
X152397500Y-77413750D03*
%TD*%
D11*
%TO.P,D5,1*%
%TO.N,row0*%
X133347500Y-85213750D03*
D12*
%TO.P,D5,2*%
%TO.N,Net-(D5-Pad2)*%
X133347500Y-77413750D03*
%TD*%
D11*
%TO.P,D4,1*%
%TO.N,row1*%
X114297500Y-85213750D03*
D12*
%TO.P,D4,2*%
%TO.N,Net-(D4-Pad2)*%
X114297500Y-77413750D03*
%TD*%
D11*
%TO.P,D3,1*%
%TO.N,row0*%
X95247500Y-85332500D03*
D12*
%TO.P,D3,2*%
%TO.N,Net-(D3-Pad2)*%
X95247500Y-77532500D03*
%TD*%
D11*
%TO.P,D2,1*%
%TO.N,row1*%
X76197500Y-85332500D03*
D12*
%TO.P,D2,2*%
%TO.N,Net-(D2-Pad2)*%
X76197500Y-77532500D03*
%TD*%
D10*
%TO.P,end1,2*%
%TO.N,Net-(D25-Pad2)*%
X212087500Y-93021250D03*
%TO.P,end1,1*%
%TO.N,col5*%
X205737500Y-95561250D03*
%TD*%
%TO.P,e1,2*%
%TO.N,Net-(D61-Pad2)*%
X97787500Y-150171250D03*
%TO.P,e1,1*%
%TO.N,col1*%
X91437500Y-152711250D03*
%TD*%
%TO.P,down1,2*%
%TO.N,Net-(D115-Pad2)*%
X307830000Y-213250000D03*
%TO.P,down1,1*%
%TO.N,col4*%
X301480000Y-215790000D03*
%TD*%
%TO.P,dot1,2*%
%TO.N,Net-(D104-Pad2)*%
X226375000Y-188271250D03*
%TO.P,dot1,1*%
%TO.N,col5*%
X220025000Y-190811250D03*
%TD*%
%TO.P,delete1,2*%
%TO.N,Net-(D24-Pad2)*%
X193037500Y-93021250D03*
%TO.P,delete1,1*%
%TO.N,col4*%
X186687500Y-95561250D03*
%TD*%
%TO.P,lm2a1,2*%
%TO.N,Net-(D122-Pad2)*%
X57308750Y-207321240D03*
%TO.P,lm2a1,1*%
%TO.N,col0*%
X50958750Y-209861240D03*
%TD*%
%TO.P,lm1a1,2*%
%TO.N,Net-(D121-Pad2)*%
X33495000Y-207321250D03*
%TO.P,lm1a1,1*%
%TO.N,col0*%
X27145000Y-209861250D03*
%TD*%
%TO.P,L_mod3,2*%
%TO.N,Net-(D75-Pad2)*%
X81121250Y-207322250D03*
%TO.P,L_mod3,1*%
%TO.N,col1*%
X74771250Y-209862250D03*
%TD*%
%TO.P,lm2,2*%
%TO.N,Net-(D122-Pad2)*%
X64450000Y-207321250D03*
%TO.P,lm2,1*%
%TO.N,col0*%
X58100000Y-209861250D03*
%TD*%
%TO.P,lm1,2*%
%TO.N,Net-(D121-Pad2)*%
X35875000Y-207321250D03*
%TO.P,lm1,1*%
%TO.N,col0*%
X29525000Y-209861250D03*
%TD*%
%TO.P,space3,2*%
%TO.N,Net-(space1-Pad2)*%
X138268750Y-207321250D03*
%TO.P,space3,1*%
%TO.N,col3*%
X131918750Y-209861250D03*
%TD*%
%TO.P,space2,2*%
%TO.N,Net-(space1-Pad2)*%
X152558750Y-207321240D03*
%TO.P,space2,1*%
%TO.N,col3*%
X146208750Y-209861240D03*
%TD*%
%TO.P,space1,2*%
%TO.N,Net-(space1-Pad2)*%
X145412500Y-207321250D03*
%TO.P,space1,1*%
%TO.N,col3*%
X139062500Y-209861250D03*
%TD*%
%TO.P,R_mod3_alt1,2*%
%TO.N,Net-(D124-Pad2)*%
X252568750Y-207321250D03*
%TO.P,R_mod3_alt1,1*%
%TO.N,col6*%
X246218750Y-209861250D03*
%TD*%
%TO.P,R_mod2_alt1,2*%
%TO.N,Net-(D118-Pad2)*%
X233518750Y-207321250D03*
%TO.P,R_mod2_alt1,1*%
%TO.N,col5*%
X227168750Y-209861250D03*
%TD*%
%TO.P,R_mod3,2*%
%TO.N,Net-(D124-Pad2)*%
X254950000Y-207321250D03*
%TO.P,R_mod3,1*%
%TO.N,col6*%
X248600000Y-209861250D03*
%TD*%
%TO.P,R_mod2,2*%
%TO.N,Net-(D118-Pad2)*%
X226375000Y-207321250D03*
%TO.P,R_mod2,1*%
%TO.N,col5*%
X220025000Y-209861250D03*
%TD*%
%TO.P,R_mod1,2*%
%TO.N,Net-(D117-Pad2)*%
X209706250Y-207321250D03*
%TO.P,R_mod1,1*%
%TO.N,col5*%
X203356250Y-209861250D03*
%TD*%
%TO.P,insert1,2*%
%TO.N,Net-(D8-Pad2)*%
X193037500Y-73971250D03*
%TO.P,insert1,1*%
%TO.N,col4*%
X186687500Y-76511250D03*
%TD*%
D18*
%TO.P,J1,16*%
%TO.N,row13*%
X209340000Y-63860000D03*
%TO.P,J1,15*%
%TO.N,row12*%
X206800000Y-63860000D03*
%TO.P,J1,14*%
%TO.N,row11*%
X204260000Y-63860000D03*
%TO.P,J1,13*%
%TO.N,row10*%
X201720000Y-63860000D03*
%TO.P,J1,12*%
%TO.N,row9*%
X199180000Y-63860000D03*
%TO.P,J1,11*%
%TO.N,row8*%
X196640000Y-63860000D03*
%TO.P,J1,10*%
%TO.N,row7*%
X194100000Y-63860000D03*
%TO.P,J1,9*%
%TO.N,row6*%
X191560000Y-63860000D03*
%TO.P,J1,8*%
%TO.N,row5*%
X189020000Y-63860000D03*
%TO.P,J1,7*%
%TO.N,row4*%
X186480000Y-63860000D03*
%TO.P,J1,6*%
%TO.N,row3*%
X183940000Y-63860000D03*
%TO.P,J1,5*%
%TO.N,row2*%
X181400000Y-63860000D03*
%TO.P,J1,4*%
%TO.N,row1*%
X178860000Y-63860000D03*
%TO.P,J1,3*%
%TO.N,row0*%
X176320000Y-63860000D03*
%TO.P,J1,2*%
%TO.N,Net-(J1-Pad2)*%
X173780000Y-63860000D03*
D19*
%TO.P,J1,1*%
%TO.N,Net-(J1-Pad1)*%
X171240000Y-63860000D03*
%TD*%
D10*
%TO.P,scroll_lock1,2*%
%TO.N,Net-(D27-Pad2)*%
X250187500Y-93021250D03*
%TO.P,scroll_lock1,1*%
%TO.N,col6*%
X243837500Y-95561250D03*
%TD*%
%TO.P,pagedown1,2*%
%TO.N,Net-(D26-Pad2)*%
X231137500Y-93021250D03*
%TO.P,pagedown1,1*%
%TO.N,col5*%
X224787500Y-95561250D03*
%TD*%
%TO.P,f12,2*%
%TO.N,Net-(D23-Pad2)*%
X164462500Y-93021250D03*
%TO.P,f12,1*%
%TO.N,col3*%
X158112500Y-95561250D03*
%TD*%
%TO.P,f11,2*%
%TO.N,Net-(D22-Pad2)*%
X145412500Y-93021250D03*
%TO.P,f11,1*%
%TO.N,col3*%
X139062500Y-95561250D03*
%TD*%
%TO.P,f8,2*%
%TO.N,Net-(D19-Pad2)*%
X88262500Y-93021250D03*
%TO.P,f8,1*%
%TO.N,col1*%
X81912500Y-95561250D03*
%TD*%
%TO.P,f7,2*%
%TO.N,Net-(D18-Pad2)*%
X69212500Y-93021250D03*
%TO.P,f7,1*%
%TO.N,col1*%
X62862500Y-95561250D03*
%TD*%
%TO.P,kp_+2,2*%
%TO.N,Net-(D32-Pad2)*%
X395443750Y-93021250D03*
%TO.P,kp_+2,1*%
%TO.N,col8*%
X389093750Y-95561250D03*
%TD*%
%TO.P,print1,2*%
%TO.N,Net-(D11-Pad2)*%
X250187500Y-73971250D03*
%TO.P,print1,1*%
%TO.N,col6*%
X243837500Y-76511250D03*
%TD*%
%TO.P,pageup1,2*%
%TO.N,Net-(D10-Pad2)*%
X231137500Y-73971250D03*
%TO.P,pageup1,1*%
%TO.N,col5*%
X224787500Y-76511250D03*
%TD*%
%TO.P,home1,2*%
%TO.N,Net-(D9-Pad2)*%
X212087500Y-73971250D03*
%TO.P,home1,1*%
%TO.N,col5*%
X205737500Y-76511250D03*
%TD*%
%TO.P,f6,2*%
%TO.N,Net-(D7-Pad2)*%
X164462500Y-73971250D03*
%TO.P,f6,1*%
%TO.N,col3*%
X158112500Y-76511250D03*
%TD*%
%TO.P,f3,2*%
%TO.N,Net-(D4-Pad2)*%
X107312500Y-73971250D03*
%TO.P,f3,1*%
%TO.N,col2*%
X100962500Y-76511250D03*
%TD*%
%TO.P,f2,2*%
%TO.N,Net-(D3-Pad2)*%
X88262500Y-73971250D03*
%TO.P,f2,1*%
%TO.N,col1*%
X81912500Y-76511250D03*
%TD*%
%TO.P,f1,2*%
%TO.N,Net-(D2-Pad2)*%
X69212500Y-73971250D03*
%TO.P,f1,1*%
%TO.N,col1*%
X62862500Y-76511250D03*
%TD*%
%TO.P,escape1,2*%
%TO.N,Net-(D1-Pad2)*%
X31112500Y-73971250D03*
%TO.P,escape1,1*%
%TO.N,col0*%
X24762500Y-76511250D03*
%TD*%
D20*
%TO.P,H6,1*%
%TO.N,GND*%
X391930000Y-162570000D03*
%TD*%
D21*
%TO.P,H7,1*%
%TO.N,GND*%
X259800000Y-63930000D03*
%TD*%
D10*
%TO.P,right_shift2,1*%
%TO.N,col6*%
X267650000Y-190811250D03*
%TO.P,right_shift2,2*%
%TO.N,Net-(D107-Pad2)*%
X274000000Y-188271250D03*
%TD*%
%TO.P,backspace2,1*%
%TO.N,col6*%
X281937500Y-133661250D03*
%TO.P,backspace2,2*%
%TO.N,Net-(D31-Pad2)*%
X288287500Y-131121250D03*
%TD*%
%TO.P,iso_enter1,1*%
%TO.N,col7*%
X289081250Y-162236250D03*
%TO.P,iso_enter1,2*%
%TO.N,Net-(D74-Pad2)*%
X295431250Y-159696250D03*
%TD*%
D19*
%TO.P,J2,1*%
%TO.N,GND*%
X215110000Y-63850000D03*
D18*
%TO.P,J2,2*%
%TO.N,col0*%
X217650000Y-63850000D03*
%TO.P,J2,3*%
%TO.N,col1*%
X220190000Y-63850000D03*
%TO.P,J2,4*%
%TO.N,col2*%
X222730000Y-63850000D03*
%TO.P,J2,5*%
%TO.N,col3*%
X225270000Y-63850000D03*
%TO.P,J2,6*%
%TO.N,col4*%
X227810000Y-63850000D03*
%TO.P,J2,7*%
%TO.N,col5*%
X230350000Y-63850000D03*
%TO.P,J2,8*%
%TO.N,col6*%
X232890000Y-63850000D03*
%TO.P,J2,9*%
%TO.N,col7*%
X235430000Y-63850000D03*
%TO.P,J2,10*%
%TO.N,col8*%
X237970000Y-63850000D03*
%TO.P,J2,11*%
%TO.N,NumLock*%
X240510000Y-63850000D03*
%TO.P,J2,12*%
%TO.N,CapsLock*%
X243050000Y-63850000D03*
%TO.P,J2,13*%
%TO.N,ScrollLock*%
X245590000Y-63850000D03*
%TO.P,J2,14*%
%TO.N,Net-(J2-Pad14)*%
X248130000Y-63850000D03*
%TO.P,J2,15*%
%TO.N,Net-(J2-Pad15)*%
X250670000Y-63850000D03*
%TO.P,J2,16*%
%TO.N,Net-(J2-Pad16)*%
X253210000Y-63850000D03*
%TD*%
D10*
%TO.P,up1,1*%
%TO.N,col7*%
X301480000Y-196590000D03*
%TO.P,up1,2*%
%TO.N,Net-(D108-Pad2)*%
X307830000Y-194050000D03*
%TD*%
%TO.P,numlock1,1*%
%TO.N,col7*%
X331943750Y-76511250D03*
%TO.P,numlock1,2*%
%TO.N,Net-(D13-Pad2)*%
X338293750Y-73971250D03*
%TD*%
%TO.P,q1,1*%
%TO.N,col0*%
X53337500Y-152711250D03*
%TO.P,q1,2*%
%TO.N,Net-(D59-Pad2)*%
X59687500Y-150171250D03*
%TD*%
%TO.P,kp_3,1*%
%TO.N,col8*%
X370043750Y-133661250D03*
%TO.P,kp_3,2*%
%TO.N,Net-(D56-Pad2)*%
X376393750Y-131121250D03*
%TD*%
%TO.P,kp_enter3,1*%
%TO.N,col6*%
X389093750Y-152711250D03*
%TO.P,kp_enter3,2*%
%TO.N,Net-(D57-Pad2)*%
X395443750Y-150171250D03*
%TD*%
%TO.P,kp_enter1,2*%
%TO.N,Net-(D53-Pad2)*%
X395443750Y-140646250D03*
%TO.P,kp_enter1,1*%
%TO.N,col8*%
X389093750Y-143186250D03*
%TD*%
%TO.P,kp_enter2,1*%
%TO.N,col8*%
X389093750Y-133661250D03*
%TO.P,kp_enter2,2*%
%TO.N,Net-(D53-Pad2)*%
X395443750Y-131121250D03*
%TD*%
%TO.P,kp_2,1*%
%TO.N,col8*%
X350993750Y-133661250D03*
%TO.P,kp_2,2*%
%TO.N,Net-(D55-Pad2)*%
X357343750Y-131121250D03*
%TD*%
%TO.P,kp_6,1*%
%TO.N,col8*%
X370043750Y-114611250D03*
%TO.P,kp_6,2*%
%TO.N,Net-(D36-Pad2)*%
X376393750Y-112071250D03*
%TD*%
%TO.P,kp_5,1*%
%TO.N,col8*%
X350993750Y-114611250D03*
%TO.P,kp_5,2*%
%TO.N,Net-(D35-Pad2)*%
X357343750Y-112071250D03*
%TD*%
%TO.P,kp_4,1*%
%TO.N,col8*%
X331943750Y-114611250D03*
%TO.P,kp_4,2*%
%TO.N,Net-(D34-Pad2)*%
X338293750Y-112071250D03*
%TD*%
%TO.P,kp_9,1*%
%TO.N,col8*%
X370043750Y-95561250D03*
%TO.P,kp_9,2*%
%TO.N,Net-(D30-Pad2)*%
X376393750Y-93021250D03*
%TD*%
%TO.P,kp_7,1*%
%TO.N,col7*%
X331943750Y-95561250D03*
%TO.P,kp_7,2*%
%TO.N,Net-(D28-Pad2)*%
X338293750Y-93021250D03*
%TD*%
%TO.P,kp_-1,1*%
%TO.N,col8*%
X389093750Y-76511250D03*
%TO.P,kp_-1,2*%
%TO.N,Net-(D16-Pad2)*%
X395443750Y-73971250D03*
%TD*%
%TO.P,kp/\u002A1,1*%
%TO.N,col8*%
X370043750Y-76511250D03*
%TO.P,kp/\u002A1,2*%
%TO.N,Net-(D15-Pad2)*%
X376393750Y-73971250D03*
%TD*%
%TO.P,kp_/1,1*%
%TO.N,col7*%
X350993750Y-76511250D03*
%TO.P,kp_/1,2*%
%TO.N,Net-(D14-Pad2)*%
X357343750Y-73971250D03*
%TD*%
%TO.P,right1,1*%
%TO.N,col4*%
X320680000Y-215790000D03*
%TO.P,right1,2*%
%TO.N,Net-(D114-Pad2)*%
X327030000Y-213250000D03*
%TD*%
%TO.P,kp_0x1,1*%
%TO.N,col8*%
X350993750Y-152711250D03*
%TO.P,kp_0x1,2*%
%TO.N,Net-(D91-Pad2)*%
X357343750Y-150171250D03*
%TD*%
%TO.P,kp_zero1,1*%
%TO.N,col8*%
X331943750Y-152711250D03*
%TO.P,kp_zero1,2*%
%TO.N,Net-(D72-Pad2)*%
X338293750Y-150171250D03*
%TD*%
%TO.P,kp_comma1,1*%
%TO.N,col7*%
X370043750Y-152711250D03*
%TO.P,kp_comma1,2*%
%TO.N,Net-(D73-Pad2)*%
X376393750Y-150171250D03*
%TD*%
%TO.P,kp_zero2,1*%
%TO.N,col8*%
X341468750Y-152711250D03*
%TO.P,kp_zero2,2*%
%TO.N,Net-(D72-Pad2)*%
X347818750Y-150171250D03*
%TD*%
%TO.P,rightshift1,1*%
%TO.N,col7*%
X277175000Y-190811250D03*
%TO.P,rightshift1,2*%
%TO.N,Net-(D92-Pad2)*%
X283525000Y-188271250D03*
%TD*%
%TO.P,right_shift1,1*%
%TO.N,col6*%
X258125000Y-190811250D03*
%TO.P,right_shift1,2*%
%TO.N,Net-(D107-Pad2)*%
X264475000Y-188271250D03*
%TD*%
%TO.P,slash1,1*%
%TO.N,col5*%
X239075000Y-190811250D03*
%TO.P,slash1,2*%
%TO.N,Net-(D105-Pad2)*%
X245425000Y-188271250D03*
%TD*%
%TO.P,comma1,1*%
%TO.N,col4*%
X200975000Y-190811250D03*
%TO.P,comma1,2*%
%TO.N,Net-(D103-Pad2)*%
X207325000Y-188271250D03*
%TD*%
%TO.P,m1,1*%
%TO.N,col4*%
X181925000Y-190811250D03*
%TO.P,m1,2*%
%TO.N,Net-(D102-Pad2)*%
X188275000Y-188271250D03*
%TD*%
%TO.P,n10,1*%
%TO.N,col3*%
X162875000Y-190811250D03*
%TO.P,n10,2*%
%TO.N,Net-(D101-Pad2)*%
X169225000Y-188271250D03*
%TD*%
%TO.P,b1,1*%
%TO.N,col3*%
X143825000Y-190811250D03*
%TO.P,b1,2*%
%TO.N,Net-(D100-Pad2)*%
X150175000Y-188271250D03*
%TD*%
%TO.P,v1,1*%
%TO.N,col2*%
X124775000Y-190811250D03*
%TO.P,v1,2*%
%TO.N,Net-(D99-Pad2)*%
X131125000Y-188271250D03*
%TD*%
%TO.P,c1,1*%
%TO.N,col2*%
X105725000Y-190811250D03*
%TO.P,c1,2*%
%TO.N,Net-(D98-Pad2)*%
X112075000Y-188271250D03*
%TD*%
%TO.P,x1,1*%
%TO.N,col1*%
X86675000Y-190811250D03*
%TO.P,x1,2*%
%TO.N,Net-(D97-Pad2)*%
X93025000Y-188271250D03*
%TD*%
%TO.P,z1,1*%
%TO.N,col1*%
X67625000Y-190811250D03*
%TO.P,z1,2*%
%TO.N,Net-(D96-Pad2)*%
X73975000Y-188271250D03*
%TD*%
%TO.P,NUBS1,1*%
%TO.N,col0*%
X48575000Y-190811250D03*
%TO.P,NUBS1,2*%
%TO.N,Net-(D95-Pad2)*%
X54925000Y-188271250D03*
%TD*%
%TO.P,ansi_enter1,1*%
%TO.N,col7*%
X279556250Y-171761250D03*
%TO.P,ansi_enter1,2*%
%TO.N,Net-(D74-Pad2)*%
X285906250Y-169221250D03*
%TD*%
%TO.P,NUHS1,1*%
%TO.N,col6*%
X267650000Y-171761250D03*
%TO.P,NUHS1,2*%
%TO.N,Net-(D88-Pad2)*%
X274000000Y-169221250D03*
%TD*%
%TO.P,apostrophe1,1*%
%TO.N,col5*%
X248600000Y-171761250D03*
%TO.P,apostrophe1,2*%
%TO.N,Net-(D87-Pad2)*%
X254950000Y-169221250D03*
%TD*%
%TO.P,semicolon1,1*%
%TO.N,col5*%
X229550000Y-171761250D03*
%TO.P,semicolon1,2*%
%TO.N,Net-(D86-Pad2)*%
X235900000Y-169221250D03*
%TD*%
%TO.P,l1,1*%
%TO.N,col4*%
X210500000Y-171761250D03*
%TO.P,l1,2*%
%TO.N,Net-(D85-Pad2)*%
X216850000Y-169221250D03*
%TD*%
%TO.P,k1,1*%
%TO.N,col4*%
X191450000Y-171761250D03*
%TO.P,k1,2*%
%TO.N,Net-(D84-Pad2)*%
X197800000Y-169221250D03*
%TD*%
%TO.P,j1,1*%
%TO.N,col3*%
X172400000Y-171761250D03*
%TO.P,j1,2*%
%TO.N,Net-(D83-Pad2)*%
X178750000Y-169221250D03*
%TD*%
%TO.P,h1,1*%
%TO.N,col3*%
X153350000Y-171761250D03*
%TO.P,h1,2*%
%TO.N,Net-(D82-Pad2)*%
X159700000Y-169221250D03*
%TD*%
%TO.P,g1,1*%
%TO.N,col2*%
X134300000Y-171761250D03*
%TO.P,g1,2*%
%TO.N,Net-(D81-Pad2)*%
X140650000Y-169221250D03*
%TD*%
%TO.P,f13,1*%
%TO.N,col2*%
X115250000Y-171761250D03*
%TO.P,f13,2*%
%TO.N,Net-(D80-Pad2)*%
X121600000Y-169221250D03*
%TD*%
%TO.P,d1,1*%
%TO.N,col1*%
X96200000Y-171761250D03*
%TO.P,d1,2*%
%TO.N,Net-(D79-Pad2)*%
X102550000Y-169221250D03*
%TD*%
%TO.P,s1,1*%
%TO.N,col1*%
X77150000Y-171761250D03*
%TO.P,s1,2*%
%TO.N,Net-(D78-Pad2)*%
X83500000Y-169221250D03*
%TD*%
%TO.P,a1,1*%
%TO.N,col0*%
X58100000Y-171761250D03*
%TO.P,a1,2*%
%TO.N,Net-(D77-Pad2)*%
X64450000Y-169221250D03*
%TD*%
%TO.P,pipe1,1*%
%TO.N,col7*%
X286700000Y-152711250D03*
%TO.P,pipe1,2*%
%TO.N,Net-(D71-Pad2)*%
X293050000Y-150171250D03*
%TD*%
%TO.P,rightbrace1,1*%
%TO.N,col6*%
X262887500Y-152711250D03*
%TO.P,rightbrace1,2*%
%TO.N,Net-(D70-Pad2)*%
X269237500Y-150171250D03*
%TD*%
%TO.P,leftbrace1,1*%
%TO.N,col5*%
X243837500Y-152711250D03*
%TO.P,leftbrace1,2*%
%TO.N,Net-(D69-Pad2)*%
X250187500Y-150171250D03*
%TD*%
%TO.P,p1,1*%
%TO.N,col5*%
X224787500Y-152711250D03*
%TO.P,p1,2*%
%TO.N,Net-(D68-Pad2)*%
X231137500Y-150171250D03*
%TD*%
%TO.P,o1,1*%
%TO.N,col4*%
X205737500Y-152711250D03*
%TO.P,o1,2*%
%TO.N,Net-(D67-Pad2)*%
X212087500Y-150171250D03*
%TD*%
%TO.P,i1,1*%
%TO.N,col4*%
X186687500Y-152711250D03*
%TO.P,i1,2*%
%TO.N,Net-(D66-Pad2)*%
X193037500Y-150171250D03*
%TD*%
%TO.P,u1,1*%
%TO.N,col3*%
X167637500Y-152711250D03*
%TO.P,u1,2*%
%TO.N,Net-(D65-Pad2)*%
X173987500Y-150171250D03*
%TD*%
%TO.P,y1,1*%
%TO.N,col3*%
X148587500Y-152711250D03*
%TO.P,y1,2*%
%TO.N,Net-(D64-Pad2)*%
X154937500Y-150171250D03*
%TD*%
%TO.P,t1,1*%
%TO.N,col2*%
X129537500Y-152711250D03*
%TO.P,t1,2*%
%TO.N,Net-(D63-Pad2)*%
X135887500Y-150171250D03*
%TD*%
%TO.P,r1,1*%
%TO.N,col2*%
X110487500Y-152711250D03*
%TO.P,r1,2*%
%TO.N,Net-(D62-Pad2)*%
X116837500Y-150171250D03*
%TD*%
%TO.P,w1,1*%
%TO.N,col1*%
X72387500Y-152711250D03*
%TO.P,w1,2*%
%TO.N,Net-(D60-Pad2)*%
X78737500Y-150171250D03*
%TD*%
%TO.P,kp_+1,2*%
%TO.N,Net-(D32-Pad2)*%
X395443750Y-102546250D03*
%TO.P,kp_+1,1*%
%TO.N,col8*%
X389093750Y-105086250D03*
%TD*%
%TO.P,backspace3,1*%
%TO.N,col7*%
X291462500Y-133661250D03*
%TO.P,backspace3,2*%
%TO.N,Net-(D51-Pad2)*%
X297812500Y-131121250D03*
%TD*%
%TO.P,backspace1,1*%
%TO.N,col6*%
X272412500Y-133661250D03*
%TO.P,backspace1,2*%
%TO.N,Net-(D31-Pad2)*%
X278762500Y-131121250D03*
%TD*%
%TO.P,equal1,1*%
%TO.N,col6*%
X253362500Y-133661250D03*
%TO.P,equal1,2*%
%TO.N,Net-(D49-Pad2)*%
X259712500Y-131121250D03*
%TD*%
%TO.P,minus1,1*%
%TO.N,col5*%
X234312500Y-133661250D03*
%TO.P,minus1,2*%
%TO.N,Net-(D48-Pad2)*%
X240662500Y-131121250D03*
%TD*%
%TO.P,n0,1*%
%TO.N,col5*%
X215262500Y-133661250D03*
%TO.P,n0,2*%
%TO.N,Net-(D47-Pad2)*%
X221612500Y-131121250D03*
%TD*%
%TO.P,n9,1*%
%TO.N,col4*%
X196212500Y-133661250D03*
%TO.P,n9,2*%
%TO.N,Net-(D46-Pad2)*%
X202562500Y-131121250D03*
%TD*%
%TO.P,n8,1*%
%TO.N,col4*%
X177162500Y-133661250D03*
%TO.P,n8,2*%
%TO.N,Net-(D45-Pad2)*%
X183512500Y-131121250D03*
%TD*%
%TO.P,n6,1*%
%TO.N,col3*%
X139062500Y-133661250D03*
%TO.P,n6,2*%
%TO.N,Net-(D43-Pad2)*%
X145412500Y-131121250D03*
%TD*%
%TO.P,n5,1*%
%TO.N,col2*%
X120012500Y-133661250D03*
%TO.P,n5,2*%
%TO.N,Net-(D42-Pad2)*%
X126362500Y-131121250D03*
%TD*%
%TO.P,n4,1*%
%TO.N,col2*%
X100962500Y-133661250D03*
%TO.P,n4,2*%
%TO.N,Net-(D41-Pad2)*%
X107312500Y-131121250D03*
%TD*%
%TO.P,n3,1*%
%TO.N,col1*%
X81912500Y-133661250D03*
%TO.P,n3,2*%
%TO.N,Net-(D40-Pad2)*%
X88262500Y-131121250D03*
%TD*%
%TO.P,n2,1*%
%TO.N,col1*%
X62862500Y-133661250D03*
%TO.P,n2,2*%
%TO.N,Net-(D39-Pad2)*%
X69212500Y-131121250D03*
%TD*%
%TO.P,n1,1*%
%TO.N,col0*%
X43812500Y-133661250D03*
%TO.P,n1,2*%
%TO.N,Net-(D38-Pad2)*%
X50162500Y-131121250D03*
%TD*%
%TO.P,kp_+3,1*%
%TO.N,col8*%
X389093750Y-114611250D03*
%TO.P,kp_+3,2*%
%TO.N,Net-(D33-Pad2)*%
X395443750Y-112071250D03*
%TD*%
D22*
%TO.N,col0*%
X217439993Y-60525552D03*
%TO.N,row6*%
X190170000Y-66175000D03*
%TO.N,row5*%
X187690000Y-66625010D03*
%TO.N,col1*%
X220120000Y-61250000D03*
%TO.N,col2*%
X222620000Y-61660000D03*
%TO.N,row4*%
X185120000Y-67075020D03*
%TO.N,GND*%
X234430000Y-67310000D03*
X219900000Y-69600000D03*
%TD*%
D23*
%TO.N,Net-(D1-Pad2)*%
X37161250Y-80020000D02*
X31112500Y-73971250D01*
X47050000Y-80020000D02*
X37161250Y-80020000D01*
%TO.N,Net-(D5-Pad2)*%
X129905000Y-73971250D02*
X133347500Y-77413750D01*
X126362500Y-73971250D02*
X129905000Y-73971250D01*
%TO.N,Net-(D32-Pad2)*%
X395443750Y-102546250D02*
X395443750Y-102156250D01*
%TO.N,col0*%
X217325000Y-63525000D02*
X217650000Y-63850000D01*
X24762500Y-147948750D02*
X29525000Y-152711250D01*
X24762500Y-133661250D02*
X24762500Y-147948750D01*
X29525000Y-169380000D02*
X31906250Y-171761250D01*
X29525000Y-152711250D02*
X29525000Y-169380000D01*
X36668750Y-189300248D02*
X36668750Y-190811250D01*
X33272651Y-185904149D02*
X36668750Y-189300248D01*
X33272651Y-173127651D02*
X33272651Y-185904149D01*
X31906250Y-171761250D02*
X33272651Y-173127651D01*
X37793749Y-191936249D02*
X37793749Y-196830001D01*
X36668750Y-190811250D02*
X37793749Y-191936249D01*
X48505001Y-190881249D02*
X48575000Y-190811250D01*
X58100000Y-177914728D02*
X58100000Y-171761250D01*
X48575000Y-187439728D02*
X58100000Y-177914728D01*
X48575000Y-190811250D02*
X48575000Y-187439728D01*
X53337500Y-166998750D02*
X53337500Y-152711250D01*
X58100000Y-171761250D02*
X53337500Y-166998750D01*
X45303599Y-135152349D02*
X43812500Y-133661250D01*
X45303599Y-144677349D02*
X45303599Y-135152349D01*
X53337500Y-152711250D02*
X45303599Y-144677349D01*
X27143750Y-190811250D02*
X36668750Y-190811250D01*
X27143750Y-171761250D02*
X31906250Y-171761250D01*
X56503748Y-133661250D02*
X65825048Y-124339950D01*
X65825048Y-124339950D02*
X250460050Y-124339950D01*
X250460050Y-124339950D02*
X250590010Y-124209990D01*
X259049940Y-113410830D02*
X259049940Y-110641990D01*
X43812500Y-133661250D02*
X56503748Y-133661250D01*
X250590011Y-121870759D02*
X259049940Y-113410830D01*
X259049940Y-110641990D02*
X256637990Y-108230040D01*
X256637990Y-108230040D02*
X64540040Y-108230040D01*
X64540040Y-108230040D02*
X58020000Y-101710000D01*
X250590010Y-124209990D02*
X250590011Y-121870759D01*
X58020000Y-101710000D02*
X58020000Y-74800000D01*
X24762500Y-76511250D02*
X30563750Y-70710000D01*
X53930000Y-70710000D02*
X58020000Y-74800000D01*
X30563750Y-70710000D02*
X53930000Y-70710000D01*
D24*
X37793749Y-198526251D02*
X37793749Y-196830001D01*
X31140000Y-205180000D02*
X37793749Y-198526251D01*
X28390000Y-205180000D02*
X31140000Y-205180000D01*
D23*
X137570000Y-64580000D02*
X141904578Y-60245423D01*
X137570000Y-68710000D02*
X137570000Y-64580000D01*
X135750010Y-70529990D02*
X137570000Y-68710000D01*
X62290010Y-70529990D02*
X135750010Y-70529990D01*
X58020000Y-74800000D02*
X62290010Y-70529990D01*
X217164983Y-60250542D02*
X217439993Y-60525552D01*
X141904578Y-60245423D02*
X217164983Y-60250542D01*
X50958760Y-209861250D02*
X50958750Y-209861240D01*
X58100000Y-209861250D02*
X50958760Y-209861250D01*
X29525000Y-209861250D02*
X24765000Y-209861250D01*
X24765000Y-209861250D02*
X24765000Y-206865000D01*
X26450000Y-205180000D02*
X28390000Y-205180000D01*
X24765000Y-206865000D02*
X26450000Y-205180000D01*
X43815010Y-209861240D02*
X43815000Y-209861250D01*
X50958750Y-209861240D02*
X43815010Y-209861240D01*
X43815000Y-209861250D02*
X43815000Y-202195000D01*
X48575000Y-197435000D02*
X48575000Y-190811250D01*
X43815000Y-202195000D02*
X48575000Y-197435000D01*
X42040000Y-217970000D02*
X43815000Y-216195000D01*
X22220000Y-214060000D02*
X26130000Y-217970000D01*
X26130000Y-217970000D02*
X42040000Y-217970000D01*
X22220000Y-210815260D02*
X22220000Y-214060000D01*
X23174010Y-209861250D02*
X22220000Y-210815260D01*
X43815000Y-216195000D02*
X43815000Y-209861250D01*
X24765000Y-209861250D02*
X23174010Y-209861250D01*
%TO.N,row0*%
X176320000Y-80341250D02*
X176320000Y-63860000D01*
X171447500Y-85213750D02*
X172996092Y-85213750D01*
X176320000Y-81889842D02*
X176320000Y-80341250D01*
X172996092Y-85213750D02*
X176320000Y-81889842D01*
%TO.N,row1*%
X176770010Y-65949990D02*
X178860000Y-63860000D01*
X176770010Y-82076242D02*
X176770010Y-65949990D01*
X172507501Y-86338751D02*
X176770010Y-82076242D01*
X153522501Y-86338751D02*
X172507501Y-86338751D01*
X152397500Y-85213750D02*
X153522501Y-86338751D01*
%TO.N,row2*%
X171447500Y-104382500D02*
X175120000Y-100710000D01*
X175120000Y-84362662D02*
X177220020Y-82262642D01*
X175120000Y-100710000D02*
X175120000Y-84362662D01*
X177220020Y-68039980D02*
X181400000Y-63860000D01*
X177220020Y-82262642D02*
X177220020Y-68039980D01*
%TO.N,row3*%
X179118205Y-66778205D02*
X181021795Y-66778205D01*
X177670030Y-71580030D02*
X177670030Y-68226380D01*
X178611249Y-72521249D02*
X177670030Y-71580030D01*
X196795001Y-72521249D02*
X178611249Y-72521249D01*
X177670030Y-68226380D02*
X179118205Y-66778205D01*
X202150000Y-77876248D02*
X196795001Y-72521249D01*
X181021795Y-66778205D02*
X183940000Y-63860000D01*
X202150000Y-102255000D02*
X202150000Y-77876248D01*
X200022500Y-104382500D02*
X202150000Y-102255000D01*
%TO.N,row6*%
X190170000Y-66175000D02*
X191560000Y-64785000D01*
X191560000Y-64785000D02*
X191560000Y-63860000D01*
%TO.N,row5*%
X189020000Y-65295010D02*
X189020000Y-63860000D01*
X187690000Y-66625010D02*
X189020000Y-65295010D01*
%TO.N,col1*%
X219750000Y-63410000D02*
X220190000Y-63850000D01*
X81912500Y-76511250D02*
X76381250Y-70980000D01*
X68393750Y-70980000D02*
X62862500Y-76511250D01*
X76381250Y-70980000D02*
X68393750Y-70980000D01*
X81912500Y-95561250D02*
X75371250Y-89020000D01*
X69403750Y-89020000D02*
X62862500Y-95561250D01*
X75371250Y-89020000D02*
X69403750Y-89020000D01*
X62862500Y-143186250D02*
X72387500Y-152711250D01*
X62862500Y-133661250D02*
X62862500Y-143186250D01*
X72387500Y-166998750D02*
X77150000Y-171761250D01*
X72387500Y-152711250D02*
X72387500Y-166998750D01*
X77150000Y-171761250D02*
X77150000Y-171900000D01*
X78641099Y-173391099D02*
X78641099Y-179795151D01*
X78641099Y-179795151D02*
X67625000Y-190811250D01*
X77150000Y-171900000D02*
X78641099Y-173391099D01*
X67625000Y-190811250D02*
X67625000Y-192025000D01*
X67625000Y-190811250D02*
X67625000Y-191165000D01*
X67625000Y-190811250D02*
X67625000Y-200015000D01*
X67625000Y-200015000D02*
X69770000Y-202160000D01*
X86675000Y-196102502D02*
X86675000Y-190811250D01*
X80617502Y-202160000D02*
X86675000Y-196102502D01*
X69770000Y-202160000D02*
X80617502Y-202160000D01*
X96200000Y-181286250D02*
X96200000Y-171761250D01*
X86675000Y-190811250D02*
X96200000Y-181286250D01*
X91437500Y-166998750D02*
X91437500Y-152711250D01*
X96200000Y-171761250D02*
X91437500Y-166998750D01*
X81912500Y-135695248D02*
X81912500Y-133661250D01*
X91437500Y-145220248D02*
X81912500Y-135695248D01*
X91437500Y-152711250D02*
X91437500Y-145220248D01*
X62862500Y-76511250D02*
X62862500Y-95561250D01*
X81912500Y-98747250D02*
X81912500Y-95561250D01*
X90945280Y-107780030D02*
X81912500Y-98747250D01*
X256824390Y-107780030D02*
X90945280Y-107780030D01*
X259499950Y-110455590D02*
X256824390Y-107780030D01*
X259499950Y-113597230D02*
X259499950Y-110455590D01*
X251040020Y-122057160D02*
X259499950Y-113597230D01*
X251040020Y-124739980D02*
X251040020Y-122057160D01*
X250990040Y-124789960D02*
X251040020Y-124739980D01*
X90783790Y-124789960D02*
X250990040Y-124789960D01*
X81912500Y-133661250D02*
X90783790Y-124789960D01*
X138020010Y-68896400D02*
X138020010Y-64766400D01*
X135936411Y-70979999D02*
X138020010Y-68896400D01*
X87443750Y-70980000D02*
X135936411Y-70979999D01*
X138020010Y-64766400D02*
X142090965Y-60695446D01*
X81912500Y-76511250D02*
X87443750Y-70980000D01*
D24*
X74771250Y-208006252D02*
X80617502Y-202160000D01*
X74771250Y-209862250D02*
X74771250Y-208006252D01*
D23*
X220119447Y-61250553D02*
X220120000Y-61250000D01*
X216541948Y-60700509D02*
X217091992Y-61250553D01*
X217091992Y-61250553D02*
X220119447Y-61250553D01*
X142090965Y-60695446D02*
X216541948Y-60700509D01*
X74013999Y-209104999D02*
X74771250Y-209862250D01*
X63621251Y-209104999D02*
X74013999Y-209104999D01*
X62865000Y-209861250D02*
X63621251Y-209104999D01*
%TO.N,col2*%
X100962500Y-76511250D02*
X100962500Y-95561250D01*
X120012500Y-95561250D02*
X114021250Y-89570000D01*
X106953750Y-89570000D02*
X100962500Y-95561250D01*
X114021250Y-89570000D02*
X106953750Y-89570000D01*
X100962500Y-143186250D02*
X110487500Y-152711250D01*
X100962500Y-133661250D02*
X100962500Y-143186250D01*
X110487500Y-166998750D02*
X115250000Y-171761250D01*
X110487500Y-152711250D02*
X110487500Y-166998750D01*
X113509277Y-200757501D02*
X120120001Y-200757501D01*
X124775000Y-196102502D02*
X124775000Y-190811250D01*
X120120001Y-200757501D02*
X124775000Y-196102502D01*
X105725000Y-192973224D02*
X113509277Y-200757501D01*
X105725000Y-190811250D02*
X105725000Y-192973224D01*
X134300000Y-181286250D02*
X134300000Y-171761250D01*
X124775000Y-190811250D02*
X134300000Y-181286250D01*
X131028599Y-154202349D02*
X129537500Y-152711250D01*
X131028599Y-168489849D02*
X131028599Y-154202349D01*
X134300000Y-171761250D02*
X131028599Y-168489849D01*
X121503599Y-135152349D02*
X120012500Y-133661250D01*
X121503599Y-144677349D02*
X121503599Y-135152349D01*
X129537500Y-152711250D02*
X121503599Y-144677349D01*
X120012500Y-98622500D02*
X120012500Y-95561250D01*
X128720020Y-107330020D02*
X120012500Y-98622500D01*
X257010790Y-107330020D02*
X128720020Y-107330020D01*
X259949960Y-113804400D02*
X259949960Y-110269190D01*
X251864360Y-121890000D02*
X259949960Y-113804400D01*
X251843590Y-121890000D02*
X251864360Y-121890000D01*
X259949960Y-110269190D02*
X257010790Y-107330020D01*
X251490030Y-122243560D02*
X251843590Y-121890000D01*
X251490030Y-125239970D02*
X251490030Y-122243560D01*
X128433780Y-125239970D02*
X251490030Y-125239970D01*
X120012500Y-133661250D02*
X128433780Y-125239970D01*
X116022499Y-72521249D02*
X120012500Y-76511250D01*
X104952501Y-72521249D02*
X116022499Y-72521249D01*
X100962500Y-76511250D02*
X104952501Y-72521249D01*
X139772820Y-63650000D02*
X139775000Y-63650000D01*
X138470019Y-64952801D02*
X139772820Y-63650000D01*
X138470019Y-69082801D02*
X138470019Y-64952801D01*
X136122812Y-71430008D02*
X138470019Y-69082801D01*
X139775000Y-63650000D02*
X142279532Y-61145469D01*
X125093742Y-71430008D02*
X136122812Y-71430008D01*
X120012500Y-76511250D02*
X125093742Y-71430008D01*
X222449999Y-63569999D02*
X222730000Y-63850000D01*
X142279532Y-61145469D02*
X214209993Y-61150359D01*
X214209993Y-61150359D02*
X215034635Y-61975001D01*
X215034635Y-61975001D02*
X222014999Y-61975001D01*
X222330000Y-61660000D02*
X222620000Y-61660000D01*
X222014999Y-61975001D02*
X222330000Y-61660000D01*
X111660000Y-184876250D02*
X105725000Y-190811250D01*
X111660000Y-173760260D02*
X111660000Y-184876250D01*
X113659010Y-171761250D02*
X111660000Y-173760260D01*
X115250000Y-171761250D02*
X113659010Y-171761250D01*
%TO.N,col3*%
X158112500Y-76511250D02*
X152031250Y-70430000D01*
X145143750Y-70430000D02*
X139062500Y-76511250D01*
X152031250Y-70430000D02*
X145143750Y-70430000D01*
X139062500Y-143186250D02*
X148587500Y-152711250D01*
X139062500Y-133661250D02*
X139062500Y-143186250D01*
X148587500Y-166998750D02*
X153350000Y-171761250D01*
X148587500Y-152711250D02*
X148587500Y-166998750D01*
X153350000Y-181286250D02*
X143825000Y-190811250D01*
X153350000Y-171761250D02*
X153350000Y-181286250D01*
X143825000Y-190811250D02*
X143825000Y-197955000D01*
X162875000Y-196102502D02*
X162875000Y-190811250D01*
X172330001Y-171831249D02*
X172400000Y-171761250D01*
X172330001Y-181356249D02*
X172330001Y-171831249D01*
X162875000Y-190811250D02*
X172330001Y-181356249D01*
X167637500Y-166998750D02*
X167637500Y-152711250D01*
X172400000Y-171761250D02*
X167637500Y-166998750D01*
X158112500Y-143186250D02*
X158112500Y-133661250D01*
X167637500Y-152711250D02*
X158112500Y-143186250D01*
X158112500Y-133661250D02*
X158198750Y-133661250D01*
X158112500Y-97723224D02*
X158112500Y-95561250D01*
X260399970Y-110082790D02*
X257197190Y-106880010D01*
X252012470Y-125507530D02*
X252012470Y-122357530D01*
X252000000Y-125520000D02*
X252012470Y-125507530D01*
X167269286Y-106880010D02*
X158112500Y-97723224D01*
X257197190Y-106880010D02*
X167269286Y-106880010D01*
X251980020Y-125689980D02*
X252000000Y-125670000D01*
X252000000Y-125670000D02*
X252000000Y-125520000D01*
X166083770Y-125689980D02*
X251980020Y-125689980D01*
X158112500Y-133661250D02*
X166083770Y-125689980D01*
X139062500Y-95561250D02*
X139062500Y-93547500D01*
X154122499Y-91571249D02*
X158112500Y-95561250D01*
X141038751Y-91571249D02*
X154122499Y-91571249D01*
X139062500Y-93547500D02*
X141038751Y-91571249D01*
X142465919Y-61595492D02*
X144549972Y-61595634D01*
X139961401Y-64100009D02*
X142465919Y-61595492D01*
X138920029Y-69269201D02*
X138920029Y-65139201D01*
X136650000Y-71539230D02*
X138920029Y-69269201D01*
X139959220Y-64100010D02*
X139961401Y-64100009D01*
X138920029Y-65139201D02*
X139959220Y-64100010D01*
X139062500Y-74337500D02*
X136650000Y-71925000D01*
X136650000Y-71925000D02*
X136650000Y-71539230D01*
X139062500Y-76511250D02*
X139062500Y-74337500D01*
D24*
X131918750Y-209861250D02*
X131948750Y-209861250D01*
X143121250Y-198658750D02*
X143825000Y-197955000D01*
D23*
X139062500Y-95561250D02*
X139062500Y-76511250D01*
X224950000Y-63530000D02*
X225270000Y-63850000D01*
X144549972Y-61595634D02*
X147479994Y-61595833D01*
X147479994Y-61595833D02*
X181339997Y-61598134D01*
X181339997Y-61598134D02*
X213600326Y-61600326D01*
X213600326Y-61600326D02*
X214500000Y-62500000D01*
X214500000Y-62500000D02*
X219550000Y-62500000D01*
X219550000Y-62500000D02*
X219740000Y-62500000D01*
X225270000Y-62790000D02*
X225270000Y-63850000D01*
X224980000Y-62500000D02*
X225270000Y-62790000D01*
X219550000Y-62500000D02*
X224980000Y-62500000D01*
X131918750Y-209861250D02*
X139062500Y-209861250D01*
X146208740Y-209861250D02*
X146208750Y-209861240D01*
X139062500Y-209861250D02*
X146208740Y-209861250D01*
X139588750Y-202191250D02*
X143121250Y-202191250D01*
X131918750Y-209861250D02*
X139588750Y-202191250D01*
D24*
X143121250Y-202191250D02*
X143121250Y-198658750D01*
D23*
X156786252Y-202191250D02*
X162875000Y-196102502D01*
X143121250Y-202191250D02*
X156786252Y-202191250D01*
X252050761Y-122340009D02*
X260399970Y-113990800D01*
X252029990Y-122340010D02*
X252050761Y-122340009D01*
X260399970Y-113990800D02*
X260399970Y-110082790D01*
X252012470Y-122357530D02*
X252029990Y-122340010D01*
%TO.N,col5*%
X224787500Y-76511250D02*
X218306250Y-70030000D01*
X212218750Y-70030000D02*
X205737500Y-76511250D01*
X218306250Y-70030000D02*
X212218750Y-70030000D01*
X205737500Y-76511250D02*
X205737500Y-95561250D01*
X224787500Y-95561250D02*
X219346250Y-90120000D01*
X211178750Y-90120000D02*
X205737500Y-95561250D01*
X219346250Y-90120000D02*
X211178750Y-90120000D01*
X215262500Y-143186250D02*
X224787500Y-152711250D01*
X215262500Y-133661250D02*
X215262500Y-143186250D01*
X224787500Y-166998750D02*
X229550000Y-171761250D01*
X224787500Y-152711250D02*
X224787500Y-166998750D01*
X230674999Y-180161251D02*
X220025000Y-190811250D01*
X230674999Y-172886249D02*
X230674999Y-180161251D01*
X229550000Y-171761250D02*
X230674999Y-172886249D01*
X220025000Y-190811250D02*
X218434010Y-190811250D01*
X239005001Y-190881249D02*
X239075000Y-190811250D01*
X239005001Y-198024999D02*
X239005001Y-190881249D01*
X248600000Y-181286250D02*
X248600000Y-171761250D01*
X239075000Y-190811250D02*
X248600000Y-181286250D01*
X243837500Y-154745248D02*
X243837500Y-152711250D01*
X248600000Y-159507748D02*
X243837500Y-154745248D01*
X248600000Y-171761250D02*
X248600000Y-159507748D01*
X234312500Y-143186250D02*
X234312500Y-133661250D01*
X243837500Y-152711250D02*
X234312500Y-143186250D01*
X257560000Y-105970000D02*
X209535000Y-105970000D01*
X261299990Y-109709990D02*
X257560000Y-105970000D01*
X205737500Y-102172500D02*
X205737500Y-95561250D01*
X261299990Y-114363600D02*
X261299990Y-109709990D01*
X252912490Y-126317510D02*
X252912490Y-122751100D01*
X252640000Y-126590000D02*
X252912490Y-126317510D01*
X209535000Y-105970000D02*
X205737500Y-102172500D01*
X252912490Y-122751100D02*
X261299990Y-114363600D01*
X222333750Y-126590000D02*
X252640000Y-126590000D01*
X215262500Y-133661250D02*
X222333750Y-126590000D01*
X224787500Y-76511250D02*
X224787500Y-69937500D01*
X224787500Y-69937500D02*
X229550000Y-65175000D01*
X229550000Y-64650000D02*
X230350000Y-63850000D01*
X229550000Y-65175000D02*
X229550000Y-64650000D01*
D24*
X224731250Y-209861250D02*
X227168750Y-209861250D01*
X204666250Y-204795748D02*
X204666250Y-208401250D01*
X220025000Y-209861250D02*
X220025000Y-209715000D01*
X233880000Y-203150000D02*
X239005001Y-198024999D01*
X226590000Y-203150000D02*
X233880000Y-203150000D01*
D23*
X204666250Y-208551250D02*
X203356250Y-209861250D01*
X204666250Y-208401250D02*
X204666250Y-208551250D01*
X203356350Y-209861350D02*
X203356250Y-209861250D01*
X215265000Y-209861350D02*
X203356350Y-209861350D01*
X220024900Y-209861350D02*
X220025000Y-209861250D01*
X215265000Y-209861350D02*
X220024900Y-209861350D01*
X223201250Y-206538750D02*
X226590000Y-203150000D01*
X223201250Y-209861250D02*
X223201250Y-206538750D01*
X224731250Y-209861250D02*
X223201250Y-209861250D01*
X223201250Y-209861250D02*
X220025000Y-209861250D01*
X227168750Y-209861250D02*
X234315000Y-209861250D01*
X204666250Y-204795748D02*
X204666250Y-204353750D01*
X204666250Y-204353750D02*
X206820000Y-202200000D01*
X206820000Y-202200000D02*
X214790000Y-202200000D01*
X216762630Y-200227370D02*
X216762630Y-192482630D01*
X214790000Y-202200000D02*
X216762630Y-200227370D01*
X218434010Y-190811250D02*
X216762630Y-192482630D01*
%TO.N,col4*%
X186687500Y-76511250D02*
X186687500Y-95561250D01*
X177162500Y-143186250D02*
X186687500Y-152711250D01*
X177162500Y-133661250D02*
X177162500Y-143186250D01*
X186687500Y-166998750D02*
X191450000Y-171761250D01*
X186687500Y-152711250D02*
X186687500Y-166998750D01*
X191450000Y-181286250D02*
X181925000Y-190811250D01*
X191450000Y-171761250D02*
X191450000Y-181286250D01*
X181925000Y-192973224D02*
X191441776Y-202490000D01*
X181925000Y-190811250D02*
X181925000Y-192973224D01*
X200975000Y-196102502D02*
X200975000Y-190811250D01*
X194587502Y-202490000D02*
X200975000Y-196102502D01*
X210430001Y-171831249D02*
X210500000Y-171761250D01*
X210430001Y-181356249D02*
X210430001Y-171831249D01*
X200975000Y-190811250D02*
X210430001Y-181356249D01*
X205737500Y-166998750D02*
X205737500Y-152711250D01*
X210500000Y-171761250D02*
X205737500Y-166998750D01*
X196212500Y-143186250D02*
X196212500Y-133661250D01*
X205737500Y-152711250D02*
X196212500Y-143186250D01*
X196212500Y-133661250D02*
X195839698Y-133661249D01*
X196212500Y-133661250D02*
X203733760Y-126139990D01*
X252453600Y-126139990D02*
X252462480Y-126131110D01*
X203733760Y-126139990D02*
X252453600Y-126139990D01*
X252462480Y-126131110D02*
X252462480Y-122564700D01*
X252462480Y-122564700D02*
X260849980Y-114177200D01*
X260849980Y-114177200D02*
X260849980Y-109896390D01*
X260849980Y-109896390D02*
X257383590Y-106430000D01*
X186687500Y-97723224D02*
X186687500Y-95561250D01*
X195394276Y-106430000D02*
X186687500Y-97723224D01*
X257383590Y-106430000D02*
X195394276Y-106430000D01*
D24*
X320680000Y-215790000D02*
X315510000Y-210620000D01*
X306650000Y-210620000D02*
X301480000Y-215790000D01*
X315510000Y-210620000D02*
X306650000Y-210620000D01*
D23*
X193930000Y-202490000D02*
X194587502Y-202490000D01*
X191441776Y-202490000D02*
X193930000Y-202490000D01*
D24*
X193930000Y-219680000D02*
X193930000Y-202490000D01*
X297960000Y-223060000D02*
X296310000Y-224710000D01*
X296310000Y-224710000D02*
X198960000Y-224710000D01*
X198960000Y-224710000D02*
X193930000Y-219680000D01*
D23*
X297960000Y-223060000D02*
X297960000Y-217680000D01*
X299850000Y-215790000D02*
X301480000Y-215790000D01*
X297960000Y-217680000D02*
X299850000Y-215790000D01*
%TO.N,col7*%
X286955151Y-152456099D02*
X286955151Y-152711250D01*
X292587499Y-146823751D02*
X286955151Y-152456099D01*
X292587499Y-134786249D02*
X292587499Y-146823751D01*
X291462500Y-133661250D02*
X292587499Y-134786249D01*
X286955151Y-152932349D02*
X286955151Y-152711250D01*
X279556250Y-188430000D02*
X277175000Y-190811250D01*
X279556250Y-171761250D02*
X279556250Y-188430000D01*
X277175000Y-190811250D02*
X277175000Y-191625000D01*
X282253177Y-215736823D02*
X282128000Y-215862000D01*
X286118001Y-211871999D02*
X291938001Y-211871999D01*
X301300000Y-202510000D02*
X301300000Y-196680000D01*
X291938001Y-211871999D02*
X301300000Y-202510000D01*
X286141250Y-190811250D02*
X277175000Y-190811250D01*
X288820000Y-193490000D02*
X286141250Y-190811250D01*
X331943750Y-95561250D02*
X331943750Y-93596250D01*
X331943750Y-93596250D02*
X334880000Y-90660000D01*
X346092500Y-90660000D02*
X350993750Y-95561250D01*
X334880000Y-90660000D02*
X346092500Y-90660000D01*
X350993750Y-95561250D02*
X350993750Y-76511250D01*
X350889999Y-76407499D02*
X350889999Y-76239999D01*
X350993750Y-76511250D02*
X350889999Y-76407499D01*
X335933751Y-72521249D02*
X331943750Y-76511250D01*
X347171249Y-72521249D02*
X335933751Y-72521249D01*
X350889999Y-76239999D02*
X347171249Y-72521249D01*
X291462500Y-133661250D02*
X291566251Y-133557499D01*
X291462500Y-133661250D02*
X291538750Y-133661250D01*
X291538750Y-133661250D02*
X292110000Y-133090000D01*
X330352760Y-76511250D02*
X325010000Y-81854010D01*
X317820000Y-112630000D02*
X297780000Y-112630000D01*
X325010000Y-105440000D02*
X317820000Y-112630000D01*
X325010000Y-81854010D02*
X325010000Y-105440000D01*
X331943750Y-76511250D02*
X330352760Y-76511250D01*
D24*
X291462500Y-118947500D02*
X291855000Y-118555000D01*
X291462500Y-133661250D02*
X291462500Y-118947500D01*
D23*
X297780000Y-112630000D02*
X291855000Y-118555000D01*
X235475000Y-63895000D02*
X235430000Y-63850000D01*
X233225010Y-66054990D02*
X235430000Y-63850000D01*
X233225010Y-68388600D02*
X233225010Y-66054990D01*
X266997650Y-70459990D02*
X249252349Y-70459991D01*
X268737660Y-72200000D02*
X266997650Y-70459990D01*
X288570000Y-78280000D02*
X282490000Y-72200000D01*
X291855000Y-118555000D02*
X288650000Y-121760000D01*
X288650000Y-121760000D02*
X275370000Y-121760000D01*
X245537340Y-74175000D02*
X239011410Y-74175000D01*
X275370000Y-121760000D02*
X270750000Y-126380000D01*
X270750000Y-126380000D02*
X253812510Y-126380000D01*
X253812510Y-126380000D02*
X253812510Y-123123900D01*
X288580000Y-85750000D02*
X288580000Y-78581248D01*
X253812510Y-123123900D02*
X262200010Y-114736400D01*
X262200010Y-114736400D02*
X262200010Y-93366400D01*
X282490000Y-72200000D02*
X268737660Y-72200000D01*
X262200010Y-93366400D02*
X267076410Y-88490000D01*
X267076410Y-88490000D02*
X285840000Y-88490000D01*
X249252349Y-70459991D02*
X245537340Y-74175000D01*
X285840000Y-88490000D02*
X288580000Y-85750000D01*
X239011410Y-74175000D02*
X233225010Y-68388600D01*
X288580000Y-78581248D02*
X288570000Y-78571248D01*
X288570000Y-78571248D02*
X288570000Y-78280000D01*
X287490260Y-162236250D02*
X289081250Y-162236250D01*
X279556250Y-170170260D02*
X287490260Y-162236250D01*
X279556250Y-171761250D02*
X279556250Y-170170260D01*
X286955151Y-160110151D02*
X286955151Y-152711250D01*
X289081250Y-162236250D02*
X286955151Y-160110151D01*
X282128000Y-215862000D02*
X282128000Y-212372000D01*
X282128000Y-215862000D02*
X286118001Y-211871999D01*
X369537748Y-152711250D02*
X370043750Y-152711250D01*
D24*
X370043750Y-152711250D02*
X370043750Y-152713750D01*
X370043750Y-152713750D02*
X370680000Y-153350000D01*
X370043750Y-156436250D02*
X370043750Y-152711250D01*
X325286747Y-160389749D02*
X366090251Y-160389749D01*
X324900000Y-160003002D02*
X325286747Y-160389749D01*
X330371241Y-145547457D02*
X324900000Y-151018698D01*
X366090251Y-160389749D02*
X370043750Y-156436250D01*
X330371241Y-138421241D02*
X330371241Y-145547457D01*
X329390000Y-137440000D02*
X330371241Y-138421241D01*
X329390000Y-101157302D02*
X329390000Y-137440000D01*
X324900000Y-151018698D02*
X324900000Y-160003002D01*
X331943750Y-98603552D02*
X329390000Y-101157302D01*
X331943750Y-95561250D02*
X331943750Y-98603552D01*
D23*
X288820000Y-193490000D02*
X288820000Y-203600000D01*
X282128000Y-210292000D02*
X282128000Y-212372000D01*
X288820000Y-203600000D02*
X282128000Y-210292000D01*
%TO.N,col6*%
X243837500Y-76511250D02*
X243837500Y-95561250D01*
X253362500Y-143186250D02*
X262887500Y-152711250D01*
X253362500Y-133661250D02*
X253362500Y-143186250D01*
X264012499Y-168123749D02*
X267650000Y-171761250D01*
X264012499Y-153836249D02*
X264012499Y-168123749D01*
X262887500Y-152711250D02*
X264012499Y-153836249D01*
X267650000Y-182178224D02*
X267650000Y-190811250D01*
X267650000Y-190811250D02*
X266059010Y-190811250D01*
X283062499Y-134786249D02*
X283062499Y-147832525D01*
X281937500Y-133661250D02*
X283062499Y-134786249D01*
X281937500Y-133661250D02*
X274558502Y-133661250D01*
X275339999Y-170027253D02*
X280800000Y-164567252D01*
X272573073Y-195670151D02*
X274704999Y-193538225D01*
X280800000Y-150095024D02*
X283062499Y-147832525D01*
X280800000Y-164567252D02*
X280800000Y-150095024D01*
X258125000Y-190811250D02*
X267650000Y-190811250D01*
X274704999Y-193538225D02*
X274704999Y-190519001D01*
X274704999Y-190519001D02*
X276057400Y-189166600D01*
X276057400Y-187574652D02*
X275339999Y-186857251D01*
X276057400Y-189166600D02*
X276057400Y-187574652D01*
X275339999Y-186857251D02*
X275339999Y-170027253D01*
X253362500Y-133661250D02*
X253362500Y-122937500D01*
X253362500Y-122937500D02*
X261750000Y-114550000D01*
X243837500Y-76511250D02*
X249438750Y-70910000D01*
X266811250Y-70910000D02*
X272412500Y-76511250D01*
X249438750Y-70910000D02*
X266811250Y-70910000D01*
X261750000Y-114550000D02*
X261750000Y-93180000D01*
X272412500Y-82517500D02*
X272412500Y-76511250D01*
X261750000Y-93180000D02*
X272412500Y-82517500D01*
X232775000Y-68575000D02*
X232775000Y-63965000D01*
X238825009Y-74625009D02*
X232775000Y-68575000D01*
X241951260Y-74625010D02*
X238825009Y-74625009D01*
X232775000Y-63965000D02*
X232890000Y-63850000D01*
X243837500Y-76511250D02*
X241951260Y-74625010D01*
X259815251Y-199287349D02*
X264779800Y-194322800D01*
X258440677Y-199287349D02*
X259815251Y-199287349D01*
X264779800Y-192062200D02*
X265110000Y-191732000D01*
X264779800Y-194322800D02*
X264779800Y-192062200D01*
X265110000Y-191732000D02*
X266729250Y-191732000D01*
X266729250Y-191732000D02*
X267650000Y-190811250D01*
X272412500Y-133661250D02*
X274558502Y-133661250D01*
X267650000Y-171761250D02*
X267650000Y-182178224D01*
D24*
X293950000Y-212250000D02*
X293950000Y-223980000D01*
X296025010Y-210174990D02*
X293950000Y-212250000D01*
X316855010Y-210174990D02*
X296025010Y-210174990D01*
X320310000Y-206720000D02*
X316855010Y-210174990D01*
X378850000Y-159370000D02*
X367739338Y-159370000D01*
X367739338Y-159370000D02*
X366274580Y-160834759D01*
X293950000Y-223980000D02*
X293665010Y-224264990D01*
X360067249Y-164082751D02*
X321797249Y-164082751D01*
X366274580Y-160834759D02*
X363315241Y-160834759D01*
X321797249Y-164082751D02*
X320310000Y-165570000D01*
X363315241Y-160834759D02*
X360067249Y-164082751D01*
X320310000Y-165570000D02*
X320310000Y-206720000D01*
X246218750Y-209861250D02*
X248600000Y-209861250D01*
X257712651Y-199287349D02*
X258440677Y-199287349D01*
X255430000Y-201570000D02*
X255800000Y-201200000D01*
X255430000Y-203200000D02*
X255430000Y-201570000D01*
X255800000Y-201200000D02*
X257712651Y-199287349D01*
D23*
X253365000Y-209861250D02*
X248600000Y-209861250D01*
X253365000Y-209861250D02*
X257218750Y-209861250D01*
X257218750Y-209861250D02*
X257830000Y-209250000D01*
X257830000Y-205600000D02*
X255430000Y-203200000D01*
X257830000Y-209250000D02*
X257830000Y-205600000D01*
X266127151Y-195670151D02*
X264779800Y-194322800D01*
X269359849Y-195670151D02*
X266127151Y-195670151D01*
X269144589Y-195670151D02*
X269359849Y-195670151D01*
X269359849Y-195670151D02*
X272573073Y-195670151D01*
X259493901Y-222223901D02*
X261532490Y-224262490D01*
X259493901Y-210913901D02*
X259493901Y-222223901D01*
X257830000Y-209250000D02*
X259493901Y-210913901D01*
X261532490Y-224262490D02*
X293665010Y-224262490D01*
X378850000Y-159370000D02*
X379300000Y-159370000D01*
X379300000Y-159370000D02*
X380590000Y-158080000D01*
X380590000Y-150776198D02*
X382046198Y-149320000D01*
X380590000Y-158080000D02*
X380590000Y-150776198D01*
X385702500Y-149320000D02*
X389093750Y-152711250D01*
X382046198Y-149320000D02*
X385702500Y-149320000D01*
%TO.N,col8*%
X350993750Y-152711250D02*
X331943750Y-152711250D01*
X331943750Y-136707252D02*
X331943750Y-133661250D01*
X330818751Y-137832251D02*
X331943750Y-136707252D01*
X330818751Y-151586251D02*
X330818751Y-137832251D01*
X331943750Y-152711250D02*
X330818751Y-151586251D01*
X350889999Y-133557499D02*
X350993750Y-133661250D01*
X332047501Y-133557499D02*
X350889999Y-133557499D01*
X331943750Y-133661250D02*
X332047501Y-133557499D01*
X351097501Y-133557499D02*
X369752501Y-133557499D01*
X350993750Y-133661250D02*
X351097501Y-133557499D01*
X369752501Y-133557499D02*
X370610000Y-132700000D01*
X378607500Y-132700000D02*
X389093750Y-143186250D01*
X370610000Y-132700000D02*
X378607500Y-132700000D01*
X389093750Y-143186250D02*
X389093750Y-133661250D01*
X388770000Y-114935000D02*
X389093750Y-114611250D01*
X388770000Y-116321498D02*
X388770000Y-114935000D01*
X389023751Y-116575249D02*
X388770000Y-116321498D01*
X389023751Y-119195771D02*
X389023751Y-116575249D01*
X387531399Y-120688123D02*
X389023751Y-119195771D01*
X387531399Y-132098899D02*
X387531399Y-120688123D01*
X389093750Y-133661250D02*
X387531399Y-132098899D01*
X389093750Y-114611250D02*
X370043750Y-114611250D01*
X358074751Y-113486251D02*
X356949752Y-114611250D01*
X356949752Y-114611250D02*
X350993750Y-114611250D01*
X368918751Y-113486251D02*
X358074751Y-113486251D01*
X370043750Y-114611250D02*
X368918751Y-113486251D01*
X332047501Y-114507499D02*
X331943750Y-114611250D01*
X350889999Y-114507499D02*
X332047501Y-114507499D01*
X350993750Y-114611250D02*
X350889999Y-114507499D01*
X370043750Y-98607252D02*
X370043750Y-95561250D01*
X368828749Y-113396249D02*
X368828749Y-99822253D01*
X368828749Y-99822253D02*
X370043750Y-98607252D01*
X370043750Y-114611250D02*
X368828749Y-113396249D01*
X389093750Y-114611250D02*
X389093750Y-105086250D01*
X389093750Y-105086250D02*
X389093750Y-95561250D01*
X370043750Y-79557252D02*
X370043750Y-76511250D01*
X368918751Y-94436251D02*
X368918751Y-80682251D01*
X368918751Y-80682251D02*
X370043750Y-79557252D01*
X370043750Y-95561250D02*
X368918751Y-94436251D01*
X370043750Y-76511250D02*
X370043750Y-74776250D01*
X370043750Y-74776250D02*
X373170000Y-71650000D01*
X384232500Y-71650000D02*
X389093750Y-76511250D01*
X373170000Y-71650000D02*
X384232500Y-71650000D01*
X370043750Y-133661250D02*
X370728750Y-133661250D01*
X237925000Y-63895000D02*
X237970000Y-63850000D01*
X234358205Y-65558205D02*
X236261795Y-65558205D01*
X233675020Y-66241390D02*
X234358205Y-65558205D01*
X233675020Y-68202200D02*
X233675020Y-66241390D01*
X245350940Y-73724990D02*
X239197810Y-73724990D01*
X249065948Y-70009982D02*
X245350940Y-73724990D01*
X282676400Y-71749990D02*
X268924060Y-71749990D01*
X239197810Y-73724990D02*
X233675020Y-68202200D01*
X289030010Y-78103600D02*
X282676400Y-71749990D01*
X289030010Y-85936400D02*
X289030010Y-78103600D01*
X267262810Y-88940010D02*
X286026401Y-88940009D01*
X286026401Y-88940009D02*
X289030010Y-85936400D01*
X262650019Y-93552801D02*
X267262810Y-88940010D01*
X370043750Y-76511250D02*
X365603740Y-72071240D01*
X288463600Y-121309990D02*
X275183600Y-121309990D01*
X267184049Y-70009981D02*
X249065948Y-70009982D01*
X365603740Y-72071240D02*
X334156360Y-72071240D01*
X334156360Y-72071240D02*
X324559990Y-81667610D01*
X275183600Y-121309990D02*
X270563600Y-125929990D01*
X268924060Y-71749990D02*
X267184049Y-70009981D01*
X324559990Y-81667610D02*
X324559990Y-105253600D01*
X317633600Y-112179990D02*
X297593600Y-112179990D01*
X236261795Y-65558205D02*
X237970000Y-63850000D01*
X297593600Y-112179990D02*
X288463600Y-121309990D01*
X324559990Y-105253600D02*
X317633600Y-112179990D01*
X270563600Y-125929990D02*
X254262520Y-125929990D01*
X254262520Y-125929990D02*
X254262520Y-123310300D01*
X254262520Y-123310300D02*
X262650019Y-114922801D01*
X262650019Y-114922801D02*
X262650019Y-93552801D01*
%TO.N,row4*%
X186480000Y-65715020D02*
X186480000Y-63860000D01*
X185120000Y-67075020D02*
X186480000Y-65715020D01*
%TO.N,GND*%
X290885756Y-87530000D02*
X289477520Y-86121764D01*
X295380000Y-87530000D02*
X290885756Y-87530000D01*
X305470000Y-87490000D02*
X305470000Y-89320000D01*
X305470000Y-89320000D02*
X305210000Y-89580000D01*
X292935756Y-89580000D02*
X290885756Y-87530000D01*
X305210000Y-89580000D02*
X292935756Y-89580000D01*
X315630000Y-87490000D02*
X315630000Y-89880000D01*
X315630000Y-89880000D02*
X315450000Y-90060000D01*
X293415756Y-90060000D02*
X292935756Y-89580000D01*
X315450000Y-90060000D02*
X293415756Y-90060000D01*
D24*
X245165576Y-73277480D02*
X239383174Y-73277480D01*
X248880583Y-69562473D02*
X245165576Y-73277480D01*
X239383174Y-73277480D02*
X235250000Y-69144306D01*
X265432472Y-69562472D02*
X248880583Y-69562473D01*
X269109423Y-71302480D02*
X267369412Y-69562472D01*
X282861764Y-71302480D02*
X269109423Y-71302480D01*
X289477519Y-77918235D02*
X282861764Y-71302480D01*
X289477520Y-86121764D02*
X289477519Y-77918235D01*
X235250000Y-69144306D02*
X234512847Y-68407153D01*
X234430000Y-68324306D02*
X234430000Y-67310000D01*
X234512847Y-68407153D02*
X234430000Y-68324306D01*
X215080000Y-63880000D02*
X215110000Y-63850000D01*
X215080000Y-65740000D02*
X215080000Y-63880000D01*
X218940000Y-69600000D02*
X215080000Y-65740000D01*
X219900000Y-69600000D02*
X218940000Y-69600000D01*
X265432472Y-69562472D02*
X259800000Y-63930000D01*
X265607528Y-69562472D02*
X265432472Y-69562472D01*
X267369412Y-69562472D02*
X265607528Y-69562472D01*
X391930000Y-162570000D02*
X399681274Y-162570000D01*
X399681274Y-162570000D02*
X403750000Y-158501274D01*
D23*
X403750000Y-158501274D02*
X403750000Y-145690000D01*
X403750000Y-145690000D02*
X396050000Y-137990000D01*
X396050000Y-137990000D02*
X396050000Y-134310000D01*
X396050000Y-134310000D02*
X398610000Y-131750000D01*
X398610000Y-131750000D02*
X398610000Y-121900000D01*
X398610000Y-121900000D02*
X395890000Y-119180000D01*
X395890000Y-119180000D02*
X395890000Y-115380000D01*
X395890000Y-115380000D02*
X404270000Y-107000000D01*
X404270000Y-107000000D02*
X404270000Y-92930000D01*
X404270000Y-92930000D02*
X399740000Y-88400000D01*
D24*
X286211766Y-89387518D02*
X289477520Y-86121764D01*
X267448176Y-89387518D02*
X286211766Y-89387518D01*
X263097529Y-93738165D02*
X267448176Y-89387518D01*
X263097529Y-115108165D02*
X263097529Y-93738165D01*
X254710030Y-123495664D02*
X263097529Y-115108165D01*
X254710030Y-125482480D02*
X254710030Y-123495664D01*
X270378236Y-125482480D02*
X254710030Y-125482480D01*
X399730000Y-74360000D02*
X396680000Y-71310000D01*
X324112480Y-81482246D02*
X324112480Y-105068236D01*
X274998235Y-120862481D02*
X270378236Y-125482480D01*
X384525374Y-71310000D02*
X384417864Y-71202490D01*
X324112480Y-105068236D02*
X317448236Y-111732480D01*
X317448236Y-111732480D02*
X297408235Y-111732481D01*
X384417864Y-71202490D02*
X366137510Y-71202490D01*
X366137510Y-71202490D02*
X365716270Y-71623730D01*
X365716270Y-71623730D02*
X333970995Y-71623731D01*
X396680000Y-71310000D02*
X384525374Y-71310000D01*
X333970995Y-71623731D02*
X324112480Y-81482246D01*
X297408235Y-111732481D02*
X288278236Y-120862480D01*
X288278236Y-120862480D02*
X274998235Y-120862481D01*
D23*
X399740000Y-74370000D02*
X399730000Y-74360000D01*
X399740000Y-88400000D02*
X399740000Y-74370000D01*
%TO.N,NumLock*%
X240425000Y-63935000D02*
X240510000Y-63850000D01*
%TD*%
M02*
