%TF.GenerationSoftware,KiCad,Pcbnew,5.1.9+dfsg1-1*%
%TF.CreationDate,2022-02-11T04:52:15+01:00*%
%TF.ProjectId,va11800,76613131-3830-4302-9e6b-696361645f70,rev?*%
%TF.SameCoordinates,Original*%
%TF.FileFunction,Profile,NP*%
%FSLAX46Y46*%
G04 Gerber Fmt 4.6, Leading zero omitted, Abs format (unit mm)*
G04 Created by KiCad (PCBNEW 5.1.9+dfsg1-1) date 2022-02-11 04:52:15*
%MOMM*%
%LPD*%
G01*
G04 APERTURE LIST*
%TA.AperFunction,Profile*%
%ADD10C,1.000000*%
%TD*%
G04 APERTURE END LIST*
D10*
X282830000Y-59430000D02*
X135830000Y-59420000D01*
X282830000Y-59430000D02*
X282830000Y-68430000D01*
X35830000Y-65920000D02*
X35830000Y-68420000D01*
X35830000Y-68420000D02*
X20830000Y-68410000D01*
X20830000Y-65910000D02*
X15810000Y-65910000D01*
X20830000Y-65910000D02*
X20830000Y-68410000D01*
X405231250Y-165950000D02*
X322140000Y-165940000D01*
X15810000Y-65910000D02*
X15750000Y-225860000D01*
X120830000Y-65910000D02*
X120830000Y-68410000D01*
X135830000Y-59420000D02*
X135830000Y-68420000D01*
X120830000Y-65910000D02*
X35830000Y-65920000D01*
X135830000Y-68420000D02*
X120830000Y-68410000D01*
X297830000Y-68440000D02*
X282830000Y-68430000D01*
X297830000Y-65940000D02*
X297830000Y-68440000D01*
X385211250Y-65930000D02*
X297830000Y-65940000D01*
X385211250Y-65930000D02*
X385211250Y-68430000D01*
X400211250Y-68440000D02*
X385211250Y-68430000D01*
X400211250Y-65940000D02*
X400211250Y-68440000D01*
X405231250Y-65940000D02*
X400211250Y-65940000D01*
X405231250Y-65940000D02*
X405231250Y-165950000D01*
X322150000Y-204670000D02*
X322140000Y-165940000D01*
X342420000Y-204660000D02*
X322150000Y-204670000D01*
X342410000Y-225850000D02*
X342420000Y-204660000D01*
X15750000Y-225860000D02*
X342410000Y-225850000D01*
M02*
