M48
; DRILL file {KiCad 5.1.9+dfsg1-1} date Fri Feb 11 04:52:18 2022
; FORMAT={-:-/ absolute / inch / decimal}
; #@! TF.CreationDate,2022-02-11T04:52:18+01:00
; #@! TF.GenerationSoftware,Kicad,Pcbnew,5.1.9+dfsg1-1
FMAT,2
INCH
T1C0.0157
T2C0.0300
T3C0.0354
T4C0.0394
T5C0.0579
T6C0.0689
T7C0.1200
T8C0.1260
T9C0.1570
T10C0.2362
%
G90
G05
T1
X7.2882Y-2.6407
X7.3894Y-2.623
X7.487Y-2.6053
X8.5606Y-2.3829
X8.6575Y-2.7402
X8.6661Y-2.4114
X8.7646Y-2.4276
X9.2295Y-2.65
T2
X11.7063Y-2.9945
X11.7067Y-3.2984
X12.1012Y-2.9929
X12.1016Y-3.2969
X12.5008Y-2.9941
X12.5012Y-3.298
T3
X11.6291Y-3.4461
X11.7035Y-3.4461
X12.0264Y-3.4445
X12.1008Y-3.4445
X12.4264Y-3.4445
X12.5008Y-3.4445
T4
X0.7925Y-8.1976
X0.7925Y-8.5047
X0.7992Y-7.4465
X0.7992Y-7.7535
X1.4999Y-5.3025
X1.4999Y-5.6095
X1.8524Y-3.1504
X1.8524Y-3.4575
X1.8749Y-6.0525
X1.8749Y-6.3595
X1.8749Y-6.8025
X1.8749Y-7.1095
X2.2499Y-5.3025
X2.2499Y-5.6095
X2.4374Y-7.5525
X2.4374Y-7.8595
X2.6249Y-6.0525
X2.6249Y-6.3595
X2.8124Y-6.8025
X2.8124Y-7.1095
X2.9999Y-3.0525
X2.9999Y-3.3595
X2.9999Y-3.8071
X2.9999Y-4.1142
X2.9999Y-5.3025
X2.9999Y-5.6095
X3.1874Y-7.5525
X3.1874Y-7.8595
X3.3749Y-6.0525
X3.3749Y-6.3595
X3.5624Y-6.8025
X3.5624Y-7.1095
X3.628Y-8.2756
X3.628Y-8.5827
X3.7499Y-3.0525
X3.7499Y-3.3595
X3.7499Y-3.8071
X3.7499Y-4.1142
X3.7499Y-5.3025
X3.7499Y-5.6095
X3.7516Y-8.276
X3.7516Y-8.5831
X3.9374Y-7.5525
X3.9374Y-7.8595
X4.1249Y-6.0525
X4.1249Y-6.3595
X4.3124Y-6.8025
X4.3124Y-7.1095
X4.4999Y-3.0478
X4.4999Y-3.3549
X4.4999Y-3.8071
X4.4999Y-4.1142
X4.4999Y-5.3025
X4.4999Y-5.6095
X4.6874Y-7.5525
X4.6874Y-7.8595
X4.8749Y-6.0525
X4.8749Y-6.3595
X5.0624Y-6.8025
X5.0624Y-7.1095
X5.2499Y-3.0478
X5.2499Y-3.3549
X5.2499Y-3.8071
X5.2499Y-4.1142
X5.2499Y-5.3025
X5.2499Y-5.6095
X5.4374Y-7.5525
X5.4374Y-7.8595
X5.6249Y-6.0525
X5.6249Y-6.3595
X5.8124Y-6.8025
X5.8124Y-7.1095
X5.9999Y-3.0478
X5.9999Y-3.3549
X5.9999Y-3.8071
X5.9999Y-4.1142
X5.9999Y-5.3025
X5.9999Y-5.6095
X6.1874Y-7.5525
X6.1874Y-7.8595
X6.3749Y-6.0525
X6.3749Y-6.3595
X6.375Y-8.2242
X6.375Y-8.5312
X6.5624Y-6.8025
X6.5624Y-7.1095
X6.7417Y-2.5142
X6.7499Y-3.0478
X6.7499Y-3.3549
X6.7499Y-3.8025
X6.7499Y-4.1095
X6.7499Y-5.3025
X6.7499Y-5.6095
X6.8417Y-2.5142
X6.9374Y-7.5525
X6.9374Y-7.8595
X6.9417Y-2.5142
X7.0417Y-2.5142
X7.1249Y-6.0525
X7.1249Y-6.3595
X7.1417Y-2.5142
X7.2417Y-2.5142
X7.3124Y-6.8025
X7.3124Y-7.1095
X7.3417Y-2.5142
X7.4417Y-2.5142
X7.4999Y-5.3025
X7.4999Y-5.6095
X7.5417Y-2.5142
X7.6417Y-2.5142
X7.6874Y-7.5525
X7.6874Y-7.8595
X7.6874Y-8.2978
X7.6874Y-8.6049
X7.7417Y-2.5142
X7.8417Y-2.5142
X7.8749Y-3.0478
X7.8749Y-3.3549
X7.8749Y-3.8025
X7.8749Y-4.1095
X7.8749Y-6.0525
X7.8749Y-6.3595
X7.9417Y-2.5142
X8.0417Y-2.5142
X8.0624Y-6.8025
X8.0624Y-7.1095
X8.1417Y-2.5142
X8.2417Y-2.5142
X8.2499Y-5.3025
X8.2499Y-5.6095
X8.4374Y-7.5525
X8.4374Y-7.8595
X8.4689Y-2.5138
X8.5689Y-2.5138
X8.6249Y-3.0525
X8.6249Y-3.3595
X8.6249Y-3.8025
X8.6249Y-4.1095
X8.6249Y-6.0525
X8.6249Y-6.3595
X8.6689Y-2.5138
X8.7689Y-2.5138
X8.8124Y-6.8025
X8.8124Y-7.1095
X8.8689Y-2.5138
X8.9689Y-2.5138
X8.9999Y-5.3025
X8.9999Y-5.6095
X9.0689Y-2.5138
X9.1689Y-2.5138
X9.1874Y-7.5525
X9.1874Y-7.8595
X9.2689Y-2.5138
X9.3689Y-2.5138
X9.3749Y-3.0478
X9.3749Y-3.3549
X9.3749Y-3.8025
X9.3749Y-4.1095
X9.3749Y-6.0525
X9.3749Y-6.3595
X9.4689Y-2.5138
X9.4756Y-8.735
X9.5624Y-6.8025
X9.5624Y-7.1095
X9.5689Y-2.5138
X9.6689Y-2.5138
X9.7499Y-5.3025
X9.7499Y-5.6095
X9.7689Y-2.5138
X9.7827Y-8.735
X9.8689Y-2.5138
X9.9304Y-7.6174
X9.9304Y-7.9245
X9.9344Y-7.2095
X9.9344Y-7.5166
X9.9689Y-2.5138
X10.1249Y-3.0478
X10.1249Y-3.3549
X10.1249Y-3.8025
X10.1249Y-4.1095
X10.1249Y-6.0525
X10.1249Y-6.3595
X10.3084Y-6.476
X10.3084Y-6.783
X10.3084Y-6.8841
X10.3084Y-7.1912
X10.4999Y-5.3025
X10.4999Y-5.6095
X10.6894Y-8.3878
X10.6894Y-8.6949
X10.8749Y-6.0525
X10.8749Y-6.3595
X11.2499Y-3.0478
X11.2499Y-3.3549
X11.4374Y-7.4634
X11.4374Y-7.7705
X11.6249Y-8.49
X11.6249Y-8.797
X11.9999Y-5.3025
X11.9999Y-5.6095
X11.9999Y-6.0525
X11.9999Y-6.3595
X11.9999Y-6.8025
X11.9999Y-7.1095
X12.1098Y-5.3031
X12.1098Y-5.6102
X12.3749Y-7.74
X12.3749Y-8.047
X12.3749Y-8.49
X12.3749Y-8.797
X12.8437Y-5.9587
X12.8437Y-6.2658
X13.1249Y-8.49
X13.1249Y-8.797
X13.5937Y-3.0525
X13.5937Y-3.3595
X13.5937Y-3.8025
X13.5937Y-4.1095
X13.5937Y-4.5525
X13.5937Y-4.8595
X13.5937Y-5.3025
X13.5937Y-5.6095
X14.3437Y-3.0525
X14.3437Y-3.3595
X14.3437Y-3.8025
X14.3437Y-4.1095
X14.3437Y-4.5525
X14.3437Y-4.8595
X14.3437Y-5.3025
X14.3437Y-5.6095
X14.3437Y-5.9587
X14.3437Y-6.2658
X14.5265Y-4.9873
X14.5651Y-4.2373
X14.5651Y-5.7373
X14.5698Y-3.4873
X14.8336Y-4.9873
X14.8722Y-4.2373
X14.8722Y-5.7373
X14.8769Y-3.4873
X15.0474Y-5.9381
X15.0474Y-6.2452
X15.0937Y-3.0525
X15.0937Y-3.3595
X15.3014Y-4.9405
X15.3151Y-3.4873
X15.6085Y-4.9405
X15.6222Y-3.4873
X15.8437Y-3.0571
X15.8437Y-3.3642
X15.8594Y-4.834
X15.8594Y-5.141
T5
X0.9749Y-3.0123
X0.9749Y-5.2623
X0.975Y-8.2623
X1.0687Y-6.7623
X1.0687Y-7.5123
X1.0687Y-8.2623
X1.1624Y-6.0123
X1.1624Y-8.2623
X1.2249Y-2.9123
X1.2249Y-5.1623
X1.225Y-8.1623
X1.2562Y-6.7623
X1.3187Y-6.6623
X1.3187Y-7.4123
X1.3187Y-8.1623
X1.4124Y-5.9123
X1.4124Y-8.1623
X1.4437Y-7.5123
X1.5062Y-6.6623
X1.6937Y-7.4123
X1.7249Y-5.2623
X1.725Y-8.2623
X1.9124Y-7.5123
X1.9749Y-5.1623
X1.975Y-8.1623
X2.0063Y-8.2623
X2.0999Y-6.0123
X2.1624Y-7.4123
X2.2563Y-8.1623
X2.2874Y-6.7623
X2.2874Y-8.2623
X2.3499Y-5.9123
X2.4749Y-3.0123
X2.4749Y-3.7623
X2.4749Y-5.2623
X2.475Y-8.2623
X2.5374Y-6.6623
X2.5374Y-8.1623
X2.6624Y-7.5123
X2.7249Y-2.9123
X2.7249Y-3.6623
X2.7249Y-5.1623
X2.725Y-8.1623
X2.8499Y-6.0123
X2.9124Y-7.4123
X2.9438Y-8.2623
X3.0374Y-6.7623
X3.0999Y-5.9123
X3.1938Y-8.1623
X3.2249Y-3.0123
X3.2249Y-3.7623
X3.2249Y-5.2623
X3.2874Y-6.6623
X3.4124Y-7.5123
X3.4749Y-2.9123
X3.4749Y-3.6623
X3.4749Y-5.1623
X3.5999Y-6.0123
X3.6624Y-7.4123
X3.7874Y-6.7623
X3.8499Y-5.9123
X3.9749Y-3.0123
X3.9749Y-3.7623
X3.9749Y-5.2623
X4.0374Y-6.6623
X4.1624Y-7.5123
X4.2249Y-2.9123
X4.2249Y-3.6623
X4.2249Y-5.1623
X4.3499Y-6.0123
X4.4124Y-7.4123
X4.5374Y-6.7623
X4.5999Y-5.9123
X4.7249Y-3.0123
X4.7249Y-3.7623
X4.7249Y-5.2623
X4.7874Y-6.6623
X4.9124Y-7.5123
X4.9749Y-2.9123
X4.9749Y-3.6623
X4.9749Y-5.1623
X5.0999Y-6.0123
X5.1624Y-7.4123
X5.1937Y-8.2623
X5.2874Y-6.7623
X5.3499Y-5.9123
X5.4437Y-8.1623
X5.4749Y-3.0123
X5.4749Y-3.7623
X5.4749Y-5.2623
X5.4749Y-8.2623
X5.5374Y-6.6623
X5.6624Y-7.5123
X5.7249Y-2.9123
X5.7249Y-3.6623
X5.7249Y-5.1623
X5.7249Y-8.1623
X5.7562Y-8.2623
X5.8499Y-6.0123
X5.9124Y-7.4123
X6.0062Y-8.1623
X6.0374Y-6.7623
X6.0999Y-5.9123
X6.2249Y-3.0123
X6.2249Y-3.7623
X6.2249Y-5.2623
X6.2874Y-6.6623
X6.4124Y-7.5123
X6.4749Y-2.9123
X6.4749Y-3.6623
X6.4749Y-5.1623
X6.5999Y-6.0123
X6.6624Y-7.4123
X6.7874Y-6.7623
X6.8499Y-5.9123
X6.9749Y-5.2623
X7.0374Y-6.6623
X7.1624Y-7.5123
X7.2249Y-5.1623
X7.3499Y-3.0123
X7.3499Y-3.7623
X7.3499Y-6.0123
X7.4124Y-7.4123
X7.5374Y-6.7623
X7.5999Y-2.9123
X7.5999Y-3.6623
X7.5999Y-5.9123
X7.7249Y-5.2623
X7.7874Y-6.6623
X7.9124Y-7.5123
X7.9749Y-5.1623
X8.0062Y-8.2623
X8.0999Y-3.0123
X8.0999Y-3.7623
X8.0999Y-6.0123
X8.1624Y-7.4123
X8.2562Y-8.1623
X8.2874Y-6.7623
X8.3499Y-2.9123
X8.3499Y-3.6623
X8.3499Y-5.9123
X8.4749Y-5.2623
X8.475Y-8.2623
X8.5374Y-6.6623
X8.6624Y-7.5123
X8.6624Y-8.2623
X8.7249Y-5.1623
X8.725Y-8.1623
X8.8499Y-3.0123
X8.8499Y-3.7623
X8.8499Y-6.0123
X8.9124Y-7.4123
X8.9124Y-8.1623
X8.9437Y-8.2623
X9.0374Y-6.7623
X9.0999Y-2.9123
X9.0999Y-3.6623
X9.0999Y-5.9123
X9.1937Y-8.1623
X9.2249Y-5.2623
X9.225Y-8.2623
X9.2874Y-6.6623
X9.4124Y-7.5123
X9.4749Y-5.1623
X9.475Y-8.1623
X9.5999Y-3.0123
X9.5999Y-3.7623
X9.5999Y-6.0123
X9.6624Y-7.4123
X9.6937Y-8.2623
X9.7874Y-6.7623
X9.7874Y-8.2623
X9.8499Y-2.9123
X9.8499Y-3.6623
X9.8499Y-5.9123
X9.9437Y-8.1623
X9.9749Y-5.2623
X9.975Y-8.2623
X10.0374Y-6.6623
X10.0374Y-8.1623
X10.1624Y-7.5123
X10.2249Y-5.1623
X10.225Y-8.1623
X10.3499Y-6.0123
X10.4124Y-7.4123
X10.5374Y-6.7623
X10.5374Y-7.5123
X10.5999Y-5.9123
X10.7249Y-3.0123
X10.7249Y-5.2623
X10.7874Y-6.6623
X10.7874Y-7.4123
X10.9124Y-7.5123
X10.9749Y-2.9123
X10.9749Y-5.1623
X11.0062Y-6.7623
X11.0999Y-5.2623
X11.1145Y-8.495
X11.1624Y-7.4123
X11.2562Y-6.6623
X11.2874Y-6.0123
X11.3499Y-5.1623
X11.3645Y-8.395
X11.3812Y-6.3873
X11.4749Y-5.2623
X11.5374Y-5.9123
X11.6312Y-6.2873
X11.7249Y-5.1623
X11.8693Y-7.7398
X11.8693Y-8.4957
X12.1193Y-7.6398
X12.1193Y-8.3957
X12.6252Y-8.4957
X12.8752Y-8.3957
X13.0687Y-3.0123
X13.0687Y-3.7623
X13.0687Y-4.5123
X13.0687Y-5.2623
X13.0687Y-6.0123
X13.3187Y-2.9123
X13.3187Y-3.6623
X13.3187Y-4.4123
X13.3187Y-5.1623
X13.3187Y-5.9123
X13.4437Y-6.0123
X13.6937Y-5.9123
X13.8187Y-3.0123
X13.8187Y-3.7623
X13.8187Y-4.5123
X13.8187Y-5.2623
X13.8187Y-6.0123
X14.0687Y-2.9123
X14.0687Y-3.6623
X14.0687Y-4.4123
X14.0687Y-5.1623
X14.0687Y-5.9123
X14.5687Y-3.0123
X14.5687Y-3.7623
X14.5687Y-4.5123
X14.5687Y-5.2623
X14.5687Y-6.0123
X14.8187Y-2.9123
X14.8187Y-3.6623
X14.8187Y-4.4123
X14.8187Y-5.1623
X14.8187Y-5.9123
X15.3187Y-3.0123
X15.3187Y-3.7623
X15.3187Y-4.1373
X15.3187Y-4.5123
X15.3187Y-5.2623
X15.3187Y-5.6373
X15.3187Y-6.0123
X15.5687Y-2.9123
X15.5687Y-3.6623
X15.5687Y-4.0373
X15.5687Y-4.4123
X15.5687Y-5.1623
X15.5687Y-5.5373
X15.5687Y-5.9123
T6
X0.9249Y-3.1123
X0.9249Y-5.3623
X0.925Y-8.3623
X1.0187Y-6.8623
X1.0187Y-7.6123
X1.0187Y-8.3623
X1.1124Y-6.1123
X1.1124Y-8.3623
X1.2062Y-6.8623
X1.3249Y-3.1123
X1.3249Y-5.3623
X1.325Y-8.3623
X1.3937Y-7.6123
X1.4187Y-6.8623
X1.4187Y-7.6123
X1.4187Y-8.3623
X1.5124Y-6.1123
X1.5124Y-8.3623
X1.6062Y-6.8623
X1.6749Y-5.3623
X1.675Y-8.3623
X1.7937Y-7.6123
X1.8624Y-7.6123
X1.9563Y-8.3623
X2.0499Y-6.1123
X2.0749Y-5.3623
X2.075Y-8.3623
X2.2374Y-6.8623
X2.2374Y-8.3623
X2.2624Y-7.6123
X2.3562Y-8.3623
X2.4249Y-3.1123
X2.4249Y-3.8623
X2.4249Y-5.3623
X2.425Y-8.3623
X2.4499Y-6.1123
X2.6124Y-7.6123
X2.6374Y-6.8623
X2.6374Y-8.3623
X2.7999Y-6.1123
X2.8249Y-3.1123
X2.8249Y-3.8623
X2.8249Y-5.3623
X2.825Y-8.3623
X2.8937Y-8.3623
X2.9874Y-6.8623
X3.0124Y-7.6123
X3.1749Y-3.1123
X3.1749Y-3.8623
X3.1749Y-5.3623
X3.1999Y-6.1123
X3.2937Y-8.3623
X3.3624Y-7.6123
X3.3874Y-6.8623
X3.5499Y-6.1123
X3.5749Y-3.1123
X3.5749Y-3.8623
X3.5749Y-5.3623
X3.7374Y-6.8623
X3.7624Y-7.6123
X3.9249Y-3.1123
X3.9249Y-3.8623
X3.9249Y-5.3623
X3.9499Y-6.1123
X4.1124Y-7.6123
X4.1374Y-6.8623
X4.2999Y-6.1123
X4.3249Y-3.1123
X4.3249Y-3.8623
X4.3249Y-5.3623
X4.4874Y-6.8623
X4.5124Y-7.6123
X4.6749Y-3.1123
X4.6749Y-3.8623
X4.6749Y-5.3623
X4.6999Y-6.1123
X4.8624Y-7.6123
X4.8874Y-6.8623
X5.0499Y-6.1123
X5.0749Y-3.1123
X5.0749Y-3.8623
X5.0749Y-5.3623
X5.1437Y-8.3623
X5.2374Y-6.8623
X5.2624Y-7.6123
X5.4249Y-3.1123
X5.4249Y-3.8623
X5.4249Y-5.3623
X5.4249Y-8.3623
X5.4499Y-6.1123
X5.5437Y-8.3623
X5.6124Y-7.6123
X5.6374Y-6.8623
X5.7062Y-8.3623
X5.7999Y-6.1123
X5.8249Y-3.1123
X5.8249Y-3.8623
X5.8249Y-5.3623
X5.8249Y-8.3623
X5.9874Y-6.8623
X6.0124Y-7.6123
X6.1063Y-8.3623
X6.1749Y-3.1123
X6.1749Y-3.8623
X6.1749Y-5.3623
X6.1999Y-6.1123
X6.3624Y-7.6123
X6.3874Y-6.8623
X6.5499Y-6.1123
X6.5749Y-3.1123
X6.5749Y-3.8623
X6.5749Y-5.3623
X6.7374Y-6.8623
X6.7624Y-7.6123
X6.9249Y-5.3623
X6.9499Y-6.1123
X7.1124Y-7.6123
X7.1374Y-6.8623
X7.2999Y-3.1123
X7.2999Y-3.8623
X7.2999Y-6.1123
X7.3249Y-5.3623
X7.4874Y-6.8623
X7.5124Y-7.6123
X7.6749Y-5.3623
X7.6999Y-3.1123
X7.6999Y-3.8623
X7.6999Y-6.1123
X7.8624Y-7.6123
X7.8874Y-6.8623
X7.9562Y-8.3623
X8.0499Y-3.1123
X8.0499Y-3.8623
X8.0499Y-6.1123
X8.0749Y-5.3623
X8.2374Y-6.8623
X8.2624Y-7.6123
X8.3562Y-8.3623
X8.4249Y-5.3623
X8.425Y-8.3623
X8.4499Y-3.1123
X8.4499Y-3.8623
X8.4499Y-6.1123
X8.6124Y-7.6123
X8.6124Y-8.3623
X8.6374Y-6.8623
X8.7999Y-3.1123
X8.7999Y-3.8623
X8.7999Y-6.1123
X8.8249Y-5.3623
X8.825Y-8.3623
X8.8937Y-8.3623
X8.9874Y-6.8623
X9.0124Y-7.6123
X9.0124Y-8.3623
X9.1749Y-5.3623
X9.175Y-8.3623
X9.1999Y-3.1123
X9.1999Y-3.8623
X9.1999Y-6.1123
X9.2937Y-8.3623
X9.3624Y-7.6123
X9.3874Y-6.8623
X9.5499Y-3.1123
X9.5499Y-3.8623
X9.5499Y-6.1123
X9.5749Y-5.3623
X9.575Y-8.3623
X9.6437Y-8.3623
X9.7374Y-6.8623
X9.7374Y-8.3623
X9.7624Y-7.6123
X9.9249Y-5.3623
X9.925Y-8.3623
X9.9499Y-3.1123
X9.9499Y-3.8623
X9.9499Y-6.1123
X10.0437Y-8.3623
X10.1124Y-7.6123
X10.1374Y-6.8623
X10.1374Y-8.3623
X10.2999Y-6.1123
X10.3249Y-5.3623
X10.325Y-8.3623
X10.4874Y-6.8623
X10.4874Y-7.6123
X10.5124Y-7.6123
X10.6749Y-3.1123
X10.6749Y-5.3623
X10.6999Y-6.1123
X10.8624Y-7.6123
X10.8874Y-6.8623
X10.8874Y-7.6123
X10.9562Y-6.8623
X11.0499Y-5.3623
X11.0645Y-8.595
X11.0749Y-3.1123
X11.0749Y-5.3623
X11.2374Y-6.1123
X11.2624Y-7.6123
X11.3312Y-6.4873
X11.3562Y-6.8623
X11.4249Y-5.3623
X11.4499Y-5.3623
X11.4645Y-8.595
X11.6374Y-6.1123
X11.7312Y-6.4873
X11.8193Y-7.8398
X11.8193Y-8.5957
X11.8249Y-5.3623
X12.2193Y-7.8398
X12.2193Y-8.5957
X12.5752Y-8.5957
X12.9752Y-8.5957
X13.0187Y-3.1123
X13.0187Y-3.8623
X13.0187Y-4.6123
X13.0187Y-5.3623
X13.0187Y-6.1123
X13.3937Y-6.1123
X13.4187Y-3.1123
X13.4187Y-3.8623
X13.4187Y-4.6123
X13.4187Y-5.3623
X13.4187Y-6.1123
X13.7687Y-3.1123
X13.7687Y-3.8623
X13.7687Y-4.6123
X13.7687Y-5.3623
X13.7687Y-6.1123
X13.7937Y-6.1123
X14.1687Y-3.1123
X14.1687Y-3.8623
X14.1687Y-4.6123
X14.1687Y-5.3623
X14.1687Y-6.1123
X14.5187Y-3.1123
X14.5187Y-3.8623
X14.5187Y-4.6123
X14.5187Y-5.3623
X14.5187Y-6.1123
X14.9187Y-3.1123
X14.9187Y-3.8623
X14.9187Y-4.6123
X14.9187Y-5.3623
X14.9187Y-6.1123
X15.2687Y-3.1123
X15.2687Y-3.8623
X15.2687Y-4.2373
X15.2687Y-4.6123
X15.2687Y-5.3623
X15.2687Y-5.7373
X15.2687Y-6.1123
X15.6687Y-3.1123
X15.6687Y-3.8623
X15.6687Y-4.2373
X15.6687Y-4.6123
X15.6687Y-5.3623
X15.6687Y-5.7373
X15.6687Y-6.1123
T7
X1.1249Y-7.3373
X2.0624Y-7.3373
X3.3749Y-8.0873
X3.3752Y-8.0873
X3.9377Y-8.0873
X7.3122Y-8.0873
X7.8747Y-8.0873
X7.8749Y-8.0873
X10.2187Y-7.3373
X10.6874Y-6.5873
X10.7812Y-5.6373
X11.1562Y-7.3373
X11.6249Y-6.5873
X11.7187Y-5.6373
X11.8062Y-6.0173
X11.8062Y-6.9573
X13.1249Y-6.3873
X14.0624Y-6.3873
X15.1937Y-3.7673
X15.1937Y-4.7073
X15.1937Y-5.2673
X15.1937Y-6.2073
T8
X4.6862Y-4.6193
X11.8189Y-4.6197
T9
X1.1249Y-3.1123
X1.1249Y-5.3623
X1.1249Y-7.9373
X1.125Y-8.3623
X1.2187Y-6.8623
X1.2187Y-7.6123
X1.2187Y-8.3623
X1.3124Y-6.1123
X1.3124Y-8.3623
X1.4062Y-6.8623
X1.5937Y-7.6123
X1.8749Y-5.3623
X1.875Y-8.3623
X2.0624Y-7.6123
X2.0624Y-7.9373
X2.1562Y-8.3623
X2.2499Y-6.1123
X2.4374Y-6.8623
X2.4374Y-8.3623
X2.6249Y-3.1123
X2.6249Y-3.8623
X2.6249Y-5.3623
X2.625Y-8.3623
X2.8124Y-7.6123
X2.9999Y-6.1123
X3.0938Y-8.3623
X3.1874Y-6.8623
X3.3749Y-3.1123
X3.3749Y-3.8623
X3.3749Y-5.3623
X3.3749Y-8.6873
X3.3752Y-8.6873
X3.5624Y-7.6123
X3.7499Y-6.1123
X3.9374Y-6.8623
X3.9377Y-8.6873
X4.1249Y-3.1123
X4.1249Y-3.8623
X4.1249Y-5.3623
X4.3124Y-7.6123
X4.4999Y-6.1123
X4.6874Y-6.8623
X4.8749Y-3.1123
X4.8749Y-3.8623
X4.8749Y-5.3623
X5.0624Y-7.6123
X5.2499Y-6.1123
X5.3437Y-8.3623
X5.4374Y-6.8623
X5.6249Y-3.1123
X5.6249Y-3.8623
X5.6249Y-5.3623
X5.6249Y-8.3623
X5.8124Y-7.6123
X5.9062Y-8.3623
X5.9999Y-6.1123
X6.1874Y-6.8623
X6.3749Y-3.1123
X6.3749Y-3.8623
X6.3749Y-5.3623
X6.5624Y-7.6123
X6.7499Y-6.1123
X6.9374Y-6.8623
X7.1249Y-5.3623
X7.3122Y-8.6873
X7.3124Y-7.6123
X7.4999Y-3.1123
X7.4999Y-3.8623
X7.4999Y-6.1123
X7.6874Y-6.8623
X7.8747Y-8.6873
X7.8749Y-5.3623
X7.8749Y-8.6873
X8.0624Y-7.6123
X8.1562Y-8.3623
X8.2499Y-3.1123
X8.2499Y-3.8623
X8.2499Y-6.1123
X8.4374Y-6.8623
X8.6249Y-5.3623
X8.625Y-8.3623
X8.8124Y-7.6123
X8.8124Y-8.3623
X8.9999Y-3.1123
X8.9999Y-3.8623
X8.9999Y-6.1123
X9.0937Y-8.3623
X9.1874Y-6.8623
X9.3749Y-5.3623
X9.375Y-8.3623
X9.5624Y-7.6123
X9.7499Y-3.1123
X9.7499Y-3.8623
X9.7499Y-6.1123
X9.8437Y-8.3623
X9.9374Y-6.8623
X9.9374Y-8.3623
X10.1249Y-5.3623
X10.125Y-8.3623
X10.2187Y-7.9373
X10.3124Y-7.6123
X10.4999Y-6.1123
X10.6874Y-6.8623
X10.6874Y-7.1873
X10.6874Y-7.6123
X10.7812Y-5.0373
X10.8749Y-3.1123
X10.8749Y-5.3623
X11.0624Y-7.6123
X11.1562Y-6.8623
X11.1562Y-7.9373
X11.2062Y-6.0173
X11.2062Y-6.9573
X11.2499Y-5.3623
X11.2645Y-8.595
X11.4374Y-6.1123
X11.5312Y-6.4873
X11.6249Y-5.3623
X11.6249Y-7.1873
X11.7187Y-5.0373
X12.0193Y-7.8398
X12.0193Y-8.5957
X12.7752Y-8.5957
X13.1249Y-5.7873
X13.2187Y-3.1123
X13.2187Y-3.8623
X13.2187Y-4.6123
X13.2187Y-5.3623
X13.2187Y-6.1123
X13.5937Y-6.1123
X13.9687Y-3.1123
X13.9687Y-3.8623
X13.9687Y-4.6123
X13.9687Y-5.3623
X13.9687Y-6.1123
X14.0624Y-5.7873
X14.7187Y-3.1123
X14.7187Y-3.8623
X14.7187Y-4.6123
X14.7187Y-5.3623
X14.7187Y-6.1123
X15.4687Y-3.1123
X15.4687Y-3.8623
X15.4687Y-4.2373
X15.4687Y-4.6123
X15.4687Y-5.3623
X15.4687Y-5.7373
X15.4687Y-6.1123
X15.7937Y-3.7673
X15.7937Y-4.7073
X15.7937Y-5.2673
X15.7937Y-6.2073
T10
X1.0724Y-4.6209
X8.2547Y-4.6248
X12.3976Y-4.6236
T0
M30
